<svg width="44" height="44" viewBox="0 0 44 44" fill="none" xmlns="http://www.w3.org/2000/svg">
<g clip-path="url(#clip0_139_207)">
<path d="M22 2.75C22.7293 2.75 23.4288 3.03973 23.9445 3.55546C24.4603 4.07118 24.75 4.77065 24.75 5.5V8.25H19.25V5.5C19.25 4.77065 19.5397 4.07118 20.0555 3.55546C20.5712 3.03973 21.2707 2.75 22 2.75Z" fill="#013F25"/>
<path d="M11 33H33V19.25C33 16.3326 31.8411 13.5347 29.7782 11.4718C27.7153 9.40892 24.9174 8.25 22 8.25C19.0826 8.25 16.2847 9.40892 14.2218 11.4718C12.1589 13.5347 11 16.3326 11 19.25V33ZM22 5.5C25.6467 5.5 29.1441 6.94866 31.7227 9.52728C34.3013 12.1059 35.75 15.6033 35.75 19.25V35.75H8.25V19.25C8.25 15.6033 9.69866 12.1059 12.2773 9.52728C14.8559 6.94866 18.3533 5.5 22 5.5Z" fill="#013F25"/>
<path d="M4.125 33H39.875C40.7917 33 41.25 33.4583 41.25 34.375C41.25 35.2917 40.7917 35.75 39.875 35.75H4.125C3.20833 35.75 2.75 35.2917 2.75 34.375C2.75 33.4583 3.20833 33 4.125 33ZM19.25 38.5H24.75C24.75 39.2293 24.4603 39.9288 23.9445 40.4445C23.4288 40.9603 22.7293 41.25 22 41.25C21.2707 41.25 20.5712 40.9603 20.0555 40.4445C19.5397 39.9288 19.25 39.2293 19.25 38.5Z" fill="#013F25"/>
<path fill-rule="evenodd" clip-rule="evenodd" d="M16.7005 25.277H19.1583V29.5596H16.7005V25.277ZM19.7914 25.5749H20.6852V26.7294H19.7914V25.5749ZM13.2 22.0744V27.3624H14.8385V31.5333H22.2492V23.8619C22.4524 23.998 22.5901 24.175 22.7816 24.3351L23.8779 25.3241C23.9639 25.4108 24.3631 25.7761 24.4464 25.7984C24.6979 25.6299 26.4308 23.5661 26.9139 23.0897L29.0425 20.7123C29.3867 20.268 29.7391 20.3987 26.4573 20.3987C26.3454 20.3987 25.5721 21.228 25.4425 21.3576C25.2067 21.5934 24.6752 22.1819 24.4464 22.3351C23.6995 21.835 22.6083 19.989 21.3555 19.989H20.3872V20.6221C21.9733 20.6221 21.7138 20.5149 23.0219 21.8231L24.4464 23.2289C24.652 23.0912 26.1803 21.4805 26.538 21.1496C26.6386 21.0566 26.6088 21.0694 26.7893 21.0658C26.9102 21.0634 27.0421 21.0689 27.1648 21.069C27.4007 21.069 27.6365 21.069 27.8724 21.069C27.8041 21.1709 27.7434 21.2093 27.6578 21.3013C27.0404 21.965 26.3289 22.8308 25.7024 23.4795L24.8287 24.4677C24.6594 24.6421 24.5269 24.8381 24.3719 24.9419C24.2554 24.768 23.5846 24.2013 23.3765 24.0008L21.6161 22.4468V30.9002H15.5089V27.3624H16.0675V30.0809C16.0675 30.1667 16.0934 30.1927 16.1792 30.1927H19.6797C19.7655 30.1927 19.7914 30.1667 19.7914 30.0809V27.3624H21.3182V24.9419H19.7914V24.644H16.0675V24.9419H15.5089V23.1171H14.8385V25.4632C14.8385 25.549 14.8645 25.5749 14.9503 25.5749H16.0675V26.7294H13.8331V22.0744C13.8331 21.8815 13.8613 21.6653 13.9115 21.5197C14.0939 20.9899 14.5452 20.6221 15.1737 20.6221V19.989C14.7938 19.989 14.5944 20.0349 14.2914 20.1867C13.594 20.5361 13.2 21.203 13.2 22.0744Z" fill="#013F25"/>
<path fill-rule="evenodd" clip-rule="evenodd" d="M27.0159 16.7865C27.4266 16.7865 27.8463 16.9017 28.1552 17.025C28.6517 17.2232 29.0154 17.5441 29.3299 17.9357C29.4376 18.0698 29.5232 18.2012 29.6105 18.3627C29.6899 18.5096 29.7699 18.6877 29.8229 18.8579C29.8689 19.0055 29.9136 19.3384 29.9578 19.4305H24.074C24.074 18.4746 24.9094 17.4043 25.8451 17.0308C26.1884 16.8938 26.5537 16.7865 27.0159 16.7865ZM26.6807 16.1907C26.2113 16.1907 25.7144 16.3745 25.3889 16.5373C25.1083 16.6777 24.8808 16.8327 24.6604 17.0378C24.3537 17.323 24.3764 17.2566 24.068 17.6743C23.825 18.0032 23.6584 18.3837 23.5388 18.7836C23.3212 19.5108 23.6724 19.4305 22.9195 19.4305V20.1008H30.9633C31.1287 20.1008 31.075 19.927 31.075 19.5422C31.075 19.3693 30.778 19.4305 30.5909 19.4305C30.4724 18.9222 30.5026 18.7288 30.2312 18.1889C29.6896 17.1115 28.5563 16.1907 27.3138 16.1907C27.3138 15.5098 27.4416 15.6321 26.6807 15.6321V16.1907Z" fill="#013F25"/>
<path fill-rule="evenodd" clip-rule="evenodd" d="M15.844 16.3769C15.844 15.6731 16.0595 15.1637 16.4853 14.7465C17.852 13.4077 20.0893 14.4972 20.0893 16.1534C20.0893 16.8999 19.9441 17.3215 19.4474 17.8203C18.6453 18.6256 17.2945 18.6149 16.4856 17.8207C16.1706 17.5114 15.844 16.9828 15.844 16.3769ZM15.2109 16.1534C15.2109 17.1011 15.4535 17.68 16.0391 18.2672C17.3524 19.5838 19.5844 19.1797 20.4252 17.5692C21.3603 15.7781 20.0808 13.5094 17.9667 13.5094C16.4834 13.5094 15.2109 14.765 15.2109 16.1534Z" fill="#013F25"/>
<path fill-rule="evenodd" clip-rule="evenodd" d="M16.775 20.8084V19.9519C17.0481 19.9746 17.7338 20.2498 17.9294 20.2498C18.1145 20.2498 18.873 19.9694 19.0839 19.9519V20.8084C18.8717 20.7907 18.0981 20.5276 17.9294 20.5276C17.779 20.5276 17.064 20.7843 16.775 20.8084ZM16.1419 21.6276C16.2876 21.6244 16.4659 21.5689 16.602 21.5291C16.7576 21.4835 16.904 21.4463 17.0432 21.4117C18.0628 21.1588 17.6827 21.1092 18.376 21.2927L19.7169 21.6276V19.0953C19.6392 19.1326 17.953 19.5995 17.9292 19.5995L16.1419 19.0953V21.6276Z" fill="#013F25"/>
<path fill-rule="evenodd" clip-rule="evenodd" d="M24.8187 18.9836V19.1326H25.4518C25.4518 18.7756 25.5717 18.5069 25.7948 18.2839C26.0178 18.0608 26.2865 17.9409 26.6435 17.9409V17.3079C26.0855 17.3079 25.6888 17.4978 25.3488 17.8379C25.1117 18.0749 24.8187 18.5292 24.8187 18.9836Z" fill="#013F25"/>
<path fill-rule="evenodd" clip-rule="evenodd" d="M27.7979 13.0998H28.431V12.4667H27.7979V13.0998Z" fill="#013F25"/>
<path fill-rule="evenodd" clip-rule="evenodd" d="M30.1812 14.3659H30.8143V13.7328H30.1812V14.3659Z" fill="#013F25"/>
<path fill-rule="evenodd" clip-rule="evenodd" d="M29.0268 13.77H29.6599V13.137H29.0268V13.77Z" fill="#013F25"/>
<path fill-rule="evenodd" clip-rule="evenodd" d="M27.7979 14.3286H28.431V13.6956H27.7979V14.3286Z" fill="#013F25"/>
<path fill-rule="evenodd" clip-rule="evenodd" d="M30.1812 15.5947H30.8143V14.9617H30.1812V15.5947Z" fill="#013F25"/>
<path fill-rule="evenodd" clip-rule="evenodd" d="M29.0268 14.999H29.6599V14.366H29.0268V14.999Z" fill="#013F25"/>
<path fill-rule="evenodd" clip-rule="evenodd" d="M30.1812 16.6748C30.1812 16.7606 30.2072 16.7865 30.293 16.7865H30.8143V16.1907H30.1812V16.6748Z" fill="#013F25"/>
</g>
<defs>
<clipPath id="clip0_139_207">
<rect width="44" height="44" fill="white"/>
</clipPath>
</defs>
</svg>
