<svg width="37" height="29" viewBox="0 0 37 29" fill="none" xmlns="http://www.w3.org/2000/svg">
<path d="M22.9622 26.6523C22.9622 26.6153 22.9622 26.5787 22.9622 26.5425H16.1915C16.1915 26.5787 16.1915 26.6153 16.1915 26.6523C16.1915 26.668 16.1927 26.6873 16.1927 26.7066C16.1927 27.9733 15.1868 29 13.9456 29C12.7045 29 11.6986 27.9733 11.6986 26.7066C11.6986 26.6873 11.6986 26.6692 11.6998 26.6499V26.6523C11.6998 26.6153 11.6998 26.5787 11.6998 26.5425H10.9279C10.2376 26.5425 9.65957 26.0467 9.51891 25.3843L9.51773 25.3747L5.00591 3.57101L1.1513 2.91592C0.489362 2.77236 0 2.18121 0 1.47304C0 0.659914 0.646572 0 1.44326 0C1.50591 0 1.56738 0.00361927 1.62884 0.0120642L1.62175 0.0108578L6.44563 0.831226C7.0331 0.933771 7.49409 1.38739 7.61702 1.96888L7.6182 1.97853L8.43617 5.9163L22.5083 7.11307C22.4267 7.54256 22.3783 8.03719 22.3759 8.54389V8.54871C22.3759 9.0337 22.4173 9.50903 22.4976 9.97109L22.4905 9.92283C21.8156 10.1436 21.3357 10.7782 21.3357 11.5274C21.3357 11.6396 21.3463 11.7481 21.3664 11.8543L21.3652 11.8435L22.2151 18.1048C22.2671 18.5065 22.4468 18.8588 22.7092 19.1242C22.948 19.3667 23.2754 19.5187 23.6383 19.5223H23.6395C23.7199 19.5223 23.7991 19.5139 23.8747 19.4994L23.8664 19.5006C24.5768 19.3076 25.0934 18.6573 25.0934 17.8828C25.0934 17.7742 25.0827 17.6669 25.0638 17.5643L25.065 17.5752L24.6017 14.1706C26.039 15.6919 28.0532 16.6366 30.2849 16.6366C30.3357 16.6366 30.3865 16.6366 30.4362 16.6293L30.5461 16.6233L29.7553 21.3308C29.7163 21.5636 29.5189 21.7397 29.2825 21.7397H29.2813H11.7116L12.0981 23.6061H28.8322C29.6111 23.6302 30.2329 24.2805 30.2329 25.0779C30.2329 25.8754 29.6111 26.5256 28.8345 26.5498H28.8322H27.4563C27.4563 26.5859 27.4563 26.6225 27.4563 26.6595C27.4563 27.9263 26.4504 28.9529 25.2092 28.9529C23.9681 28.9529 22.9622 27.9263 22.9622 26.6595V26.6523ZM24.5674 26.6523C24.5686 27.0106 24.8534 27.3001 25.2045 27.3001C25.5556 27.3001 25.8416 27.0094 25.8416 26.6499C25.8416 26.6125 25.8381 26.5751 25.8322 26.5389V26.5425H24.5792C24.5733 26.5751 24.5697 26.6137 24.5697 26.6523H24.5674ZM13.305 26.6523C13.3061 27.0106 13.591 27.3001 13.9421 27.3001C14.2931 27.3001 14.5792 27.0094 14.5792 26.6499C14.5792 26.6125 14.5757 26.5751 14.5697 26.5389V26.5425H13.3156C13.3097 26.5751 13.3073 26.6113 13.3073 26.6499V26.6523H13.305ZM17.8759 9.91318C17.1655 10.105 16.6489 10.7565 16.6489 11.5298C16.6489 11.6396 16.6596 11.7457 16.6785 11.8495L16.6773 11.8386L17.5272 18.1C17.5792 18.5017 17.7589 18.854 18.0213 19.1194C18.26 19.3619 18.5875 19.5139 18.9504 19.5175C19.0307 19.5175 19.1111 19.5091 19.1868 19.4946L19.1785 19.4958C19.8889 19.3028 20.4054 18.6525 20.4054 17.878C20.4054 17.7694 20.3948 17.662 20.3759 17.5595L20.3771 17.5703L19.5272 11.309C19.4752 10.9073 19.2955 10.555 19.0331 10.2896C18.7943 10.0471 18.4669 9.89508 18.104 9.89026H18.1028C18.0213 9.89026 17.9421 9.8987 17.8652 9.91439L17.8735 9.91318H17.8759ZM13.1879 9.91318C12.4752 10.105 11.9586 10.7565 11.9586 11.531C11.9586 11.642 11.9693 11.7494 11.9894 11.8543L11.9882 11.8435L12.8381 18.1048C12.8901 18.5065 13.0697 18.8588 13.3322 19.1242C13.5709 19.3667 13.8983 19.5187 14.2612 19.5223H14.2624C14.3428 19.5223 14.422 19.5139 14.4976 19.4994L14.4894 19.5006C15.2009 19.3088 15.7175 18.6573 15.7175 17.8828C15.7175 17.7742 15.7069 17.6681 15.6879 17.5643L15.6891 17.5752L14.8381 11.3102C14.7861 10.9085 14.6064 10.5562 14.344 10.2908C14.1052 10.0471 13.7778 9.89629 13.4149 9.89146H13.4137C13.3333 9.89146 13.2553 9.89991 13.1797 9.91439L13.1879 9.91318ZM23.5768 8.55233C23.5768 4.76899 26.5816 1.70226 30.2884 1.70226C33.9953 1.70226 37 4.76899 37 8.55233C37 12.3357 33.9953 15.4024 30.2884 15.4024C26.5816 15.4 23.578 12.3345 23.5745 8.55113L23.5768 8.55233ZM25.5 8.55233C25.5012 11.2511 27.6442 13.4383 30.2884 13.4383C32.9326 13.4383 35.0768 11.2499 35.0768 8.55113C35.0768 5.85236 32.9326 3.66391 30.2884 3.66391C27.6442 3.66632 25.5012 5.85236 25.4976 8.55113L25.5 8.55233ZM29.3298 10.5079V9.53316H28.3747C27.844 9.53316 27.4125 9.09402 27.4125 8.55113C27.4125 8.00824 27.8428 7.5691 28.3747 7.5691H29.3298V6.59431C29.3298 6.05263 29.76 5.61228 30.292 5.61228C30.8239 5.61228 31.2541 6.05142 31.2541 6.59431V7.5691H32.2092C32.74 7.5691 33.1714 8.00824 33.1714 8.55113C33.1714 9.09402 32.7411 9.53316 32.2092 9.53316H31.2541V10.5067C31.2541 11.0484 30.8239 11.4888 30.292 11.4888C29.76 11.4888 29.3298 11.0496 29.3298 10.5067V10.5079Z" fill="#013F25"/>
</svg>
