<svg width="148" height="106" viewBox="0 0 148 106" fill="none" xmlns="http://www.w3.org/2000/svg">
<path d="M142.042 36.9842C141.818 36.9895 141.593 36.9958 141.369 37.0021C139.804 36.9328 138.238 36.8654 136.673 36.7964C136.749 36.7637 136.826 36.729 136.904 36.6953C136.974 36.6644 137.108 36.6235 137.019 36.5439C136.861 36.5386 136.766 36.6396 136.597 36.6112C136.172 36.5527 136.14 36.5597 136.181 36.6971C136.195 36.7227 136.236 36.7511 136.21 36.777C136.116 36.7725 136.02 36.7679 135.925 36.7644C135.703 36.7069 135.574 36.6102 135.49 36.4969C135.522 36.3683 135.708 36.3756 135.898 36.3791C136.127 36.3833 136.346 36.3746 136.445 36.2442C136.48 36.2017 136.532 36.1558 136.437 36.1229C136.338 36.0882 136.26 36.1238 136.218 36.1653C136.093 36.2922 135.937 36.2442 135.776 36.1902C135.857 36.1618 135.94 36.1316 136.021 36.1032C136.031 36.0919 136.034 36.0804 136.028 36.0679C136.085 35.9945 136.252 35.9307 136.12 35.8428C136.624 35.8259 137.128 35.7312 137.633 35.5531C137.724 35.6285 137.817 35.685 137.908 35.7746C137.952 35.8171 138.015 35.6727 138.059 35.5601C138.105 35.4423 138.15 35.3368 138.196 35.2401C138.345 35.2331 138.493 35.2172 138.641 35.2047C138.706 35.212 138.766 35.2155 138.818 35.2145C138.872 35.3775 138.924 35.578 138.974 35.8669C139.284 35.1401 139.611 34.6809 139.981 34.9547C140.037 34.9957 140.105 34.9301 140.147 35.0346C140.597 36.1593 141.026 36.2567 141.528 35.2712C141.732 34.8706 142.206 34.8929 142.042 36.9842ZM132.485 68.1354C132.482 68.1344 132.48 68.1327 132.477 68.1309C132.484 68.1309 132.489 68.1319 132.495 68.1319C132.492 68.1336 132.489 68.1337 132.485 68.1354ZM133.74 76.2309C133.665 76.2452 133.584 76.2487 133.501 76.2512L133.772 76.1804C133.766 76.2042 133.764 76.2266 133.74 76.2309ZM133.616 77.0498C133.61 77.0347 133.623 77.0435 133.624 77.0533C133.621 77.0523 133.618 77.0523 133.615 77.0516L133.616 77.0498ZM127.9 85.8331C127.901 85.8348 127.901 85.8366 127.903 85.8391H127.9V85.8331ZM127.735 86.7369C127.708 86.9276 127.711 87.0994 127.735 87.2652C127.417 87.2695 127.098 87.2803 126.78 87.2811C126.432 86.6591 126.057 86.65 125.681 86.5915C125.579 86.7095 125.512 86.9894 125.447 87.2845H125.446C125.47 86.9283 125.561 86.7892 125.62 86.5518C125.724 86.5251 125.828 86.4764 125.932 86.4063C126.245 86.1521 126.543 86.3043 126.85 86.1998C126.895 86.1893 126.939 86.1697 126.983 86.1476C127.046 86.1059 127.108 86.0865 127.17 86.0757L127.173 86.0767C127.245 86.1742 127.337 86.1813 127.432 86.1805C127.469 86.1823 127.506 86.1795 127.544 86.176C127.599 86.1725 127.656 86.1636 127.713 86.1503C127.729 86.1468 127.745 86.1405 127.761 86.1335C127.786 86.3239 127.768 86.5297 127.735 86.7369ZM119.481 90.4209C119.479 90.4219 119.472 90.4164 119.472 90.4164C119.472 90.4164 119.479 90.4111 119.481 90.4129L119.481 90.4209ZM111.838 97.0126C111.841 97.0312 111.839 97.0197 111.836 97.0161C111.836 97.0161 111.837 97.0151 111.835 97.0144L111.834 97.0134C111.832 97.0124 111.829 97.0116 111.824 97.0108C111.799 97.0046 111.726 96.9975 111.697 97.0046C111.684 97.0081 111.703 97.0116 111.675 96.9877C111.647 96.9646 111.53 96.8627 111.504 96.8503C111.478 96.838 111.498 96.8468 111.49 96.8433H111.489L111.488 96.8423C111.49 96.8441 111.49 96.8416 111.49 96.8416C111.491 96.8388 111.487 96.823 111.491 96.823C111.61 96.8265 111.757 96.8157 111.865 96.8363C111.881 96.8398 111.834 96.9867 111.838 97.0126ZM109.79 97.1781C109.784 97.1774 109.772 97.1774 109.736 97.1817C109.535 97.203 109.218 97.3829 108.98 97.3741C108.93 97.3724 108.844 97.3093 108.789 97.3033C109.146 97.2191 109.471 97.1287 109.836 97.0435C110.312 96.9337 110.824 96.8664 111.308 96.8307C111.318 96.83 111.323 96.8682 111.332 96.8752C110.818 96.979 110.302 97.0772 109.79 97.1781ZM107.612 97.3412C107.6 97.3404 107.635 97.3093 107.647 97.3075C107.659 97.305 107.781 97.312 107.776 97.3138C107.771 97.3173 107.623 97.3422 107.612 97.3412ZM79.4761 102.077C79.4556 102.02 79.5544 101.92 79.5872 101.91C79.62 101.899 79.7388 101.975 79.7789 102.042C79.6972 102.086 79.5329 102.238 79.4761 102.077ZM79.3711 102.233C79.3699 102.231 79.3708 102.19 79.3722 102.188C79.3722 102.188 79.3722 102.236 79.3711 102.233ZM76.4904 103.372C76.3239 103.392 76.1583 103.402 75.992 103.416C75.9598 103.335 75.913 103.252 75.9298 103.243C75.965 103.225 76.5972 103.563 76.4868 103.173C76.5606 103.208 76.6326 103.241 76.7039 103.273C76.6555 103.326 76.5873 103.361 76.4904 103.372ZM75.1987 103.479C75.3658 103.409 75.533 103.345 75.6992 103.266C75.7737 103.232 75.8455 103.332 75.9153 103.422C75.6765 103.443 75.4373 103.462 75.1987 103.479ZM71.5805 103.062C71.574 103.059 71.5793 103.058 71.5811 103.023C71.583 102.988 71.6468 102.703 71.6546 102.752C71.6625 102.803 71.6131 103.074 71.5805 103.062ZM71.1867 103.627C71.1822 103.641 71.1848 103.636 71.1874 103.619C71.1898 103.601 71.2205 103.602 71.2194 103.611C71.2182 103.619 71.1911 103.611 71.1867 103.627ZM58.0529 102.782C57.9158 102.756 57.7775 102.738 57.6387 102.722C57.7148 102.539 57.7972 102.409 57.8776 102.256C58.0882 102.543 58.2653 102.494 58.478 102.265C58.5801 102.605 58.7083 102.635 58.8282 102.838C58.5695 102.85 58.3113 102.816 58.0529 102.782ZM47.7093 102.506C47.5745 102.497 47.4038 102.524 47.2734 102.499C47.2651 102.497 47.2526 102.456 47.2911 102.381C47.3298 102.306 47.5134 102.367 47.5766 102.382C47.6397 102.399 47.7228 102.474 47.7653 102.483C47.7778 102.485 47.7266 102.507 47.7093 102.506ZM46.8727 102.519C46.0833 102.526 45.2953 102.566 44.5143 103.139C44.4238 103.205 44.3281 103.191 44.2448 103.179C44.1615 103.165 44.1393 103.136 44.0496 103.139C43.9599 103.142 43.7768 103.091 43.6901 103.042C43.6035 102.994 43.5703 102.964 43.499 102.967C43.4275 102.971 43.4079 103.001 43.3304 103.083C43.253 103.164 43.1755 103.352 43.0734 103.321C42.8343 103.251 42.6505 102.814 42.3906 102.722C41.9912 102.584 41.5349 102.682 41.119 102.707C41.5324 102.471 41.8508 102.316 42.2936 102.277C42.7364 102.238 43.2941 102.158 43.7602 102.008C43.8005 101.997 43.8442 102.033 43.8856 102.084C43.9269 102.137 43.9681 102.168 44.016 102.191C44.1378 102.253 44.2594 102.372 44.3859 102.386C44.4079 102.387 44.4365 102.382 44.4613 102.396C44.4864 102.41 44.5031 102.507 44.5308 102.512C44.5582 102.518 44.5907 102.402 44.6232 102.403C44.9225 102.408 45.2238 102.431 45.5244 102.446C45.8252 102.46 46.1286 102.388 46.4291 102.377C46.5901 102.372 46.7538 102.449 46.912 102.43C46.9306 102.428 46.9938 102.509 46.9851 102.515C46.9765 102.52 46.9115 102.519 46.8727 102.519ZM27.8411 100.252C27.0448 100.318 26.2474 100.299 25.4509 100.492C25.3914 100.506 25.3366 100.617 25.2763 100.618C25.1195 100.622 24.9624 100.551 24.8031 100.472C25.1649 100.428 25.4364 100.419 25.8189 100.348C26.2015 100.277 26.667 99.9468 27.0786 99.8521C27.207 99.8219 27.3595 99.7978 27.502 99.7749C28.1365 99.6712 28.7881 99.6101 29.4258 99.5463C29.4762 99.5408 29.5202 99.6046 29.5699 99.6189C28.9965 99.9555 28.4219 100.203 27.8411 100.252ZM26.0295 101.261C26.042 101.247 26.0539 101.233 26.0295 101.261V101.261ZM6.95146 13.9376L6.94948 13.9366H6.95192L6.95146 13.9376ZM6.86827 8.12587L6.86758 8.12312H6.87117L6.86827 8.12587ZM6.5473 16.4959L6.54845 16.4916H6.55412C6.55136 16.4924 6.55007 16.4941 6.5473 16.4959ZM8.69343 8.63354C8.68957 8.63429 8.68551 8.63533 8.6816 8.63634C8.67639 8.63533 8.67151 8.63429 8.66663 8.63354C8.67625 8.63354 8.68307 8.63429 8.69343 8.63354ZM8.97037 7.83875L8.96631 7.84051C8.94922 7.84051 8.93315 7.84125 8.91592 7.84125C8.93605 7.84125 8.95121 7.8395 8.97037 7.83875ZM9.96326 8.55994C9.95902 8.55994 9.95478 8.55994 9.95073 8.55994L9.94861 8.55744C9.91609 8.54312 9.9704 8.54588 9.96326 8.55994ZM11.9329 5.72859C11.936 5.72759 11.9392 5.7268 11.9423 5.7258C11.937 5.72931 11.9347 5.73312 11.9308 5.73664L11.9329 5.72859ZM57.6301 1.65194L57.6316 1.65371H57.6298L57.6301 1.65194ZM58.0669 1.9896C58.0771 1.97981 58.1366 1.99309 58.1511 1.99309C58.1655 1.99233 58.159 1.9833 58.1553 1.99485C58.1522 2.0039 58.1581 1.99238 58.147 2.00393C58.136 2.01524 58.0677 2.08881 58.0594 2.08278C58.0513 2.07826 58.0567 1.9994 58.0669 1.9896ZM64.8508 2.46563C64.8575 2.45759 64.9597 2.48595 64.9589 2.48947C64.9582 2.49374 64.8528 2.5631 64.8464 2.56385C64.8401 2.56561 64.8443 2.47442 64.8508 2.46563ZM79.5102 3.33406C79.5154 3.33406 79.5118 3.33406 79.5118 3.33406L79.5107 3.33583C79.5066 3.34387 79.5008 3.36068 79.497 3.35967C79.4931 3.35967 79.4795 3.33758 79.4809 3.33406C79.4826 3.33055 79.505 3.33482 79.5102 3.33406ZM79.5055 3.04242L79.5126 3.04944C79.5138 3.0512 79.5131 3.05042 79.5131 3.05042L79.5126 3.04944C79.509 3.04844 79.5053 3.05323 79.5019 3.0487C79.5006 3.04695 79.5043 3.04067 79.5055 3.04242ZM80.5427 3.24992L80.5526 3.2587L80.552 3.26047C80.5461 3.25946 80.5356 3.26923 80.5313 3.25944C80.5287 3.25416 80.5412 3.24816 80.5427 3.24992ZM96.432 1.73187C96.2436 1.54397 96.0635 1.54823 95.8709 1.6148C96.0662 1.51633 96.2424 1.49875 96.432 1.73187ZM111.159 2.93792C111.212 2.92184 111.261 2.78087 111.314 2.78464C111.647 2.80147 111.952 2.87057 112.242 3.55637C112.244 3.56089 112.249 3.56618 112.246 3.56618C112.14 3.55287 112.028 3.56794 111.92 3.56442C111.083 3.53528 110.247 3.49709 109.41 3.46418C109.994 3.32149 110.576 3.11954 111.159 2.93792ZM112.981 2.24228C113.049 2.28198 113.047 2.30964 113.132 2.34154C113.217 2.37169 113.418 2.4204 113.511 2.42215C113.604 2.42391 113.642 2.37693 113.726 2.3282C113.714 3.1195 113.49 2.92557 113.307 2.92909C113.123 2.9316 112.844 2.89169 112.656 3.24815C112.761 2.86958 112.92 2.79419 112.981 2.24228ZM116.65 4.48688C116.651 4.49064 116.645 4.4906 116.645 4.4906L116.644 4.48261C116.644 4.48261 116.649 4.4826 116.65 4.48688ZM133.085 7.08262C132.755 7.09242 132.428 7.08613 132.108 7.03037C132.417 7.04368 132.747 7.07307 133.085 7.08262ZM134.754 15.2439C134.947 15.3687 135.139 15.5195 135.329 15.7081C135.373 15.7498 135.436 15.6054 135.48 15.4918C135.516 15.4017 135.552 15.3172 135.587 15.2376C135.636 15.2366 135.685 15.2366 135.734 15.2358C135.87 15.0683 135.982 14.9309 136.073 14.799C136.185 14.9105 136.294 15.2162 136.395 15.7985C136.705 15.0735 137.032 14.6136 137.403 14.8884C137.458 14.9291 137.526 14.8618 137.568 14.968C138.018 16.0909 138.447 16.1884 138.95 15.2029C139.153 14.8033 139.627 14.8246 139.463 16.9169C139.239 16.9232 139.015 16.9285 138.79 16.9337C137.084 16.8584 135.376 16.7858 133.67 16.7104C133.639 16.4854 133.59 16.2761 133.525 16.0804C133.525 16.0626 133.525 16.0493 133.525 16.0299C133.498 15.5875 133.415 15.3723 133.312 15.2552C133.793 15.2517 134.274 15.2474 134.754 15.2439ZM134.136 7.00824C134.365 6.96026 134.596 6.99942 134.827 7.04891C134.494 7.02228 134.162 7.03036 133.832 7.04719C133.935 7.03489 134.036 7.02859 134.136 7.00824ZM42.0287 101.599C42.0387 101.509 42.0455 101.446 42.0513 101.391C42.3254 101.391 42.6176 101.238 42.8809 101.318C43.1443 101.397 43.3797 101.534 43.6316 101.547C43.6405 101.548 43.6276 101.623 43.6193 101.626C43.0976 101.786 42.5752 101.883 42.0456 101.893C42.0157 101.894 41.985 101.892 41.9553 101.892C41.9894 101.813 42.0157 101.717 42.0287 101.599ZM62.5951 3.70533L62.5942 3.7071C62.5901 3.71589 62.5846 3.73626 62.5805 3.73551C62.5764 3.7345 62.5631 3.70812 62.5647 3.70435C62.5662 3.70008 62.5885 3.70533 62.5937 3.70533C62.5987 3.70433 62.5951 3.70533 62.5951 3.70533ZM41.0575 3.83825L41.0547 3.84629L41.0526 3.83825C41.0539 3.83649 41.0568 3.83372 41.0575 3.83825ZM42.0529 101.372C42.052 101.382 42.0513 101.391 42.0513 101.391C42.045 101.449 42.0406 101.487 42.0471 101.426C42.0503 101.396 42.0513 101.387 42.0529 101.372ZM41.9713 100.518C42.3054 100.461 42.6413 100.397 42.9753 100.383C43.1349 100.377 43.2909 100.37 43.4499 100.361C43.4355 100.462 43.4311 100.546 43.4585 100.611C42.963 100.583 42.467 100.551 41.9713 100.518ZM43.5786 100.613C43.5845 100.615 43.6214 100.621 43.6214 100.621C43.6214 100.621 43.5777 100.618 43.5694 100.618L43.5739 100.612C43.5739 100.612 43.5728 100.611 43.5786 100.613ZM131.65 78.754C131.652 78.7522 131.653 78.7523 131.655 78.7505V78.7548L131.652 78.754H131.65ZM13.0865 16.3924C13.1049 16.3967 13.1213 16.403 13.1309 16.4117C13.1221 16.4127 13.113 16.4128 13.104 16.4135C13.098 16.4065 13.0923 16.3994 13.0865 16.3924ZM34.022 3.83197C34.147 3.72118 34.2917 3.71592 34.4258 3.82946C34.2912 3.83198 34.1565 3.82945 34.022 3.83197ZM25.0989 5.84463C25.0888 5.84639 25.0786 5.84739 25.0685 5.84914C25.0677 5.84638 25.0654 5.84286 25.0654 5.84286C25.0761 5.84387 25.0853 5.84463 25.0989 5.84463ZM22.7215 4.46651L22.7231 4.46475L22.7256 4.46578L22.7215 4.46651ZM25.0168 4.42231C25.018 4.42507 25.0167 4.42581 25.0182 4.42932C25.0106 4.43033 25.0032 4.43035 24.9957 4.43035C25.0017 4.42684 25.0099 4.42507 25.0168 4.42231ZM26.1475 5.48916C26.1451 5.49092 26.143 5.49272 26.1407 5.49372C26.1365 5.49272 26.1321 5.49195 26.1279 5.49019C26.1344 5.49019 26.141 5.49016 26.1475 5.48916ZM27.2425 4.97874C27.2425 4.97874 27.2384 4.97874 27.2363 4.97874L27.2397 4.97796L27.2425 4.97874ZM31.6751 4.39042C31.6802 4.39042 31.6854 4.39039 31.6904 4.38938C31.6891 4.39114 31.6855 4.3939 31.6855 4.3939C31.6817 4.39315 31.6792 4.39117 31.6751 4.39042ZM30.2863 5.01515C30.2731 5.01691 30.2625 5.01617 30.2479 5.01868C30.2604 5.01617 30.2729 5.01517 30.2854 5.0124L30.2863 5.01515ZM31.6194 4.98149C31.6124 4.98225 31.6054 4.98427 31.5984 4.98502C31.5984 4.98502 31.5967 4.98148 31.5957 4.97973C31.6036 4.97973 31.6116 4.98049 31.6194 4.98149ZM8.21019 10.9103C8.21263 10.9093 8.21507 10.9085 8.21733 10.9075L8.21797 10.911L8.21958 10.912H8.21751L8.21797 10.911C8.21539 10.911 8.21276 10.911 8.21019 10.9103ZM133.605 75.9889L133.6 75.9917C133.597 75.99 133.595 75.989 133.592 75.9872C133.597 75.9882 133.6 75.9882 133.605 75.9889ZM132.175 65.4989C132.173 65.4954 132.173 65.4937 132.172 65.4909C132.175 65.4937 132.175 65.4954 132.178 65.4989H132.175ZM138.704 34.9505C138.59 34.9567 138.478 34.9575 138.368 34.9494C138.483 34.7997 138.595 34.7794 138.704 34.9505ZM136.51 78.4827C136.507 78.4855 136.504 78.488 136.501 78.4908L136.499 78.489C136.504 78.4872 136.507 78.4855 136.51 78.4827ZM128.528 90.2508C128.545 90.2516 128.579 90.2418 128.564 90.2456C128.551 90.2498 128.53 90.2642 128.471 90.2667C128.415 90.2702 128.236 90.2624 128.158 90.2445C128.275 90.2473 128.415 90.2463 128.528 90.2508ZM128.584 90.2214C128.584 90.2285 128.584 90.2162 128.58 90.2064C128.574 90.1755 128.585 90.1895 128.584 90.2214ZM132.724 87.7118C132.893 87.7081 133.061 87.7136 133.23 87.7232C132.987 87.7179 132.745 87.7161 132.503 87.7171C132.576 87.7161 132.651 87.7126 132.724 87.7118ZM119.669 91.4674C119.674 91.4586 119.703 91.4488 119.701 91.4551C119.699 91.4621 119.648 91.5589 119.646 91.5606C119.644 91.5632 119.665 91.4772 119.669 91.4674ZM119.959 94.8919C119.959 94.8919 119.964 94.8723 119.956 94.9007C119.949 94.9291 119.958 94.8864 119.958 94.8864L119.959 94.8919ZM120.089 95.5033L120.09 95.5024C120.09 95.5076 120.089 95.5139 120.089 95.5184C120.09 95.5041 120.089 95.5033 120.089 95.5033ZM120.694 92.8172C120.557 93.1043 120.456 93.5484 120.327 93.8896C120.297 93.9674 120.302 94.087 120.32 94.1403C120.324 94.1536 120.327 94.1607 120.328 94.1642C120.328 94.1642 120.331 94.182 120.328 94.1757C120.273 94.0393 120.291 93.9331 120.339 93.7999C120.124 92.8659 120.525 92.8943 120.694 92.8172ZM120.329 94.1652C120.333 94.1714 120.329 94.1501 120.334 94.1642C120.34 94.1785 120.329 94.1606 120.329 94.1652ZM122.626 93.0609C122.688 92.9918 122.85 92.7968 122.904 92.7579C122.959 92.718 122.991 92.624 123.011 92.6471C123.032 92.671 123.047 92.8501 123.046 92.9209C123.046 93.3287 122.927 93.0139 122.839 93.0264C122.752 93.038 122.622 93.0829 122.543 93.3532C122.539 93.1257 122.564 93.131 122.626 93.0609ZM105.698 100.932C105.701 100.93 105.731 100.927 105.751 100.921C105.972 100.863 106.211 100.828 106.427 100.804C106.251 100.845 105.84 100.915 105.719 100.932C105.625 100.946 105.698 100.932 105.698 100.932ZM116.287 99.5807C116.287 99.5933 116.286 99.6039 116.287 99.5923C116.287 99.5817 116.286 99.5835 116.286 99.5835L116.287 99.5807ZM100.311 104.203C100.311 104.198 100.31 104.19 100.309 104.202L100.307 104.2L100.308 104.201C100.308 104.201 100.306 104.203 100.308 104.2H100.306C100.306 104.2 100.309 104.2 100.311 104.2V104.203ZM84.0319 104.218C84.0236 104.22 84.0017 104.222 84.004 104.222C84.0108 104.221 84.0894 104.208 84.0319 104.218ZM40.6255 102.765C40.6179 102.761 40.6054 102.699 40.6104 102.693C40.6153 102.687 40.6845 102.752 40.685 102.763C40.6856 102.774 40.633 102.769 40.6255 102.765ZM39.4697 104.052C39.6447 104.297 39.8125 104.303 39.9965 104.264C39.8088 104.335 39.6448 104.355 39.4697 104.052ZM39.6092 100.389L39.6113 100.39L39.6119 100.391L39.6092 100.389ZM23.5535 100.876C23.5051 100.923 23.4945 100.797 23.4181 100.778C23.3418 100.759 23.1391 100.656 23.0525 100.644C22.9659 100.635 22.8986 100.686 22.8348 100.698C22.8189 100.702 22.8343 100.524 22.8504 100.523C23.1172 100.516 23.4024 100.527 23.6768 100.529C23.6211 100.563 23.6019 100.829 23.5535 100.876ZM6.98071 86.0792C6.55559 85.1488 6.1477 85.1204 5.67694 86.0697C5.47417 86.4782 5.00032 86.4764 5.15873 84.3778C5.38282 84.3628 5.60692 84.3477 5.83102 84.3319C6.20542 84.3326 6.57982 84.3336 6.95423 84.3336C7.09463 84.8946 7.24576 85.4236 7.37234 86.0245C7.243 86.0511 7.11167 86.0634 6.98071 86.0792ZM6.3151 15.0693C6.34076 15.0658 6.36614 15.064 6.39096 15.063C6.39391 15.0693 6.39635 15.0753 6.39976 15.0808C6.37102 15.0771 6.34582 15.0736 6.3151 15.0693ZM5.91923 14.0943C5.91679 14.0943 5.91467 14.0943 5.91241 14.0943C5.91274 14.0898 5.9155 14.0838 5.9155 14.0838C5.9155 14.0838 5.91937 14.0898 5.91923 14.0943ZM5.90233 10.802L5.92752 10.7907C5.92964 10.7915 5.93259 10.7925 5.93259 10.7925C5.9225 10.796 5.91241 10.7985 5.90233 10.802ZM137.609 29.5258C137.611 29.5286 137.614 29.5339 137.614 29.5339L137.607 29.5349C137.609 29.5321 137.609 29.5258 137.609 29.5258ZM146.958 39.2291C147.328 36.7034 147.309 36.6245 146.655 36.4952C145.966 36.3577 145.282 37.081 144.596 36.5012C143.925 36.4738 143.254 36.4454 142.583 36.417C142.583 36.2329 142.583 36.0475 142.583 35.8631C143.142 35.5629 143.703 35.2624 144.263 34.962C144.166 34.3948 144.088 34.1705 144.011 34.1785C142.633 34.3443 141.254 34.1252 139.874 34.2265C139.296 34.2689 138.717 34.2724 138.137 34.2609C138.293 34.0375 138.469 33.9615 138.655 33.8826C138.418 32.048 137.973 31.1175 137.461 30.5681C137.471 30.5653 137.482 30.5629 137.492 30.5601C137.472 30.5408 137.44 30.5246 137.404 30.5113C137.349 30.4546 137.294 30.4033 137.237 30.3546L137.238 30.3518C137.303 30.2943 137.476 30.3174 137.567 30.3466C137.988 30.4847 137.843 30.2632 137.906 30.2049C137.958 30.1587 137.822 30.086 137.856 30.0177C138.114 29.8406 138.031 29.7705 137.529 29.7414C137.529 29.7147 137.529 29.6881 137.529 29.6615C137.585 29.6499 137.638 29.6377 137.693 29.6269C137.685 29.6226 137.677 29.619 137.671 29.6155L137.677 29.6145L137.693 29.6269C137.83 29.6181 137.983 29.6587 138.101 29.5942C138.295 29.4841 138.093 29.4498 137.95 29.4151C137.765 29.3709 137.57 29.339 137.378 29.3008C137.377 29.2618 137.373 29.2121 137.477 29.2158C137.734 29.2229 137.983 29.1609 138.241 29.198C138.389 29.3176 138.67 29.2254 138.849 29.291C139.013 29.3505 139.166 29.3922 139.301 29.2741C139.424 29.1633 139.374 28.9305 139.195 28.8941C138.859 28.8257 138.532 28.7416 138.168 28.7089C137.547 28.6469 137.055 28.4323 136.46 28.3384C136.457 28.1346 136.452 27.9299 136.447 27.7242C136.454 27.7234 136.458 27.7234 136.465 27.7217C136.582 27.6951 136.665 27.6551 136.566 27.586C136.6 27.5496 136.671 27.5471 136.738 27.5408C136.954 27.5878 137.022 27.6835 137.081 27.7855C137.11 27.836 137.186 27.9033 137.295 27.8616C137.443 27.8048 137.731 27.8475 137.758 27.7189C137.773 27.6453 137.627 27.6081 137.492 27.5983C137.261 27.5833 137.074 27.5303 136.909 27.4539C136.909 27.4433 136.904 27.4328 136.892 27.423C136.928 27.3928 136.988 27.3918 137.048 27.3901C137.386 27.3813 137.713 27.4195 138.028 27.4921C138.043 27.4788 138.057 27.4637 138.072 27.4504C137.997 27.4016 137.923 27.3529 137.848 27.3041C137.83 27.2687 137.793 27.2379 137.91 27.2173C138.027 27.1962 138.067 27.1527 137.926 27.1128C137.82 27.112 137.715 27.111 137.609 27.1102C137.224 27.1331 136.871 27.0535 136.506 27.0206C136.48 27.009 136.454 27.0012 136.424 26.9932C137.245 26.9497 138.067 27.1723 138.888 27.118C139.301 27.0889 139.741 27.3911 140.081 26.0609C141.026 24.7041 142.001 23.7664 142.983 22.9201C143.243 23.0638 143.402 22.5488 143.513 21.706C143.734 21.2442 143.955 20.7818 144.177 20.3201C144.33 20.1605 144.364 19.6898 144.38 19.1652V19.1617C144.749 16.6351 144.73 16.5572 144.076 16.4278C143.389 16.2912 142.703 17.0136 142.018 16.4349C141.346 16.4065 140.675 16.3781 140.004 16.3497C140.004 16.1645 140.004 15.9801 140.004 15.795C140.563 15.4946 141.124 15.1941 141.684 14.8955C141.587 14.3275 141.509 14.1024 141.433 14.1122C140.055 14.277 138.675 14.0579 137.297 14.1581C136.982 14.182 136.668 14.1803 136.354 14.1855C136.48 13.6779 136.471 12.8953 136.454 11.1354C136.447 10.4938 136.421 9.85293 136.405 9.21235C136.389 8.95712 136.348 8.78505 136.285 8.69286C136.496 7.01704 136.086 7.37424 135.867 7.28481C135.729 7.22804 135.591 7.18735 135.453 7.15268C135.765 7.16248 136.075 7.06753 136.382 6.68118C136.605 5.66478 136.496 4.93278 136.247 4.32133C134.898 4.20352 133.553 4.32834 132.204 4.55694C130.604 4.829 129.001 5.03725 127.399 5.14728C127.375 5.11889 127.35 5.08949 127.326 5.07442C127.287 5.05156 127.238 5.02671 127.202 5.02143C127.165 5.01615 127.115 5.01614 127.089 5.00534C127.061 4.99554 127.054 4.9355 127.038 4.92997C126.476 4.78302 125.938 4.6916 125.369 4.61272C125.274 4.59941 125.193 4.5941 125.07 4.58078C123.919 4.45769 122.955 4.37709 121.741 4.22561C119.957 4.00304 117.944 3.84626 116.115 3.74704C116.135 3.71865 116.242 3.62371 116.246 3.54936C116.247 3.53529 116.248 3.53175 116.249 3.52723C116.246 3.52622 116.24 3.52095 116.227 3.49784C116.184 3.42172 116.048 3.32955 115.96 3.3607C115.872 3.39085 115.732 3.45716 115.719 2.94243C115.583 2.7083 115.547 2.56386 115.383 2.65354C115.099 2.80854 114.779 2.97608 114.482 2.72336C114.48 2.72085 114.483 2.74724 114.48 2.72689C114.471 2.67464 114.473 2.69852 114.456 2.60909C114.344 2.03307 114.322 2.14381 114.617 2.17119C114.758 2.1845 115.13 1.97377 115.3 1.72633C114.769 1.50476 114.239 1.50927 113.706 1.82931C113.704 1.82755 113.703 1.82479 113.697 1.81675C113.678 1.79012 113.713 1.83357 113.657 1.75218C113.6 1.67054 113.46 1.23096 113.4 1.06617C113.391 1.0423 113.387 1.0262 113.384 1.01489C113.379 1.02821 113.362 1.0405 113.314 1.02819C113.178 0.993523 112.796 1.19377 112.593 1.15659C112.391 1.11941 112.183 0.673524 111.994 1.29652C111.994 1.29049 111.995 1.28521 111.995 1.27793C111.996 1.2523 111.974 1.29751 111.983 1.3161C111.986 1.32238 111.988 1.3171 111.989 1.31433C111.988 1.33644 112.003 1.37715 111.914 1.50225C111.816 1.64041 111.433 1.77708 111.264 2.02954C111.262 2.03306 111.099 2.06219 111.084 2.0446C110.834 1.72105 110.722 1.8974 110.493 2.25185C110.491 2.25286 110.49 2.25459 110.486 2.25911C110.465 2.28197 110.541 2.19179 110.443 2.28826C110.344 2.38497 110.026 2.62591 109.908 2.38123C109.706 1.96222 109.556 1.99585 109.35 2.03303C109.144 2.07121 108.912 2.09961 108.724 2.16869C108.46 2.26515 108.892 2.58421 108.512 2.48599C108.131 2.38575 107.759 2.32823 107.378 2.59677C107.374 2.59929 107.408 2.67034 107.376 2.60026C107.344 2.53117 107.114 2.2687 107.07 2.35562C106.81 2.86533 106.41 2.83416 106.191 2.86079C105.972 2.88742 105.99 2.82184 105.878 3.28608C105.876 3.29336 105.879 3.29587 105.881 3.29687C105.884 3.29335 105.921 3.29236 105.795 3.45363C105.648 3.64154 105.344 3.33834 105.091 3.319C102.504 3.11602 99.8558 3.17881 97.2498 3.12304C96.9563 3.11701 96.6605 3.10093 96.3687 3.09566C96.4025 3.03361 96.4356 2.84673 96.4031 2.72439C96.3708 2.60205 96.2997 2.50179 96.2551 2.49752C96.2102 2.493 95.9673 2.54176 96.075 2.26166C96.1827 1.98081 96.3488 2.07024 96.4466 1.80973C96.4488 1.80446 96.4491 1.80169 96.4507 1.79742C96.4561 1.79918 96.4637 1.79917 96.4749 1.79565C96.5611 1.7733 96.8391 2.01621 96.9546 1.70596C97.0705 1.39421 97.0765 1.16184 96.9194 0.912889C96.6712 0.52025 96.4057 0.362494 96.1082 0.301451C95.935 0.26603 95.6426 -0.00247473 95.5508 0.917452C95.528 1.14505 95.3793 1.04855 95.3144 1.01916C94.9245 0.845577 94.625 0.76396 94.2679 1.59169C94.0074 2.19535 93.6866 2.32294 93.3866 2.40886C93.0868 2.49377 92.8039 2.50884 92.5094 2.55958C91.9283 2.65781 91.3511 2.75002 90.7715 2.9334C88.3738 2.85452 85.966 2.76506 83.5721 2.71708C83.2956 2.7118 83.0054 2.71182 82.7529 2.79597C82.5002 2.88113 82.2938 2.85799 82.0629 2.84744C81.1183 2.80323 80.1898 2.71709 79.2487 2.74372C79.2456 2.74372 79.2432 2.74549 79.2403 2.74549C78.7586 2.71007 78.2768 2.69425 77.7948 2.67817C77.7657 2.62768 77.7368 2.57264 77.7064 2.53471C77.6295 2.43548 77.6091 2.5028 77.6466 2.67287C77.1908 2.6588 76.7352 2.64548 76.2797 2.61885C71.5608 2.34152 66.8387 2.01899 62.1216 1.66529C60.5787 1.54923 59.043 1.52259 57.5043 1.29122C57.0946 1.23018 56.7588 0.623029 56.3528 1.31335C56.3426 1.33219 56.3372 1.36483 56.2971 1.40829C56.1299 1.5874 55.9539 1.27439 55.7641 1.26208C51.9396 1.0076 48.1004 0.864906 44.2693 0.70363C43.9737 0.691321 43.6843 0.713433 43.3819 0.665704C43.326 0.65666 43.3036 0.648898 43.2132 0.660454C43.1228 0.671758 42.9639 0.670979 42.8394 0.659423C42.2231 0.603655 41.5903 0.420019 40.9671 0.469005C39.9664 0.548638 38.961 0.573543 37.961 0.505214C37.6535 0.484867 37.3729 0.638073 37.0664 0.705397C37.0465 0.709918 37.0265 0.709926 37.0065 0.713443C36.8727 0.386369 36.7206 0.199454 36.5533 0.12585C36.5151 0.372286 36.4966 0.576051 36.4913 0.7524C36.2944 0.753405 36.0986 0.753385 35.9033 0.782525C35.8295 0.563723 35.731 0.32004 35.5985 0C35.537 0.191421 35.5627 0.517775 35.5992 0.863187C35.3685 0.949352 35.1383 1.09982 34.9078 1.39323C34.905 1.39674 34.9135 1.38869 34.9 1.37713C34.8863 1.36483 34.9408 1.4118 34.8666 1.31433C34.7927 1.21686 34.5904 1.29224 34.5196 1.65724C34.5181 1.65297 34.5121 1.65194 34.4908 1.66877C34.4446 1.70344 34.3272 1.79916 34.2643 1.79816C32.07 1.76726 29.8799 1.715 27.6858 1.66877C27.3924 1.66249 27.1053 1.64139 26.8055 1.61024C26.7486 1.60421 26.7278 1.58916 26.6378 1.60499C26.5476 1.62182 26.3895 1.61932 26.2663 1.60676C25.6559 1.54571 25.0189 1.33568 24.4037 1.39421C23.416 1.48791 22.3843 1.55552 21.4142 1.44298C21.1158 1.40831 20.7655 1.69264 20.5268 1.67932C19.958 1.64943 18.784 1.91773 18.4755 2.37167C18.1734 2.81555 18.4162 2.4576 18.4053 2.47343C18.3865 2.50005 18.377 2.51513 18.3727 2.52141C18.3782 2.51262 18.3869 2.49751 18.3741 2.50807C18.3712 2.51083 18.3712 2.5116 18.3712 2.5116C18.3712 2.5116 18.366 2.50633 18.3356 2.51336C18.2614 2.52844 18.0779 2.57716 17.9989 2.81104C17.9968 2.81832 17.9999 2.8075 17.9966 2.81379C17.9937 2.82007 17.997 2.81731 17.9927 2.82183C17.99 2.82535 17.9983 2.81205 17.9926 2.81908C17.9817 2.83164 17.9784 2.83164 17.9576 2.85274C17.839 2.97433 17.6278 3.08687 17.5238 3.16023C17.4196 3.23383 17.4425 3.45362 17.3577 3.46241L17.3567 3.46344L17.3564 3.46521C17.3564 3.46521 17.3547 3.46793 17.3556 3.47321C17.3559 3.46592 17.3565 3.45642 17.3564 3.46521C17.3562 3.47501 17.3557 3.47674 17.3557 3.47674C17.3557 3.47674 17.357 3.48026 17.356 3.48729C17.3538 3.50588 17.3544 3.48907 17.3553 3.47576C17.3541 3.47149 17.3528 3.45991 17.353 3.5521C17.3533 3.68751 17.3335 3.36495 17.334 3.81788C17.3341 3.87365 17.3336 3.9259 17.3335 3.97288C16.4233 4.1236 15.5222 4.28764 14.6426 4.47981C13.8033 4.6642 12.9382 4.82647 12.1713 5.08521C11.4173 5.20831 10.7458 5.39898 10.1358 5.65421C9.91853 5.74364 9.71332 5.82078 9.65155 5.96346C9.59093 5.99788 9.53036 6.03328 9.46974 6.06895C8.6751 5.99711 8.03501 6.09988 7.62891 6.46765C7.52804 6.50659 7.45162 6.5553 7.38257 6.60679C7.01466 6.52616 6.6474 6.41086 6.27935 6.27345C6.01592 6.73517 5.74732 6.91255 5.54663 7.7757C5.6043 7.79354 5.71351 7.84827 5.84157 7.90052C5.49969 8.0726 5.4054 8.3153 5.61291 8.55646C5.64216 8.59113 5.64152 8.63078 5.65469 8.66896C5.5013 8.67349 5.36772 8.72826 5.20603 8.71243C5.20603 8.75137 5.20603 8.79029 5.20603 8.83024C5.31751 8.833 5.35275 8.88428 5.42557 8.91267C5.45874 8.9614 5.50779 9.01013 5.52193 9.06162C5.5598 9.19627 5.79316 9.31683 5.7213 9.44972C5.65142 9.57834 5.68394 9.67833 5.82793 9.78032C5.76681 9.84488 5.60139 9.91047 5.8219 9.97805C6.34776 10.1951 6.36531 10.2803 5.91762 10.4405C5.63875 10.5583 5.72715 10.6799 5.90233 10.802C5.93485 10.9278 5.8822 11.067 6.15162 11.1512C6.17695 11.1637 6.20247 11.1753 6.22799 11.1886C6.22131 11.2072 6.22735 11.2391 6.2062 11.2434C5.67551 11.3835 5.55215 11.5483 5.75221 11.8603L5.75299 11.8621C5.81038 11.9772 6.00555 12.0445 6.13522 12.1342C6.16203 12.205 6.37033 12.2723 6.10321 12.3442C5.75787 12.4364 5.72945 12.6092 5.99418 12.7986L5.99625 12.7996C6.01933 12.8077 6.03218 12.8174 6.04162 12.828C6.02651 12.8192 6.0114 12.8094 5.99625 12.7996C6.09639 12.9016 5.83553 12.9139 5.8037 12.9787C5.85276 13.0257 5.93061 13.0292 6.00993 13.03C6.10044 13.031 6.19745 13.0194 6.28014 13.0327C6.47941 13.0629 6.435 13.1232 6.136 13.2249C6.0442 13.2267 5.95207 13.2304 5.86027 13.2294C5.71711 13.2277 5.53737 13.2091 5.4878 13.2942C5.44183 13.3729 5.62493 13.396 5.72747 13.4279C5.96069 13.5015 5.94392 13.5751 5.75755 13.6575C5.27573 13.8436 5.27462 13.8745 5.73286 14.0235C5.77086 14.0358 5.78454 14.067 5.80955 14.0881C5.7049 14.2574 5.51378 14.4204 5.67892 14.6058C5.70342 14.6136 5.71268 14.6269 5.71724 14.6402C5.70393 14.6304 5.69094 14.6191 5.67892 14.6058C5.64216 14.6809 5.71319 14.7377 5.78113 14.8025C5.91794 14.9336 6.07474 15.0728 5.90348 15.2288C5.79947 15.2376 5.71678 15.2607 5.68072 15.3129C5.54778 15.4423 5.40655 15.5734 5.70637 15.6923C5.99984 15.8083 5.95433 15.9156 5.69205 16.0229C5.62479 16.0264 5.50208 15.9997 5.5107 16.0502C5.52097 16.1113 5.64248 16.1372 5.77118 16.1344C6.25821 16.2816 6.29331 16.3231 6.06696 16.4889C5.98929 16.4906 5.89813 16.4808 5.83655 16.4969C5.68979 16.5369 5.41079 16.4517 5.40102 16.5464C5.3913 16.6403 5.68652 16.6147 5.8424 16.6476C5.86253 16.6803 5.96294 16.7255 5.86336 16.7441C5.59587 16.7974 5.72636 16.8478 5.84677 16.9018C5.92199 16.9365 6.00035 16.9692 6.07737 17.0021C6.07948 17.1855 6.33914 17.2395 6.63261 17.2766L6.62888 17.2794C6.78554 17.3379 6.75841 17.4434 6.87053 17.5133C6.92659 17.5753 6.97403 17.6384 6.94464 17.7082C6.80664 17.7944 6.94266 17.8474 7.06146 17.8741C7.4612 17.9627 7.40205 18.1054 7.27547 18.2604C7.22236 18.3144 7.06551 18.2657 7.01793 18.3252C6.85883 18.4227 6.86615 18.5184 7.02277 18.6148C7.1154 18.7346 7.0218 18.8826 7.25387 18.9801C7.30325 19.004 7.35249 19.0289 7.40205 19.0527C7.40076 19.065 7.40919 19.0863 7.39685 19.0899C6.83897 19.2539 6.70544 19.4496 6.94593 19.7556C6.96643 19.7696 6.98702 19.783 7.00752 19.7963C7.05515 19.8609 7.15538 19.9061 7.25354 19.9513C7.22964 20.0302 7.56991 20.0869 7.30652 20.1826C6.9381 20.3155 6.89992 20.4617 7.17178 20.6612C7.17763 20.6665 7.18187 20.6717 7.1856 20.677C7.1528 20.7099 7.12028 20.7453 7.08762 20.7772C7.03594 20.7986 6.98412 20.8197 6.97988 20.8554C6.98979 20.8571 6.99872 20.8579 7.0083 20.8597C6.92917 20.9385 6.84971 21.0139 6.77043 21.09C6.72055 21.0981 6.6796 21.1141 6.65845 21.1478C6.64708 21.1671 6.64837 21.1822 6.65781 21.1955C6.50622 21.3392 6.3549 21.4844 6.20312 21.6228C5.94295 21.4907 5.78468 22.0109 5.67758 22.859C5.4574 23.3305 5.23708 23.8018 5.0169 24.2743C4.86443 24.4391 4.8308 24.9106 4.81731 25.4362V25.4387C4.45428 27.9802 4.47492 28.0583 5.12869 28.1603C5.81669 28.2683 6.50004 27.5177 7.18758 28.0673C7.66678 28.0673 8.14583 28.0673 8.62489 28.0673C8.59449 28.1852 8.5675 28.3251 8.54235 28.4758C8.50154 28.4625 8.45377 28.4633 8.39951 28.4856C8.39398 28.6823 8.38891 28.8639 8.38375 29.0501C8.37399 29.0714 8.36422 29.0918 8.3545 29.1121C8.07808 29.2724 7.80151 29.4329 7.5249 29.5924C7.56733 29.8351 7.6057 30.0044 7.64209 30.1277C7.59091 30.1853 7.53858 30.2368 7.47764 30.2375C7.4799 30.1541 7.48216 30.071 7.48446 29.9868C7.4869 29.9868 7.48902 29.9823 7.49077 29.976C7.54554 29.8884 7.51583 29.8635 7.46608 29.8512C7.31983 29.9735 7.19196 29.9459 7.05579 29.8954C6.79724 29.7989 6.52929 29.868 6.26636 30.1818C5.84484 30.3802 5.42654 30.599 5.07439 31.1025C5.06955 31.263 5.10999 31.27 5.14735 31.278C5.23022 31.2966 5.36168 31.2318 5.33326 31.4712C5.31571 31.6174 5.21382 31.6724 5.1321 31.7184C4.80008 31.9053 4.46829 32.096 4.13645 32.2846C3.89157 32.3635 3.88508 32.3803 3.95657 32.734C3.77651 33.1372 3.77291 33.247 3.92778 33.5927C4.05731 33.8816 4.04169 34.0119 3.83551 34.189C3.73523 34.2752 3.62473 34.3071 3.51892 34.3636C3.36636 34.4214 3.19524 34.3328 3.01066 34.7598C3.27193 34.6872 3.4689 34.6314 3.66586 34.5774C3.65836 34.5659 3.65071 34.5543 3.64311 34.5437C3.65315 34.549 3.66163 34.5596 3.66586 34.5774C3.86914 34.5136 4.02285 34.7173 4.21964 34.689C4.55424 34.6013 4.88898 34.5144 5.22372 34.4249C5.26486 34.4144 5.27476 34.4312 5.25104 34.4912C5.19889 34.65 5.07766 34.5118 5.02533 34.7023C5.11925 34.7794 5.24943 34.6048 5.35749 34.7811C5.02174 34.8246 4.74305 35.1055 4.36718 35.2419C5.03247 35.3351 5.62659 34.7706 6.27871 34.7103C6.091 34.8706 5.94328 34.9133 5.88998 35.1861C5.23496 35.5069 4.57911 35.8181 3.92502 36.1583C3.73395 36.2575 3.54983 36.4489 3.39561 36.7778C4.50661 36.465 5.61392 36.1547 6.71857 35.9083C6.65569 35.9412 6.59396 35.989 6.52146 36.0741C6.51791 36.0787 6.50571 36.0537 6.54357 36.1201C6.5655 36.1592 6.62354 36.215 6.68462 36.254C5.83378 36.5758 4.98097 36.8167 4.13451 37.3184C4.48892 37.2199 4.84333 37.1217 5.19788 37.0224C5.37048 37.1925 5.57993 36.9913 5.77022 36.9842C5.85603 36.9807 5.97953 36.8479 6.01965 37.0081C6.08239 37.2573 6.21077 37.1206 6.31883 37.1031C6.47563 37.0792 6.63929 36.979 6.78831 37.0382C6.90415 37.0852 7.01904 37.0455 7.13424 36.9772C7.19145 37.0817 7.24198 37.1101 7.35184 37.0578L7.35608 37.0561C7.38386 37.0729 7.41702 37.08 7.45291 37.08C7.36926 37.2164 7.27386 37.2076 7.18104 37.2412C6.38074 37.5311 5.58076 37.8218 4.73983 38.1258C5.14168 38.3154 5.53396 38.2835 5.93305 38.1674C6.37682 38.0388 6.81429 37.9848 7.25193 37.9413C7.33185 38.0318 7.42269 38.0504 7.51776 38.0441C7.64255 38.0903 7.76752 38.1265 7.89299 38.1496C7.87931 38.3908 7.86292 38.6274 7.84196 38.8602C7.66807 38.8788 7.49422 38.9002 7.32047 38.9171C7.34176 38.8603 7.36566 38.8151 7.38579 38.754C7.17763 38.6681 6.95289 38.49 6.76569 38.9055C6.66398 39.1316 6.90107 39.2778 6.93179 39.261C6.96252 39.2441 6.98361 39.2884 7.0119 39.2708C6.75173 39.5358 6.5075 39.3913 6.24084 39.3097C6.02941 39.8601 5.71853 39.4355 5.50323 39.4391C4.97659 39.4489 4.51297 39.7023 4.00305 39.9035C4.33779 40.0417 4.66521 39.9885 5.00174 40.0081C4.93302 40.2394 4.91432 40.4761 4.79962 40.4936C4.68474 40.5122 4.52858 40.4316 4.42568 40.8375C4.69335 40.8154 4.9613 40.8933 5.22814 41.0387C4.818 41.347 4.42734 41.4676 4.01148 41.2673C3.60119 41.5093 3.191 41.5783 2.77648 41.619C2.49194 42.2023 2.21455 42.0888 1.90302 42.0099C1.73664 42.3777 1.57086 42.6641 1.38403 42.8349C1.50688 42.8706 1.62987 42.8741 1.75208 42.9414C1.53157 43.535 1.31024 43.7566 1.04583 43.8666C1.08973 43.7558 1.13294 43.6503 1.18057 43.5581C0.899767 43.5519 0.707822 43.9153 0.411451 44.0349C0.240648 44.104 0.124155 44.0731 0.516752 44.2442C1.13847 44.5152 1.95309 44.518 2.60457 45.2066C2.53404 45.1905 2.45035 45.1869 2.37559 45.1782C2.36891 45.1771 2.40908 45.2055 2.38646 45.203C2.36389 45.2003 2.23569 45.1684 2.20934 45.1613C2.18304 45.1543 2.22137 45.1596 2.21243 45.1561C1.81933 45.0948 1.42544 45.0719 1.03252 45.2073C1.06113 45.2199 1.11134 45.2437 1.13441 45.2483C1.15749 45.2518 1.1287 45.2126 1.15081 45.2189C1.17306 45.2252 1.20719 45.2746 1.23709 45.2802C1.48915 45.3209 1.73858 45.3234 1.98511 45.5778C1.85314 45.5698 1.72103 45.5565 1.58943 45.5389C1.8782 45.6125 2.17378 45.6799 2.45896 45.7374C2.46804 45.7402 2.42805 45.7205 2.43634 45.7213C2.52069 45.7293 2.62843 45.7178 2.71033 45.7401C2.72267 45.7437 2.72986 45.7931 2.69554 45.7889C3.14194 45.7949 3.59451 45.8145 4.04091 45.8552C4.04593 45.8562 4.05814 45.8695 4.05814 45.8695C4.13465 45.8951 4.39822 45.8906 4.43788 45.8951C5.35307 45.9954 6.19745 46.1591 7.0873 46.3274C7.02931 46.7176 6.93681 46.9824 6.88693 47.3901C7.10467 47.5355 7.26055 47.7224 7.38031 48.4969C7.28408 48.3384 7.22038 48.6964 7.19357 48.8657C7.18984 48.8888 7.18919 48.8931 7.18726 48.9046C7.19021 48.9127 7.18998 48.9099 7.19099 48.9116C7.18869 48.9144 7.1874 48.9154 7.18528 48.9179C7.1809 48.9453 7.18058 48.94 7.17929 48.9242C7.11476 48.987 7.15069 48.9277 7.03613 48.9631C6.41326 49.1545 5.66151 49.3043 5.0263 49.3894C4.86982 49.4108 4.71611 49.4967 4.60947 49.5303C4.1961 49.6544 3.85809 49.7288 3.4601 49.8369C3.35273 50.1162 3.13268 50.0044 3.02379 50.032C2.91476 50.0594 2.81415 50.1144 2.73552 50.1312C2.20658 50.2463 1.71177 50.49 1.19729 50.7648C0.980378 50.8819 0.765678 50.8889 0.554754 51.0936C0.541442 51.1069 0.553786 51.0502 0.479348 51.1575C0.404956 51.2647 0.39648 51.3356 0.573593 51.3959C0.750891 51.4562 1.01806 51.791 1.2259 51.8895C1.29172 51.9196 1.37767 51.9488 1.45405 51.9576C1.6687 51.9834 1.89492 52.009 2.11234 52.0718C2.15232 52.0834 2.19295 52.1048 2.23403 52.1163C2.27517 52.1269 2.31792 52.1394 2.36016 52.1472C2.40258 52.1545 2.44643 52.1623 2.48932 52.1668C2.66615 52.1836 2.83723 52.165 3.01697 52.1304C3.01927 52.1321 3.02268 52.1349 3.02918 52.1402C3.05792 52.1605 3.17428 52.2439 3.22011 52.2671C3.26608 52.2899 3.28575 52.2997 3.33647 52.3148C3.387 52.3299 3.45476 52.3421 3.51344 52.3537C3.57226 52.3653 3.56849 52.361 3.65006 52.375C3.73183 52.3891 3.86928 52.3919 3.98011 52.4185C4.6922 52.5896 5.42133 52.6692 6.13927 52.7029C5.95419 53.2603 5.81559 53.9338 5.67629 54.6686C5.637 54.3566 5.53101 54.5364 5.4878 54.6279C5.44473 54.7201 5.48522 54.7492 5.45141 54.7492C5.41779 54.7492 5.41599 54.5782 5.39761 54.4807C5.37942 54.3832 5.33391 54.3664 5.30548 54.3744C5.27669 54.3822 5.24063 54.4674 5.25201 54.5666C5.26338 54.6658 5.30092 54.7696 5.30079 54.8474C5.3006 54.9246 5.26647 54.8326 5.27444 54.8618C5.55671 55.9163 5.94019 56.1919 6.25107 57.0659C6.24117 57.0295 6.00827 57.095 6.07525 57.2385C6.14204 57.3829 6.4672 57.1038 6.44624 57.7233C5.5668 57.3565 4.70731 56.5215 3.83759 55.8739C3.68176 56.6979 3.77619 57.0701 3.91382 57.8155C4.2013 57.8821 4.43042 57.9687 4.60965 58.9268C5.02095 59.0926 5.37877 59.2157 5.70817 60.2703C5.19613 60.8453 4.70781 60.7976 4.18131 60.6318C3.59566 61.2477 3.00025 61.6226 2.43376 62.4913C2.46868 63.9533 2.70093 64.5976 3.00546 65.3216C3.76416 65.3854 4.49638 65.5246 5.25104 64.9832C5.40719 66.0014 5.80859 65.2995 5.98621 65.9624C6.16364 66.6244 5.80859 67.2484 6.02582 67.8199C6.14384 67.4911 6.28359 67.586 6.42464 67.6337C6.66218 69.2653 6.63878 71.0555 6.76362 72.8252C6.36287 72.4999 5.9605 72.4263 5.5528 72.3379C5.43239 73.1583 5.26403 73.3251 5.03459 73.3711C5.04269 73.6821 5.05928 73.9597 5.0801 74.2209C4.87664 74.3247 4.68262 74.5904 4.5149 75.2604C3.57355 76.6571 2.60097 77.6346 1.62158 78.5227C1.36155 78.3905 1.20332 78.9117 1.09604 79.7588C0.875861 80.2293 0.655678 80.7019 0.435496 81.1741C0.283073 81.3389 0.249263 81.8115 0.235766 82.337V82.3405C-0.127074 84.8813 -0.106438 84.9591 0.547291 85.0611C1.23515 85.1684 1.91864 84.4185 2.606 84.9682C3.27714 84.9682 3.94828 84.9682 4.61942 84.9682C4.61974 85.1523 4.6202 85.3377 4.62052 85.5228C4.06155 85.8464 3.50252 86.1697 2.94355 86.494C3.04198 87.056 3.1208 87.2785 3.19717 87.2659C3.97721 87.1393 4.7577 87.1339 5.5382 87.1261C5.48716 87.1941 5.43792 87.2722 5.38398 87.3217C5.50683 87.3582 5.62982 87.3609 5.75202 87.429C5.53133 88.0218 5.31005 88.2434 5.04564 88.3535C5.08949 88.2417 5.13275 88.1371 5.18033 88.0449C4.89971 88.0397 4.70763 88.4022 4.41108 88.5217C4.24027 88.5908 4.12378 88.5599 4.51638 88.731C5.13828 89.0031 5.95304 89.0056 6.60433 89.6934C6.53399 89.6773 6.45029 89.6748 6.37553 89.6668C6.3689 89.6658 6.40884 89.6934 6.38645 89.6906C6.36383 89.6881 6.23546 89.6562 6.20929 89.6489C6.18299 89.6419 6.22131 89.6472 6.21224 89.6436C5.81914 89.5816 5.42539 89.5585 5.03233 89.6941C5.06075 89.7067 5.11096 89.7306 5.13422 89.7351C5.1573 89.7394 5.12837 89.7004 5.15062 89.7067C5.17273 89.712 5.207 89.7615 5.2369 89.767C5.48895 89.8077 5.73839 89.8112 5.98487 90.0654C5.85295 90.0567 5.72084 90.0434 5.58919 90.0258C5.87796 90.0991 6.17373 90.1667 6.45891 90.225C6.46803 90.2277 6.42786 90.2081 6.43634 90.2091C6.52049 90.2179 6.62837 90.2064 6.71028 90.2267C6.72267 90.2305 6.72994 90.2862 6.69535 90.2694C6.77462 90.3732 6.85735 90.1524 6.93552 90.3147C7.30684 91.0821 7.53872 92.0259 7.98558 92.4743C8.55649 93.0468 9.25863 92.928 9.86524 93.2877C9.99836 93.3658 10.1477 93.5208 10.2765 93.6484C9.87726 93.7504 9.40976 93.8195 9.02725 93.877C8.867 93.9001 8.71637 93.9843 8.60946 94.0172C8.19508 94.143 7.85854 94.2164 7.46009 94.3247C7.35267 94.6038 7.13263 94.493 7.02378 94.5206C6.91489 94.548 6.81415 94.602 6.73566 94.6189C6.20671 94.7359 5.71204 94.9786 5.19756 95.2544C4.98065 95.3704 4.76664 95.3782 4.55507 95.583C4.54203 95.5963 4.55373 95.5405 4.47966 95.6478C4.40555 95.7541 4.39679 95.8249 4.57405 95.8852C4.75134 95.9465 5.01833 96.2806 5.22616 96.3781C5.29199 96.409 5.37794 96.4373 5.45431 96.4471C5.66897 96.4728 5.89519 96.4986 6.11261 96.5604C6.15259 96.572 6.19308 96.5933 6.23416 96.6039C6.2753 96.6147 6.31786 96.627 6.3601 96.635C6.40253 96.6431 6.44656 96.6501 6.48945 96.6544C6.66624 96.6712 6.83736 96.6526 7.01692 96.6182C7.01936 96.62 7.02263 96.6225 7.02912 96.628C7.05787 96.6484 7.17409 96.7315 7.22006 96.7556C7.26607 96.7777 7.2857 96.7883 7.33623 96.8026C7.38681 96.8177 7.45438 96.8308 7.51339 96.8416C7.57221 96.8531 7.56816 96.8486 7.65006 96.8627C7.73196 96.8752 7.86826 96.8805 7.97978 96.9061C9.31584 97.203 10.6662 97.1835 12.0083 97.298C12.1492 97.3103 12.2891 97.3173 12.4316 97.3289C12.4771 97.3324 12.5158 97.3342 12.5688 97.3387C12.6216 97.343 12.7072 97.3492 12.7647 97.3537C12.8965 97.3653 13.0995 97.3829 13.2103 97.3937C13.3212 97.4042 13.4008 97.4131 13.4746 97.4193C13.5482 97.4256 13.5615 97.4274 13.6134 97.4326C13.7978 97.452 13.9008 97.461 14.101 97.4804C14.3014 97.4982 14.5763 97.5231 14.7991 97.5477C14.9137 97.562 15.0403 97.5736 15.1615 97.5834C16.9566 97.7205 18.757 97.9102 20.5531 98.0609C20.8376 98.0858 21.1277 98.1159 21.4082 98.1345C21.4979 98.1405 21.6053 98.1478 21.6773 98.1531C21.7494 98.1584 21.7564 98.1576 21.8178 98.1584C21.8793 98.1594 21.9464 98.1451 22.0105 98.1388C22.2433 98.1177 22.475 98.1353 22.7088 98.1504C22.6461 98.1868 22.6844 98.3038 22.7113 98.3063C22.7381 98.3081 22.7044 98.1654 22.7293 98.1531C22.7542 98.1388 22.7776 98.1398 22.8175 98.1388C22.8575 98.138 22.919 98.0697 22.9705 98.0848C23.2426 98.1629 23.5215 98.2274 23.7968 98.1938C23.8876 98.1822 23.9778 98.1991 24.068 98.2169C23.8821 98.2559 23.6866 98.3312 23.5036 98.3516C23.4508 98.3578 23.4046 98.3604 23.3631 98.3789C23.3215 98.3958 23.3327 98.4207 23.2891 98.3888C23.2457 98.3579 23.201 98.3038 23.1408 98.2177C23.0806 98.1328 22.8356 98.1973 22.8341 98.3845C22.834 98.4101 22.834 98.4171 22.8338 98.4314C22.8242 98.4536 22.8357 98.4473 22.8175 98.4536C22.7992 98.4578 22.7733 98.5041 22.7425 98.5086C22.6022 98.5244 22.4645 98.5882 22.3167 98.5759C22.025 98.5528 21.7184 98.4704 21.4277 98.7141C20.2123 98.8505 18.9978 98.9276 17.7824 98.9738C17.633 99.3858 17.4449 99.3343 17.36 100.034C18.9552 100.186 20.5406 100.378 22.1422 100.487C22.1809 101.015 22.0813 100.773 21.8874 100.729C21.78 100.705 21.33 100.845 21.1704 101.067C21.6979 101.304 22.2493 101.285 22.7865 101.201C22.7875 101.204 22.7894 101.207 22.7935 101.217C22.8078 101.25 22.7777 101.181 22.8182 101.282C22.8587 101.383 22.9606 101.845 22.9942 102.003C22.9981 102.02 22.9995 102.033 23.0003 102.043C23.0117 102.036 23.0338 102.033 23.0798 102.049C23.2379 102.106 23.6014 101.958 23.8117 102.031C24.021 102.105 24.228 102.605 24.4224 101.975C24.4219 101.982 24.4216 101.987 24.4208 101.997C24.4175 102.029 24.4416 101.984 24.4318 101.963C24.4286 101.956 24.4278 101.959 24.4265 101.961C24.4315 101.933 24.4301 101.881 24.4856 101.79C24.6814 101.47 24.9894 101.468 25.2349 101.367C25.2385 101.367 25.4002 101.354 25.4112 101.376C25.601 101.767 25.8709 101.437 26.0024 101.291C26.0133 101.279 26.0203 101.271 26.0264 101.265C26.0156 101.276 26.0068 101.285 26.026 101.263C26.0415 101.243 26.025 101.265 26.0274 101.264C26.0274 101.264 26.0295 101.262 26.0341 101.257C26.0567 101.232 25.9762 101.328 26.075 101.231C26.174 101.135 26.5177 100.904 26.6245 101.217C26.8083 101.755 26.9426 101.668 27.1381 101.651C27.3336 101.634 27.5884 101.671 27.753 101.61C28.0137 101.515 27.5445 101.118 27.9586 101.308C28.3725 101.498 28.7056 101.544 29.1083 101.408L29.1073 101.403C29.1426 101.468 29.3275 101.755 29.3726 101.689C29.6439 101.292 30.0482 101.337 30.2757 101.338C30.5032 101.34 30.4879 101.35 30.6264 100.969C30.6373 100.939 30.6216 100.957 30.6254 100.951C30.8188 100.615 30.9969 100.6 31.2011 100.57C31.2625 100.562 31.3436 100.553 31.3995 100.472C31.6823 100.066 31.5955 99.8324 31.3228 99.7093C31.1543 99.633 30.8209 99.945 30.655 99.4222C31.969 99.3192 33.2966 99.2183 34.6128 99.1758C34.7097 99.173 34.8152 99.1536 34.8977 99.2112C34.9307 99.2343 34.8868 99.5614 34.9061 99.6312C35.8577 99.7546 36.8146 99.8847 37.7679 100.018C37.7348 100.044 37.7008 100.075 37.668 100.103C37.9526 100.16 38.248 100.151 38.5304 100.199C38.5173 100.199 38.512 100.106 38.4971 100.115C38.9064 100.155 39.3172 100.2 39.7246 100.223C39.7646 99.7784 40.0378 99.805 40.1627 99.8138C40.2875 99.8226 40.5106 99.6666 40.6387 99.796C40.7448 99.9033 40.8135 100.289 40.9175 100.415C40.5306 100.375 40.1396 100.314 39.7573 100.362C39.7096 100.368 39.6443 100.39 39.618 100.39C39.6126 100.389 39.6092 100.389 39.6092 100.389C39.4353 100.231 39.2732 100.22 39.0922 100.218C38.9102 100.217 38.7173 100.197 38.5304 100.199C38.5817 100.208 38.6136 100.577 38.6329 100.635C38.6523 100.69 38.6411 100.628 38.6477 100.644C38.6532 100.658 38.6494 100.644 38.6511 100.65C38.6658 100.686 38.6645 100.812 38.6734 100.845C38.7574 101.149 39.104 101.265 39.1448 101.251C39.1575 101.248 39.1656 101.245 39.1718 101.243C39.1765 101.244 39.1755 101.243 39.177 101.247C39.2976 101.514 39.5493 101.359 39.6308 101.274C39.6364 101.269 39.639 101.265 39.643 101.263C39.643 101.263 39.6466 101.259 39.6525 101.254C39.6591 101.247 39.6516 101.255 39.6546 101.257C39.7664 101.343 39.8663 101.51 39.9636 101.219C39.9669 101.209 39.9656 101.216 39.9656 101.216L39.9664 101.218L39.9671 101.217C39.9685 101.218 39.9715 101.22 39.9784 101.225C40.0022 101.238 40.0782 101.244 40.1026 101.25C40.1085 101.25 40.1119 101.25 40.1119 101.25C40.1119 101.25 40.1136 101.257 40.1229 101.27C40.1497 101.311 40.255 101.455 40.2835 101.442C40.3121 101.428 40.2878 101.436 40.2891 101.447C40.2903 101.457 40.2906 101.441 40.2891 101.447C40.287 101.458 40.2864 101.464 40.2864 101.464C40.2864 101.464 40.2849 101.463 40.2726 101.505C40.2462 101.595 40.1588 101.927 40.2714 101.955C40.1653 101.99 40.063 101.998 39.9581 102.024C40.2461 102.058 40.5292 102.131 40.8125 102.337C40.6917 102.29 40.581 102.242 40.4632 102.384C40.5865 102.421 40.7089 102.457 40.8306 102.549C40.6361 102.534 40.4386 102.463 40.2467 102.45C40.3007 102.455 40.3077 102.701 40.2259 102.75C40.1443 102.798 39.9801 102.715 39.8792 102.697C39.7779 102.676 39.6565 102.699 39.6304 103.08C39.6205 103.225 39.7053 103.323 39.7428 103.328C39.7805 103.333 40.0119 103.399 39.8866 103.582C39.7613 103.765 39.4859 103.536 39.4573 103.943C39.4555 103.968 39.4557 103.971 39.4549 103.986C39.4423 104.023 39.4417 103.985 39.4222 103.974C39.2914 103.895 39.0839 103.787 38.9651 103.954C38.8463 104.119 38.7464 104.371 38.8859 104.723C39.106 105.278 39.3239 105.377 39.6167 105.514C39.7872 105.595 40.0754 105.806 40.2126 104.997C40.2467 104.797 40.3858 104.903 40.452 104.94C40.8483 105.156 41.153 105.186 41.5378 104.549C41.8186 104.083 42.1777 103.94 42.4816 103.902C42.7857 103.864 43.0577 103.894 43.3507 103.894C44.2045 103.895 45.0013 103.969 45.8532 103.256C45.9433 103.18 46.1015 103.18 46.2264 103.184C46.7024 103.198 47.2035 103.147 47.6823 103.45C47.8001 103.524 47.9356 103.436 48.0468 103.378C48.5071 103.142 49.0395 103.069 49.4744 102.983C49.7937 102.92 49.9544 103.416 50.2462 103.435C50.5381 103.453 50.8301 103.151 51.1241 103.35C51.2232 103.416 51.3488 103.429 51.4369 103.575C51.5168 103.708 51.5425 104.221 51.6125 104.422C51.6408 103.99 51.5867 103.782 51.4939 103.556C51.8052 103.556 52.1169 103.425 52.4218 103.244C52.4718 103.215 52.5269 103.16 52.5643 103.164C52.6018 103.167 52.5965 103.345 52.6246 103.348C52.6529 103.352 52.6554 103.135 52.685 103.116C52.8674 102.995 53.0846 103.111 53.2721 103.21C53.2411 103.218 53.2096 103.229 53.1785 103.235C53.2416 103.457 53.3553 103.526 53.4884 103.51C54.3146 103.407 55.1201 103.483 55.9298 103.516C55.9724 103.554 56.0127 103.585 56.0468 103.599C56.171 103.649 56.1814 103.637 56.1663 103.524C56.2657 103.527 56.3649 103.533 56.4646 103.534C56.8387 103.537 57.2066 103.582 57.574 103.628C57.7677 103.679 57.9658 103.703 58.1828 103.703C58.2159 103.703 58.2518 103.706 58.2858 103.706C58.4501 103.722 58.6158 103.726 58.7818 103.729C59.1166 103.752 59.4618 103.789 59.7897 103.827C59.981 103.849 60.1799 103.85 60.3788 103.799C60.8336 103.979 61.306 104.003 61.8238 103.615C61.9937 103.487 62.1437 103.512 62.2318 103.741C62.4196 104.232 62.6918 103.816 62.9348 103.721C62.8768 103.127 62.6291 103.128 62.3639 103.174C61.9994 103.236 61.6455 103.193 61.2885 103.181C62.094 102.579 62.8997 102.433 63.7289 102.421C63.8136 102.42 63.8986 102.414 63.9834 102.403C63.9641 102.456 63.9463 102.512 63.9273 102.565C63.967 102.584 64.0134 102.643 64.0448 102.611C64.0788 102.576 64.1189 102.45 64.121 102.377C64.3154 102.337 64.5093 102.268 64.6999 102.145C64.8048 102.076 64.9251 102.116 65.0143 102.091C65.0359 102.085 64.9472 102.239 64.9683 102.243C64.9828 102.245 64.9997 102.235 65.0174 102.221C64.9752 102.325 64.9608 102.455 65.0014 102.512C65.1732 102.752 65.0361 103.269 65.1517 103.548C65.2433 103.547 65.3344 103.547 65.4256 103.547C65.6465 103.498 65.8739 103.684 66.0824 103.181L66.0756 103.182C65.8863 102.587 65.4293 102.687 65.2288 102.114C65.2834 102.122 65.3443 102.141 65.3749 102.165C65.4188 102.2 65.4309 102.346 65.4537 102.354C65.4763 102.361 65.4657 102.203 65.4823 102.213C65.6253 102.294 65.8208 102.425 65.9462 102.594C66.0715 102.762 66.2249 102.874 66.3057 102.575C66.4552 102.023 66.6224 102.185 66.7685 102.383C66.9146 102.581 66.9357 102.553 67.0538 102.412C67.172 102.272 67.2333 102.431 67.3454 102.416C67.5674 102.385 67.7318 102.338 67.9734 102.316C68.0144 102.312 68.0604 102.313 68.1056 102.314C67.9175 102.371 67.7297 102.426 67.5416 102.483C67.6491 102.885 67.8768 102.808 68.077 102.736C68.318 102.648 68.5597 102.599 68.8007 102.551C68.8015 102.752 68.8015 102.953 68.8029 103.152C68.6187 103.195 68.4357 103.227 68.2519 103.309C68.2331 103.462 68.2226 103.864 68.2998 103.798C68.459 103.664 68.6283 103.314 68.8033 103.289C68.8056 103.809 68.808 104.334 68.81 104.87C68.8984 104.823 68.9692 105.059 69.0552 105.045C69.1932 105.023 69.322 104.768 69.4324 105.264C69.6088 105.133 69.7939 104.865 69.9629 104.739C70.0131 104.7 70.0017 105.033 70.0042 105.127C70.1727 105.067 70.3547 105.189 70.5192 105.188C70.6051 105.188 70.6952 104.818 70.7671 104.794C70.8391 104.768 70.9557 104.856 70.8746 105.089C71.3343 104.876 71.7899 104.494 72.2505 104.269C72.437 103.515 72.6442 103.801 72.8783 104.007C72.8665 103.994 72.8385 103.891 72.8232 103.797C72.833 103.788 72.8426 103.78 72.8512 103.775C72.8431 103.728 72.8369 103.679 72.8291 103.632C72.8325 103.628 72.835 103.624 72.8398 103.624C73.0191 103.624 73.2123 103.711 73.3998 103.671C73.43 103.697 73.4599 103.725 73.4911 103.744C73.4814 103.94 73.4461 104.05 73.4061 104.19C73.5471 104.144 73.688 104.126 73.8278 104.052C73.7546 103.996 73.6845 103.915 73.616 103.805C73.7471 103.857 73.8836 103.869 74.0227 103.862C74.025 103.891 74.0284 103.915 74.0339 103.925C74.1106 103.898 74.1881 103.868 74.2653 103.841C74.3886 103.825 74.5123 103.81 74.6335 103.809C74.8864 103.865 75.1399 103.916 75.3947 103.96C75.3505 104.009 75.3232 104.096 75.3654 104.228C75.4467 104.483 75.5637 104.284 75.6373 104.286C75.6977 104.287 75.7823 104.186 75.7843 104.015C76.0925 104.045 76.4061 104.032 76.7251 103.976C76.5361 104.257 76.3177 104.24 76.1194 104.217C76.3412 104.312 76.5506 104.402 76.7472 103.974C76.8085 103.962 76.8682 103.962 76.9302 103.947C77.2351 103.968 77.5395 103.997 77.8441 104.021C77.8254 104.103 77.7963 104.156 77.7667 104.212C77.8595 104.27 77.9333 104.111 78.0153 104.031C78.0577 104.034 78.1005 104.036 78.1432 104.038C78.1934 104.092 78.242 104.185 78.2852 104.282C78.2136 104.294 78.1471 104.292 78.0805 104.409C78.2696 104.392 78.4447 104.443 78.6242 104.686C79.0854 104.558 79.5355 104.503 80.0006 104.456C80.1147 104.444 80.1787 104.476 80.3181 104.337C80.4572 104.198 80.7032 104.049 80.8663 104.042C81.0287 104.035 81.1391 104.116 81.3097 103.949C81.3061 103.955 81.3008 103.962 81.2925 103.975C81.2574 104.026 81.312 103.984 81.3131 103.958C81.3134 103.952 81.3143 103.946 81.3152 103.943C81.3338 103.922 81.3464 103.898 81.3786 103.861C81.6022 103.859 81.823 103.967 82.0549 103.61C82.0967 103.625 82.1393 103.612 82.1828 103.571C82.5366 103.57 82.8908 103.558 83.2464 103.523C83.4664 103.561 84.0321 103.551 84.3467 103.453C84.505 103.404 84.8787 103.37 85.058 103.634C84.9177 103.466 84.737 103.923 84.5934 103.654C84.4497 103.384 83.9981 103.782 83.9944 103.851C83.9906 103.918 83.9882 103.959 83.9868 103.99L83.9865 103.992C83.982 104.058 83.9843 104.004 83.9843 104.004C83.8203 104.02 83.6627 104.015 83.4973 104.077C83.4906 104.079 83.4869 104.076 83.4684 104.062C83.328 103.958 83.1595 104.057 83.0238 104.136C82.9547 104.177 82.9133 104.015 82.8593 104.169C82.8447 104.21 82.8681 104.146 82.8398 104.185C82.8116 104.224 82.7249 104.197 82.6978 104.201C82.6918 104.202 82.6908 104.206 82.6908 104.206C82.6898 104.202 82.682 104.191 82.6435 104.159C82.5583 104.088 82.3209 103.955 82.2231 104.288C82.2205 104.297 82.19 104.205 82.2249 104.317C82.2597 104.428 82.1284 104.128 82.2727 104.515C82.4168 104.904 82.8465 104.76 83.0623 104.381C83.1916 104.154 83.3956 104.263 83.5418 104.282C83.5487 104.283 83.5391 104.313 83.561 104.293C83.5828 104.273 83.6808 104.124 83.7026 104.247C83.7032 104.251 83.7032 104.255 83.7032 104.255C83.7115 104.254 83.7225 104.253 83.7371 104.255C83.854 104.272 83.894 104.297 84.1262 104.225C84.4793 104.116 85.1888 103.936 85.5765 103.997C85.8389 104.037 86.0299 104.124 86.2455 104.095C86.8784 104.008 87.4685 103.834 88.0883 103.826C88.2082 103.824 88.2927 103.937 88.4056 103.794C88.5186 103.649 88.5951 104.117 88.7128 103.707C88.7233 103.67 88.711 103.567 88.8078 103.404C89.0842 102.934 89.6023 103.06 89.8922 103.761C89.9057 103.794 89.8994 103.726 89.9041 103.725C89.9088 103.723 89.9036 103.732 89.9063 103.728C89.9692 103.657 90.0986 103.807 90.1457 103.676C90.1987 103.53 90.1943 103.57 90.2525 103.534C90.2963 103.508 90.3077 103.665 90.3517 103.671C90.4426 103.683 90.5544 103.707 90.653 103.651C90.8867 103.518 91.1456 103.541 91.3758 103.525C91.5097 103.516 91.6188 103.367 91.7415 103.371C92.6359 103.406 93.5231 103.479 94.4156 103.533C94.4976 103.539 94.586 103.564 94.6663 103.562C95.7546 103.537 96.8297 103.587 97.9189 103.678C98.9119 103.762 99.9162 103.459 100.91 103.315C101.821 103.183 102.727 102.918 103.638 102.841C103.64 102.845 103.643 102.853 103.649 102.894C103.663 102.987 103.662 103.367 103.632 103.449C103.626 103.466 103.625 103.471 103.624 103.477C103.621 103.477 103.617 103.478 103.606 103.487C103.558 103.53 103.74 103.414 103.491 103.576C103.242 103.736 102.732 103.821 102.371 103.952C101.879 104.131 101.247 104.551 100.74 104.512C100.709 104.511 100.659 104.353 100.659 104.353C100.659 104.353 100.512 104.103 100.488 104.181C100.487 104.187 100.483 104.174 100.479 104.172C100.475 104.171 100.484 104.179 100.484 104.179C100.484 104.179 100.484 104.186 100.483 104.183C100.443 104.055 100.321 104.04 100.313 104.17C100.312 104.185 100.312 104.187 100.312 104.196C100.303 104.19 100.273 104.178 100.189 104.15C99.8746 104.045 99.3851 104.038 98.9598 104.205C98.6318 104.333 98.0951 104.157 97.7293 104.074C97.6098 104.046 97.506 104.249 97.3848 104.252C97.1644 104.256 96.9605 103.86 96.7587 104.403C96.7544 104.413 96.7718 104.366 96.7474 104.428C96.7231 104.489 96.6553 104.391 96.627 104.378C96.5242 104.329 96.401 104.562 96.3138 104.447C96.3094 104.441 96.308 104.44 96.3058 104.437C96.3079 104.44 96.3095 104.446 96.3095 104.446C96.3082 104.452 96.3066 104.448 96.3066 104.448C96.3071 104.455 96.3076 104.46 96.3083 104.477C96.3129 104.576 96.3179 104.529 96.3381 104.722C96.3579 104.915 96.4884 105.123 96.5333 105.057C96.569 105.003 96.5416 105.051 96.5416 105.051C96.5512 105.046 96.5463 105.036 96.5503 105.047C96.5922 105.154 96.6898 105.106 96.7215 105.069C96.7532 105.032 96.7338 105.049 96.7442 105.043C97.8659 105.2 98.9885 105.017 100.111 104.892C100.114 104.889 100.106 104.881 100.113 104.896C100.12 104.913 100.098 104.873 100.121 104.921C100.145 104.969 100.203 104.85 100.234 104.915C100.266 104.978 100.24 105.007 100.286 105.095C100.485 105.475 100.745 105.127 100.968 104.981C101.315 104.754 101.663 104.685 102.029 104.743C103.227 104.934 104.34 105.914 105.486 103.99C105.494 103.975 105.502 103.998 105.516 104.004C105.626 104.052 105.305 103.916 105.666 104.082C106.238 104.345 107.135 103.792 107.749 103.416C108.216 103.13 108.621 103.352 109.07 102.957C108.588 102.594 108.186 102.044 107.744 103.181L107.744 103.184C107.744 103.184 107.739 103.181 107.732 103.181C107.749 103.179 107.749 103.175 107.592 103.174C107.211 103.172 106.394 103.352 105.979 103.464C105.696 103.54 105.768 103.492 105.621 102.881C105.618 102.867 105.638 102.897 105.625 102.869C105.611 102.841 105.651 102.908 105.612 102.826C105.574 102.744 105.445 102.754 105.418 102.52C105.816 102.414 106.213 102.407 106.605 102.045C106.605 102.045 106.606 102.044 106.609 102.043C106.621 102.035 106.602 102.057 106.632 102.036C107.06 101.731 107.559 101.664 107.984 101.582C108.066 101.565 108.02 101.574 108.079 101.56C108.091 101.557 108.077 101.562 108.095 101.553C108.11 101.546 108.093 101.562 108.112 101.55C108.116 101.547 108.119 101.545 108.126 101.54C108.136 101.532 108.147 101.523 108.162 101.512C108.304 101.395 108.873 100.704 109.092 100.484C108.955 100.424 108.746 100.555 108.611 100.597C108.475 100.639 108.373 100.541 108.255 100.541C107.794 100.543 107.346 100.614 106.889 100.701C107.022 100.641 107.153 100.545 107.283 100.427C107.317 100.396 107.341 100.23 107.376 100.227C108.352 100.092 109.379 100.003 110.345 99.8314C111.309 99.6606 112.212 99.64 113.167 99.5825C113.68 99.5506 114.199 99.5639 114.715 99.6712C114.868 99.7031 115.015 99.579 115.173 99.6269C115.184 99.6305 115.192 99.6375 115.222 99.648C115.465 99.735 115.735 99.7279 115.982 99.6375C115.993 99.633 115.985 99.6393 115.99 99.6393C115.993 99.6393 115.991 99.6375 115.991 99.6375C116.031 99.6533 116.066 99.5639 116.107 99.6269C116.148 99.689 116.286 99.7598 116.287 99.6224C116.287 99.5976 116.287 99.5895 116.287 99.5807C116.341 99.166 116.418 98.8806 116.509 98.6804C115.856 98.754 115.203 98.8276 114.546 98.8276C112.829 98.8276 111.106 98.7937 109.387 98.9472C108.537 99.0233 107.687 98.8886 106.841 99.2883C106.822 99.2971 106.807 99.2697 106.789 99.2645C106.18 99.0881 105.625 99.0464 105.006 99.3273C104.604 99.5099 104.112 99.4815 103.707 99.4682C103.588 99.4637 103.642 99.4506 103.615 99.1562C103.875 99.1501 104.128 99.2308 104.385 99.1501C105.292 98.8683 106.189 98.6068 107.1 98.4048C108.227 98.1538 109.366 98.0788 110.497 97.9775C111.045 97.9288 111.598 97.9918 112.141 97.8366C112.189 97.8235 112.249 97.7977 112.276 97.7906C112.282 97.7889 112.284 97.7879 112.286 97.7879C112.472 97.9095 112.616 97.9067 112.814 97.881C113.013 97.8544 113.263 97.8288 113.471 97.8092C113.373 97.7338 113.278 97.5982 113.197 97.3874C113.187 97.3618 113.191 97.398 113.187 97.3864C113.184 97.3776 113.185 97.3919 113.183 97.3856C113.168 97.3173 113.148 97.2739 113.137 97.2005C113.044 96.565 112.65 96.6659 112.626 96.7616C112.613 96.8149 112.608 96.8335 112.603 96.8566C112.601 96.8612 112.601 96.8601 112.6 96.8636C112.599 96.8619 112.6 96.8602 112.597 96.8584C112.594 96.8566 112.595 96.8609 112.596 96.8644C112.592 96.8556 112.59 96.8503 112.581 96.8335C112.522 96.7227 112.205 96.782 112.154 96.8938C112.089 97.0355 112.161 96.876 112.136 96.9247C112.135 96.9282 112.134 96.9302 112.134 96.9302C112.135 96.9265 112.135 96.923 112.132 96.9212C112.124 96.9134 112.118 96.9124 112.109 96.8699C112.099 96.8272 112.033 96.8335 112.035 96.7493C112.038 96.6652 112.089 96.4728 112.141 96.4966C112.46 96.6439 112.852 96.5933 113.161 96.4808C113.469 96.3683 113.644 96.409 113.917 96.8441C114.003 96.729 114.064 96.4861 114.134 96.2681C114.768 96.051 115.4 96.1467 116.036 96.0661C116.421 96.0173 116.808 95.5149 117.194 95.4147C117.147 95.5812 117.084 95.6558 117.027 95.7744C117.556 95.5875 118.081 95.4963 118.612 95.5938C118.697 95.1886 118.814 95.015 118.926 94.7492C118.536 94.7721 118.16 94.695 117.778 94.384C117.971 94.3822 118.164 94.4257 118.357 94.3468C117.714 94.3008 117.083 94.5435 116.446 94.8183C116.442 94.6872 116.451 94.5824 116.473 94.494C116.192 94.4194 115.932 94.8095 115.654 94.8439C114.933 94.9344 114.206 94.9246 113.485 95.1861C114.1 94.8103 114.715 94.4204 115.328 93.9843C116.666 93.8507 117.995 93.4517 119.327 92.9367C119.324 92.9928 119.342 92.9563 119.323 93.0307C119.304 93.1061 119.226 93.2035 119.202 93.2709C119.178 93.3382 119.171 93.3995 119.191 93.4809C119.212 93.5635 119.195 93.5261 119.243 93.6077C119.29 93.6891 119.363 93.7813 119.448 93.8745C119.533 93.9667 119.695 94.1659 119.792 94.3282C119.796 94.3352 119.798 94.3299 119.806 94.3538C119.815 94.3769 119.835 94.4106 119.851 94.4495C119.866 94.4887 119.883 94.5319 119.9 94.603C119.917 94.6739 119.947 94.7812 119.956 94.8884C119.958 94.9105 119.949 94.8864 119.946 94.9316C119.899 95.5096 120.074 95.9332 120.087 95.5795C120.089 95.5343 120.089 95.5217 120.09 95.5024C120.171 95.3933 120.273 95.3375 120.347 95.2295C120.362 95.2074 120.324 95.0824 120.33 95.054C120.336 95.0248 120.328 95.0592 120.331 95.0451C120.332 95.0363 120.33 95.0371 120.33 95.0371C120.335 95.0283 120.306 95.0816 120.366 94.9708C120.426 94.86 120.616 94.5151 120.7 94.3335C120.706 94.3211 120.694 94.3272 120.717 94.3237C120.74 94.3212 120.793 94.3335 120.831 94.2998C120.869 94.2661 120.897 94.128 120.934 94.0295C121.062 93.6884 121.174 93.4934 121.343 93.5387C121.512 93.5839 121.694 93.6821 121.875 93.8391C122.148 94.0765 122.408 94.5098 122.648 93.621C122.653 93.6032 122.634 93.6025 122.682 93.505C122.73 93.4075 122.934 93.5864 123.006 93.7157C123.289 94.2315 123.51 94.0978 123.778 93.6519C124.045 93.2063 124.281 92.9483 124.492 92.1952C124.498 92.1746 124.48 92.1507 124.473 92.1517C124.351 92.1675 124.146 92.2535 124.04 92.2555C123.934 92.259 123.908 92.0985 123.833 92.0949C123.828 92.0939 123.826 92.0967 123.825 92.0995C123.828 92.0922 123.833 92.0693 123.832 92.0003C123.832 91.852 123.96 91.6199 123.989 91.486C124.019 91.3541 123.97 91.1687 123.926 91.1803C123.615 91.2627 123.382 90.9118 123.049 90.9766C122.519 91.0793 121.919 91.3132 121.374 91.5039C121.068 91.6111 120.805 91.7342 120.501 92.1065C120.197 92.4778 119.871 92.5114 119.55 92.3067C119.524 92.2909 119.466 92.2685 119.465 92.258C119.463 92.2474 119.458 92.0719 119.503 92.1251C119.549 92.1774 119.747 92.2776 119.822 92.2668C119.885 91.7759 119.745 91.8387 119.992 91.7769C120.035 91.7661 120.066 91.6332 119.995 91.5614C119.925 91.4905 119.826 91.1343 119.74 91.1599C119.419 91.2574 119.112 91.3833 118.797 90.9979C118.738 90.9261 118.637 90.8959 118.602 90.8685C118.566 90.8409 118.587 90.7985 118.581 90.7655C118.575 90.7329 118.551 90.5503 118.57 90.5495C118.777 90.5415 119.01 90.6 119.226 90.5387C119.227 90.5422 119.227 90.5432 119.23 90.5503C119.245 90.5884 119.197 90.4784 119.25 90.6088C119.303 90.7399 119.427 90.8143 119.513 90.809C120.165 90.7673 120.822 90.7771 121.475 90.5636C121.515 90.5503 121.554 90.5433 121.597 90.5681C121.731 90.6452 121.831 90.5618 121.977 90.5804C122.122 90.5983 122.312 90.6397 122.467 90.5636C122.471 90.5618 122.469 90.5653 122.469 90.5653C122.471 90.5653 122.475 90.5653 122.481 90.5653C122.508 90.5646 122.551 90.5646 122.589 90.5653C122.79 90.5698 123.003 90.5724 123.204 90.5776C123.214 90.5776 123.201 90.5706 123.21 90.5839C123.218 90.5965 123.194 90.5548 123.232 90.6113C123.269 90.6673 123.417 90.6523 123.447 90.5928C123.451 90.585 123.451 90.5839 123.453 90.5794V90.5832C123.46 90.5787 123.464 90.5751 123.464 90.5751C123.464 90.5751 123.467 90.5769 123.486 90.5742C123.532 90.5664 123.637 90.5706 123.708 90.5769C123.78 90.5822 123.87 90.5752 123.95 90.5804C124.15 90.5927 124.36 90.5636 124.56 90.5955C124.609 90.6035 124.638 90.6726 124.688 90.5867C124.688 90.5867 124.691 90.5867 124.699 90.5832C124.718 90.5734 124.777 90.592 124.812 90.5742C124.848 90.5566 124.898 90.4633 124.938 90.4598C124.978 90.4573 125.014 90.4199 125.057 90.4518C125.21 90.5646 125.368 90.5397 125.522 90.4643C125.537 90.4573 125.538 90.4546 125.548 90.4528C125.56 90.4511 125.561 90.4493 125.573 90.4518C125.764 90.4892 125.967 90.4882 126.158 90.4651C126.588 90.4104 127.014 90.4199 127.44 90.451C127.555 90.4598 127.654 90.4325 127.758 90.3189C127.763 90.3147 127.76 90.2624 127.74 90.2596C127.722 90.2568 127.765 90.2436 127.825 90.2456C127.886 90.2473 128.034 90.2436 128.112 90.2456C128.036 90.2551 127.956 90.2792 127.878 90.3242C128.013 90.4342 128.135 90.4661 128.277 90.4616C128.782 90.4458 129.308 90.4412 129.812 90.4953C130.521 90.5734 131.211 90.491 131.918 90.6211C131.991 90.6337 132.077 90.607 132.152 90.5814C132.376 90.505 132.597 90.5025 132.822 90.4892C132.831 90.4892 132.843 90.4714 132.844 90.4174C132.846 90.3651 132.825 90.3136 132.81 90.3073C132.524 90.1905 132.237 90.1267 131.947 90.124C131.887 90.1232 131.832 90.2249 131.772 90.2694C131.834 90.2081 131.868 90.077 131.941 90.0647C132.014 90.0503 132.259 90.0426 132.266 89.6969C132.271 89.3513 132.16 89.5985 132.133 89.4877C132.723 89.5045 133.304 89.4967 133.902 89.5019C134.104 89.5037 134.365 89.6037 134.417 88.6423C134.427 88.4482 134.388 88.3499 134.382 88.2037C134.374 88.0573 134.307 88.1557 134.305 88.0804C134.299 87.5744 134.066 87.7666 133.974 87.7757C133.881 87.7835 133.784 87.7427 133.693 87.756C133.902 87.6576 134.164 87.8384 134.361 87.6116C134.512 87.437 134.359 87.1499 134.266 87.1464C133.285 87.1039 132.297 87.1517 131.31 87.1765C130.522 87.1959 129.734 87.2217 128.948 87.2428C128.949 87.2253 128.951 87.2057 128.953 87.1881C128.946 87.2057 128.941 87.2253 128.936 87.2428C128.563 87.2536 128.189 87.2562 127.815 87.2634C127.885 86.8414 127.984 86.4179 127.896 86.0192C127.909 85.9933 127.916 85.965 127.919 85.9358C127.921 85.9145 127.922 85.8994 127.921 85.8889C127.924 85.8977 127.927 85.9057 127.93 85.9155C128.007 86.0031 128.104 85.9986 128.199 86.0031C128.238 86.0077 128.275 86.0067 128.314 86.0049C128.353 86.0067 128.392 86.0032 128.431 85.9979C128.652 85.9632 128.874 85.8286 129.094 85.824C129.136 85.8188 129.178 85.8054 129.221 85.7896C129.417 85.6627 129.606 85.6869 129.798 85.6637C130.222 85.5299 130.643 85.4706 131.067 85.3419C131.221 85.295 131.38 85.2809 131.492 84.9963C131.512 85.0078 131.533 85.0106 131.556 85.0061C131.557 85.0106 131.559 85.0141 131.559 85.0141C131.575 85.0709 131.6 85.0752 131.632 85.0194C131.686 85.0141 131.739 85.0071 131.793 85.0001C132.037 84.9654 132.284 84.7749 132.526 84.7918C132.63 84.7669 132.693 84.7021 132.593 84.5728C132.502 84.4532 132.328 84.6215 132.255 84.416C132.497 84.3522 132.74 84.2874 132.983 84.2236C133.132 84.1731 133.309 84.3663 133.413 83.9339C133.841 83.8551 134.271 83.8666 134.694 83.6689C135.064 83.4968 135.436 83.3303 135.808 83.17C136.062 83.0592 136.19 82.5859 136.419 82.3759C136.533 82.2704 136.517 82.0391 136.543 81.8592C136.528 81.76 136.515 81.6607 136.501 81.5615C136.551 81.2186 136.6 80.9091 136.413 80.6788C136.301 80.5431 136.431 80.374 136.553 80.3137C136.657 80.1914 136.74 80.0575 136.663 79.8671C136.647 79.8244 136.639 79.7785 136.637 79.7322C136.819 79.7413 136.944 79.7119 136.939 79.5835C136.939 79.5692 137.125 79.5586 137.045 79.4941C137 79.4584 136.912 79.4408 136.839 79.4524C136.775 79.4629 136.715 79.4611 136.655 79.4657C136.658 79.4247 136.662 79.384 136.66 79.3451C136.673 79.229 136.665 79.1323 136.614 79.066C136.593 78.9542 136.532 78.9391 136.471 78.9215C136.757 78.6306 136.753 78.6369 136.613 78.3144C136.515 78.0865 136.398 77.9494 136.203 77.9866C136.031 78.0192 135.86 78.0104 135.688 78.021C135.638 78.022 135.587 78.0227 135.537 78.0237C135.479 78.0094 135.409 78.0546 135.363 77.9715C135.433 77.8996 135.501 77.8295 135.57 77.7597C135.714 77.7064 135.862 77.8039 136.07 77.5381C135.791 77.3776 135.526 77.5045 135.284 77.4919C135.154 77.4866 135.022 77.4876 134.991 77.2261C135.056 77.2023 135.123 77.2156 135.212 77.1845C135.379 77.197 135.545 77.2156 135.711 77.2367C135.795 77.2475 135.899 77.243 135.95 77.1942C135.977 77.1669 135.94 77.1427 135.888 77.135C135.722 77.1126 135.555 77.0915 135.389 77.0711L135.383 77.0701C135.344 77.0649 135.306 77.0604 135.269 77.0551C135.067 77.0719 134.913 77.032 134.83 76.9443C134.749 76.8566 134.933 76.8069 135.024 76.775C135.272 76.6866 135.293 76.6509 134.97 76.6067C134.65 76.5632 134.33 76.5376 134 76.5366C133.98 76.5295 133.961 76.5288 133.94 76.5341C133.715 76.471 133.431 76.5341 133.218 76.4489C133.186 76.3869 133.221 76.3427 133.363 76.3497C133.685 76.3655 133.941 76.308 134.153 76.1919C134.435 76.269 134.729 76.2708 135.03 76.2238C135.087 76.2354 135.175 76.2389 135.142 76.2849C135.1 76.3434 135.084 76.3956 135.256 76.3823C135.389 76.3735 135.469 76.3231 135.431 76.2557C135.389 76.1796 135.274 76.1369 135.106 76.1387C134.807 76.0485 135.093 76.0314 135.181 75.99C135.262 75.9756 135.42 75.9721 135.386 75.9269C135.292 75.8046 135.344 75.6204 134.911 75.6204C134.7 75.6204 134.515 75.5654 134.333 75.5156C134.3 75.4945 134.284 75.476 134.276 75.4581C134.289 75.4742 134.307 75.4918 134.333 75.5156C134.289 75.4121 134.382 75.3845 134.57 75.4129C134.655 75.4235 134.781 75.4572 134.803 75.3971C134.832 75.3165 134.677 75.32 134.562 75.3182L134.559 75.319L134.557 75.3172C134.557 75.2906 134.557 75.2667 134.557 75.2411C134.575 75.2338 134.599 75.2285 134.634 75.2243C134.742 75.2092 134.872 75.2303 134.957 75.1763C135.102 75.1444 135.246 75.1117 135.389 75.0798C135.303 74.9947 135.011 74.9841 135.136 74.8706C135.199 74.813 135.373 74.8352 135.462 74.8653C135.885 75.0035 135.74 74.7829 135.804 74.7234C135.856 74.6774 135.719 74.6038 135.753 74.5357C136.012 74.3583 135.929 74.2893 135.427 74.2609C135.427 74.2343 135.427 74.2068 135.427 74.1802C135.48 74.1687 135.535 74.1572 135.589 74.1448C135.583 74.1413 135.574 74.1378 135.566 74.1333C135.57 74.1333 135.571 74.1333 135.574 74.1333L135.589 74.1448C135.716 74.1368 135.854 74.1679 135.969 74.1234C136.046 74.1217 136.122 74.1182 136.2 74.1192C136.228 74.0084 136.252 73.8913 136.275 73.7735C136.424 73.7991 136.613 73.761 136.746 73.8097C136.909 73.8692 137.063 73.9109 137.196 73.7929C137.321 73.6821 137.271 73.4492 137.092 73.4135C136.852 73.3641 136.614 73.3083 136.367 73.2673C136.514 72.368 136.61 71.363 136.798 70.5485C135.466 70.8437 134.229 70.6194 132.973 69.5125C133.09 69.5125 133.181 69.4859 133.217 69.401C133.368 69.2741 133.616 69.3123 133.842 69.3105C134.149 69.2698 134.45 69.4487 134.793 69.3397C134.629 69.2103 134.284 69.2759 134.164 69.1332C134.138 69.1023 134.097 69.1892 134.079 69.2254C133.868 69.2254 133.798 69.135 133.681 69.0739C133.724 69.0277 133.75 68.9747 133.811 68.9365C134.055 68.7868 134.044 68.7637 133.649 68.7255C133.537 68.7142 133.42 68.7195 133.304 68.7167C133.126 68.6662 132.927 68.6787 132.734 68.6767L132.736 68.6778C132.565 68.6185 132.362 68.6617 132.18 68.6361C132.159 68.6298 132.138 68.6238 132.116 68.6185C132.089 68.5838 132.06 68.5537 132.032 68.5183C132.064 68.4874 132.17 68.4909 132.268 68.4811C132.461 68.4642 132.724 68.5137 132.81 68.3667C132.862 68.3559 132.914 68.3437 132.966 68.3321C133.249 68.3987 133.54 68.4127 133.842 68.3658C133.896 68.3783 133.984 68.3766 133.961 68.4236C133.941 68.4643 133.867 68.5095 134.013 68.527C134.117 68.5404 134.205 68.5067 134.24 68.4713C134.421 68.2949 134.12 68.3065 133.922 68.2808C133.624 68.1894 133.899 68.1761 134 68.1382C134.058 68.1238 134.117 68.1088 134.175 68.0955C134.167 67.9626 134.218 67.8083 133.842 67.7792C133.592 67.7614 133.377 67.7046 133.155 67.6551C133.13 67.5639 133.215 67.5363 133.386 67.5549C133.478 67.5657 133.621 67.6134 133.637 67.5345C133.654 67.4619 133.49 67.4619 133.371 67.4592C133.343 67.3866 133.436 67.3742 133.546 67.3725C133.665 67.3707 133.769 67.3564 133.842 67.3059C133.967 67.2828 134.091 67.259 134.211 67.2368C134.177 67.1394 133.88 67.1419 133.938 67.0356C133.979 66.9603 134.127 66.9904 134.237 66.9931C134.541 67.125 134.541 67.1251 134.637 66.9143C134.617 66.8362 134.598 66.7583 134.578 66.6802C134.773 66.596 134.812 66.5163 134.56 66.441C134.559 66.4312 134.556 66.4207 134.551 66.4099C134.495 66.379 134.442 66.3478 134.388 66.3159C134.45 66.3071 134.51 66.292 134.573 66.2902C134.72 66.2867 134.91 66.293 134.907 66.1991C134.905 66.1087 134.734 66.0775 134.557 66.082C134.452 66.0582 134.346 66.0333 134.242 66.0084C134.183 65.9625 133.932 65.9057 134.276 65.8826C134.557 65.864 134.837 65.8243 135.108 65.8986C135.253 65.9544 135.449 65.8994 135.596 65.9562C135.74 66.0112 135.891 66.0571 136.025 65.9464C136.146 65.8454 136.111 65.5859 135.953 65.5592C135.591 65.4997 135.266 65.3907 134.876 65.3714C134.439 65.3111 134.036 65.2154 133.663 65.085C133.633 65.0744 133.597 65.0629 133.561 65.0548C134.596 64.9815 135.63 64.7571 136.668 64.3424C136.717 63.7008 136.923 63.5483 137.014 62.9926C136.636 62.9866 136.315 62.905 135.995 62.0657C136.319 62.1137 136.289 61.5997 136.32 60.5185C136.728 60.359 137.183 60.3306 137.217 58.4094C137.9 57.8439 138.413 56.6971 138.935 54.9185C139.091 55.1569 139.206 55.0168 139.356 54.7349C139.366 54.7163 139.362 54.603 139.396 54.6251C139.432 54.6472 139.476 54.7482 139.515 54.8608C139.556 54.9726 139.655 54.914 139.699 54.8944C139.743 54.8751 139.814 54.8148 139.804 54.6473C139.795 54.4797 139.718 54.4754 139.702 54.3878C139.687 54.2998 139.751 54.4036 139.752 54.3611C139.062 53.4156 138.324 53.5768 137.624 52.8936C137.615 52.8971 138.085 52.617 137.981 52.5637C137.877 52.5107 137.238 53.0362 137.169 52.2891C138.971 52.1261 140.787 52.2218 142.596 52.0907C142.919 50.9934 142.661 50.7746 142.375 50.2119C141.862 50.443 141.41 50.7178 140.939 49.7112C140.116 49.9175 139.354 50.0868 138.558 49.1164C139.611 48.1779 140.667 47.8829 141.741 47.6312C142.892 46.5261 144.054 45.6504 145.183 44.2361C145.154 43.9153 145.113 43.6591 145.068 43.4297C145.234 43.2808 145.398 43.1301 145.562 42.9874C145.822 43.1301 145.981 42.6171 146.091 41.7743C146.312 41.3115 146.533 40.8491 146.756 40.3863C146.909 40.2278 146.943 39.7571 146.959 39.2325V39.2298L146.958 39.2291Z" fill="#013F25"/>
</svg>
