<svg width="89" height="52" viewBox="0 0 89 52" fill="none" xmlns="http://www.w3.org/2000/svg">
<path d="M3.11865 33.7881C3.25423 33.7855 3.38983 33.7824 3.52541 33.7793C4.47156 33.8134 5.4187 33.8466 6.36487 33.8806C6.3187 33.8967 6.27252 33.9137 6.22534 33.9303C6.1831 33.9455 6.10155 33.9657 6.1556 34.0049C6.25091 34.0075 6.30887 33.9578 6.41106 33.9718C6.66748 34.0006 6.68714 33.9971 6.66258 33.9295C6.65372 33.9168 6.62915 33.9029 6.64488 33.8901C6.70187 33.8923 6.75983 33.8946 6.81684 33.8963C6.95144 33.9246 7.02905 33.9723 7.08013 34.028C7.06047 34.0914 6.94849 34.0878 6.83352 34.0861C6.69499 34.084 6.56236 34.0883 6.50244 34.1525C6.4818 34.1734 6.45036 34.196 6.50733 34.2122C6.56727 34.2293 6.61441 34.2117 6.63998 34.1913C6.71562 34.1289 6.80995 34.1525 6.90721 34.1791C6.85808 34.1931 6.80798 34.2079 6.75885 34.2219C6.75295 34.2275 6.751 34.2331 6.75493 34.2393C6.72054 34.2754 6.61934 34.3069 6.69892 34.3502C6.39433 34.3584 6.08976 34.4051 5.78421 34.4928C5.72917 34.4557 5.67317 34.4279 5.61817 34.3837C5.59162 34.3628 5.5533 34.4339 5.52679 34.4893C5.49928 34.5473 5.47175 34.5993 5.44423 34.6469C5.35385 34.6504 5.26447 34.6582 5.17504 34.6644C5.13574 34.6608 5.0994 34.659 5.06795 34.6595C5.03553 34.5792 5.0041 34.4805 4.97363 34.3383C4.78597 34.6961 4.58849 34.9223 4.36447 34.7874C4.33107 34.7673 4.28979 34.7996 4.26425 34.7481C3.9921 34.1943 3.73273 34.1463 3.42913 34.6316C3.30631 34.8289 3.01942 34.8179 3.11865 33.7881ZM8.89682 18.4485L8.90171 18.4507C8.89779 18.4507 8.89484 18.4502 8.89091 18.4502L8.89682 18.4485ZM8.1383 14.4621C8.1835 14.455 8.23262 14.4533 8.28273 14.452L8.11866 14.4869C8.12259 14.4752 8.12356 14.4642 8.1383 14.4621ZM8.21297 14.0588C8.2169 14.0662 8.20904 14.0619 8.20806 14.0571L8.21397 14.0579L8.21297 14.0588ZM11.6694 9.73372L11.6675 9.73074L11.6694 9.73074L11.6694 9.73372ZM11.7687 9.28863C11.7854 9.19474 11.7834 9.11014 11.7687 9.0285C11.9613 9.02639 12.1538 9.02106 12.3464 9.02069C12.5567 9.32697 12.7836 9.33144 13.0106 9.36026C13.0725 9.30213 13.1128 9.16432 13.1521 9.01898C13.1373 9.19438 13.0833 9.26291 13.0479 9.37981C12.985 9.39293 12.9222 9.41691 12.8593 9.45142C12.6696 9.57661 12.4898 9.50165 12.3042 9.55311C12.2766 9.55831 12.2501 9.56796 12.2236 9.57884C12.1853 9.59938 12.1479 9.6089 12.1106 9.61422L12.1086 9.61373C12.0654 9.56573 12.0094 9.56226 11.9524 9.56263C11.9298 9.56177 11.9072 9.56312 11.8846 9.56485C11.8512 9.56659 11.8168 9.57094 11.7824 9.57749C11.7726 9.57922 11.7628 9.58231 11.753 9.58578C11.7382 9.49201 11.749 9.39068 11.7687 9.28863ZM16.7595 7.47457L16.7652 7.47679L16.7594 7.47851L16.7595 7.47457ZM21.3806 4.22864C21.3786 4.21949 21.3816 4.2269 21.3816 4.2269L21.3824 4.22777C21.3824 4.22777 21.3858 4.22914 21.3892 4.22951C21.4041 4.23261 21.4482 4.23607 21.4658 4.23261C21.4735 4.23087 21.4621 4.22914 21.4789 4.24089C21.4958 4.25227 21.5671 4.30248 21.5825 4.30854C21.598 4.3146 21.5861 4.31029 21.591 4.31202L21.5901 4.32202C21.5185 4.32029 21.4295 4.32562 21.364 4.31548C21.3544 4.31375 21.383 4.24138 21.3806 4.22864ZM22.619 4.14712C22.6224 4.14749 22.6299 4.14749 22.6513 4.14539C22.7731 4.13487 22.9647 4.04629 23.1085 4.05062C23.139 4.05149 23.1906 4.08255 23.224 4.08552C23.0084 4.12696 22.8118 4.17148 22.591 4.21342C22.3032 4.26748 21.9936 4.30064 21.7011 4.3182C21.6951 4.31857 21.6918 4.29975 21.6867 4.29629C21.9973 4.2452 22.309 4.19685 22.619 4.14712ZM23.9358 4.06684C23.9427 4.06721 23.9219 4.08255 23.9145 4.08342C23.9071 4.08465 23.8337 4.08119 23.8363 4.08032C23.8394 4.07859 23.9288 4.06634 23.9358 4.06684ZM40.9472 1.73468C40.9596 1.76301 40.8999 1.81237 40.88 1.81719C40.8602 1.82239 40.7883 1.78491 40.7641 1.75213C40.8135 1.73036 40.9128 1.65576 40.9472 1.73468ZM42.7524 1.09714C42.8531 1.08749 42.9532 1.0823 43.0537 1.07537C43.0732 1.11545 43.1015 1.15601 43.0914 1.16046C43.07 1.16962 42.6879 1.00287 42.7546 1.19535C42.7099 1.17791 42.6664 1.1617 42.6233 1.14599C42.6526 1.11977 42.6938 1.10233 42.7524 1.09714ZM43.5334 1.04432C43.4324 1.07883 43.3313 1.11061 43.2308 1.14908C43.1858 1.16603 43.1423 1.11681 43.1001 1.07228C43.2445 1.06226 43.3892 1.05261 43.5334 1.04432ZM45.721 1.24991C45.725 1.25114 45.7217 1.25165 45.7207 1.26909C45.7195 1.28616 45.681 1.42668 45.6762 1.40219C45.6714 1.37732 45.7013 1.24372 45.721 1.24991ZM45.9591 0.971458C45.9619 0.964531 45.9603 0.967133 45.9587 0.975422C45.9572 0.984573 45.9387 0.983711 45.9394 0.979382C45.9401 0.975426 45.9565 0.979378 45.9591 0.971458ZM53.9001 1.38784C53.983 1.40046 54.0666 1.40911 54.1505 1.41703C54.1045 1.50733 54.0547 1.57153 54.0061 1.64662C53.8787 1.50523 53.7717 1.52961 53.6431 1.64218C53.5813 1.47506 53.5038 1.45983 53.4313 1.36025C53.5877 1.35419 53.7438 1.37114 53.9001 1.38784ZM60.154 1.52355C60.2355 1.52788 60.3388 1.51476 60.4176 1.527C60.4226 1.52787 60.4301 1.54839 60.4069 1.58501C60.3835 1.62212 60.2724 1.59207 60.2342 1.58465C60.1961 1.57636 60.1459 1.53926 60.1202 1.53481C60.1126 1.53394 60.1435 1.52306 60.154 1.52355ZM60.6598 1.51698C61.1371 1.51351 61.6136 1.49421 62.0858 1.21193C62.1405 1.17914 62.1984 1.1862 62.2488 1.19226C62.2991 1.19882 62.3125 1.21316 62.3668 1.21193C62.421 1.21057 62.5317 1.23543 62.5841 1.25943C62.6365 1.28343 62.6565 1.29827 62.6996 1.29654C62.7429 1.29481 62.7547 1.27998 62.8016 1.2394C62.8484 1.19932 62.8953 1.10715 62.957 1.122C63.1016 1.15651 63.2127 1.37213 63.3698 1.41703C63.6113 1.48507 63.8872 1.43669 64.1386 1.42444C63.8887 1.54097 63.6962 1.61693 63.4285 1.63647C63.1607 1.65577 62.8235 1.69498 62.5417 1.76871C62.5174 1.7744 62.4909 1.75659 62.4659 1.73123C62.441 1.7055 62.416 1.69015 62.3871 1.6789C62.3134 1.64834 62.2399 1.58934 62.1634 1.58279C62.1501 1.58192 62.1328 1.58464 62.1178 1.57759C62.1027 1.57103 62.0925 1.52305 62.0758 1.52046C62.0592 1.51786 62.0396 1.575 62.0199 1.5745C61.839 1.5719 61.6568 1.56064 61.475 1.55321C61.2932 1.54616 61.1097 1.58192 60.9281 1.58724C60.8307 1.58934 60.7318 1.55187 60.6361 1.56102C60.6249 1.56189 60.5867 1.52217 60.5919 1.51908C60.5971 1.51648 60.6364 1.51698 60.6598 1.51698ZM72.1667 2.63362C72.6482 2.60096 73.1303 2.61051 73.6119 2.51538C73.6479 2.50846 73.681 2.45389 73.7174 2.45302C73.8122 2.45129 73.9072 2.48618 74.0035 2.52502C73.7848 2.54679 73.6207 2.55124 73.3894 2.58612C73.1581 2.62101 72.8766 2.7838 72.6277 2.83044C72.5501 2.84528 72.4579 2.85716 72.3718 2.86842C71.9881 2.91951 71.5941 2.94956 71.2086 2.98098C71.1781 2.9837 71.1515 2.9523 71.1214 2.94525C71.4682 2.77949 71.8156 2.65762 72.1667 2.63362ZM73.2621 2.1366C73.2545 2.14365 73.2473 2.15058 73.2621 2.1366V2.1366ZM84.8473 47.9986L84.8477 48L84.8456 48L84.8473 47.9986ZM85.0414 43.877L85.0407 43.8791L85.0373 43.8791L85.0414 43.877ZM83.7438 47.7486L83.7509 47.7473C83.7541 47.7478 83.757 47.7483 83.76 47.7486C83.7542 47.7486 83.75 47.7483 83.7438 47.7486ZM83.5763 48.14L83.5788 48.1391C83.5891 48.1391 83.5988 48.1388 83.6093 48.1388C83.5971 48.1388 83.5879 48.1396 83.5763 48.14ZM82.976 47.7849L82.9836 47.7849L82.9849 47.7861C83.0045 47.7932 82.9717 47.7918 82.976 47.7849ZM81.7851 49.1791L81.7794 49.1805C81.7827 49.1787 81.784 49.1769 81.7864 49.1751L81.7851 49.1791ZM53.8916 51.0203C53.8854 51.0251 53.8495 51.0186 53.8407 51.0186C53.832 51.0189 53.8359 51.0234 53.8382 51.0177C53.84 51.0132 53.8365 51.0189 53.8432 51.0132C53.8499 51.0076 53.8911 50.9714 53.8961 50.9744C53.9011 50.9766 53.8978 51.0154 53.8916 51.0203ZM49.7899 50.7859C49.7859 50.7898 49.7246 50.7741 49.7246 50.7741C49.7246 50.7741 49.7888 50.7379 49.7926 50.7375C49.7964 50.7366 49.7939 50.7815 49.7899 50.7859ZM40.9266 50.3582C40.929 50.3543 40.9345 50.3456 40.9345 50.3456L40.9443 50.3582C40.9443 50.3582 40.9297 50.3579 40.9266 50.3582ZM40.9294 50.5018L40.9251 50.4984C40.9251 50.4984 40.9295 50.4965 40.9316 50.4987L40.9294 50.5018ZM40.3023 50.3997L40.2963 50.3953C40.2998 50.3958 40.3066 50.3901 40.3092 50.395C40.3108 50.3976 40.3023 50.3997 40.3023 50.3997ZM30.6953 51.1472C30.8093 51.2397 30.9181 51.2376 31.0345 51.2048C30.9165 51.2533 30.81 51.262 30.6953 51.1472ZM21.7908 50.5533C21.759 50.5612 21.7292 50.6306 21.6972 50.6288C21.4958 50.6205 21.3117 50.5865 21.1361 50.2488C21.1348 50.2465 21.1338 50.2439 21.1338 50.2439C21.198 50.2505 21.2654 50.2431 21.3307 50.2448C21.8369 50.2591 22.3428 50.2779 22.8489 50.2941C22.4957 50.3644 22.1436 50.4639 21.7908 50.5533ZM20.6894 50.8958C20.6485 50.8763 20.6493 50.8627 20.598 50.847C20.5466 50.8321 20.4251 50.8081 20.369 50.8073C20.3128 50.8064 20.2897 50.8295 20.239 50.8535C20.2466 50.4639 20.3818 50.5594 20.4926 50.5576C20.6034 50.5564 20.7725 50.5761 20.886 50.4005C20.8222 50.5869 20.7262 50.6241 20.6894 50.8958ZM18.4712 49.7905L18.4739 49.7887L18.475 49.7926L18.4712 49.7905ZM8.53425 48.5123C8.73368 48.5075 8.93118 48.5106 9.12474 48.5381C8.93806 48.5315 8.73862 48.517 8.53425 48.5123ZM7.52523 44.4935C7.40831 44.4321 7.29236 44.3578 7.17739 44.2649C7.15088 44.2444 7.11255 44.3155 7.08604 44.3714C7.06442 44.4158 7.04279 44.4574 7.02118 44.4966C6.99172 44.4971 6.96224 44.4971 6.93275 44.4975C6.85023 44.58 6.78244 44.6477 6.7274 44.7126C6.65962 44.6577 6.59378 44.5072 6.53287 44.2204C6.34522 44.5774 6.14772 44.8039 5.92372 44.6686C5.89033 44.6485 5.84905 44.6817 5.82351 44.6294C5.55135 44.0764 5.29195 44.0284 4.98837 44.5137C4.86556 44.7105 4.57867 44.7 4.6779 43.6697C4.81348 43.6666 4.94905 43.664 5.08466 43.6614C6.11627 43.6985 7.1489 43.7343 8.18054 43.7714C8.1992 43.8822 8.2287 43.9852 8.268 44.0816C8.268 44.0904 8.268 44.0969 8.268 44.1065C8.28471 44.3243 8.33482 44.4303 8.3967 44.488C8.10588 44.4897 7.81507 44.4918 7.52523 44.4935ZM7.89855 48.549C7.76003 48.5726 7.62052 48.5533 7.48099 48.5289C7.6824 48.5421 7.88285 48.5381 8.08229 48.5298C8.02041 48.5358 7.9595 48.5389 7.89855 48.549ZM63.5886 1.96998C63.5826 2.01439 63.5785 2.04543 63.575 2.07252C63.4092 2.07252 63.2326 2.14798 63.0734 2.10864C62.9141 2.06943 62.7718 2.00227 62.6195 1.99572C62.6141 1.99522 62.6219 1.9586 62.6269 1.95686C62.9423 1.87831 63.2582 1.83033 63.5784 1.82551C63.5965 1.82501 63.6151 1.82587 63.633 1.82587C63.6124 1.86471 63.5965 1.91184 63.5886 1.96998ZM51.1537 50.1754C51.1562 50.1711 51.1626 50.1605 51.1626 50.1605L51.1721 50.1759C51.1721 50.1759 51.1569 50.1754 51.1537 50.1754ZM64.1759 50.11L64.1775 50.106L64.1788 50.11L64.1759 50.11ZM63.574 2.08204C63.5746 2.07722 63.575 2.07252 63.575 2.07252C63.5788 2.04407 63.5814 2.02541 63.5775 2.05547C63.5755 2.07031 63.575 2.07462 63.574 2.08204ZM63.6233 2.50226C63.4213 2.53071 63.2182 2.56214 63.0163 2.56906C62.9198 2.57216 62.8255 2.57562 62.7293 2.57958C62.7381 2.53022 62.7407 2.48879 62.7241 2.4565C63.0238 2.47048 63.3236 2.48618 63.6233 2.50226ZM62.6515 2.45563C62.648 2.45477 62.6257 2.45167 62.6257 2.45167C62.6257 2.45167 62.6521 2.45303 62.6571 2.45341L62.6543 2.45611C62.6543 2.45611 62.655 2.4565 62.6515 2.45563ZM9.40181 13.2196L9.39888 13.2213L9.39888 13.2192L9.40181 13.2196ZM81.0877 43.928C81.0765 43.9259 81.0666 43.9228 81.0608 43.9185C81.0661 43.918 81.0716 43.918 81.077 43.9176C81.0807 43.9211 81.0841 43.9245 81.0877 43.928ZM68.4296 50.113C68.3541 50.1676 68.2665 50.1702 68.1855 50.1143C68.2668 50.113 68.3483 50.1143 68.4296 50.113ZM73.8247 49.122C73.8308 49.1211 73.837 49.1206 73.8431 49.1197L73.845 49.1228C73.8385 49.1223 73.833 49.122 73.8247 49.122ZM75.2621 49.8006L75.2611 49.8014L75.2597 49.8009L75.2621 49.8006ZM73.8743 49.8223L73.8735 49.8189C73.8781 49.8184 73.8826 49.8184 73.8871 49.8184C73.8835 49.8201 73.8785 49.821 73.8743 49.8223ZM73.1907 49.297L73.1948 49.2948C73.1948 49.2948 73.2 49.2956 73.2026 49.2965C73.1987 49.2965 73.1946 49.2965 73.1907 49.297ZM72.5287 49.5483L72.5324 49.5483L72.5304 49.5487L72.5287 49.5483ZM69.8486 49.8381C69.8455 49.8381 69.8424 49.8381 69.8394 49.8386L69.8423 49.8363L69.8486 49.8381ZM70.6883 49.5304C70.6963 49.5296 70.7027 49.5299 70.7115 49.5287C70.704 49.5299 70.6964 49.5304 70.6888 49.5318L70.6883 49.5304ZM69.8823 49.547C69.8865 49.5466 69.8907 49.5456 69.895 49.5453L69.8966 49.5479C69.8918 49.5479 69.887 49.5475 69.8823 49.547ZM84.036 46.6275L84.0316 46.6289L84.0313 46.6272L84.036 46.6275ZM8.21985 14.5812L8.2228 14.5798L8.22769 14.5821C8.22477 14.5816 8.2228 14.5816 8.21985 14.5812ZM9.08447 19.7467L9.08642 19.7507C9.08642 19.7507 9.08448 19.7485 9.0825 19.7467L9.08447 19.7467ZM5.13674 34.7895C5.20551 34.7864 5.27329 34.7861 5.3401 34.79C5.27034 34.8638 5.20255 34.8738 5.13674 34.7895ZM6.46313 13.3532L6.46901 13.3492L6.46999 13.3501C6.46707 13.351 6.46313 13.3532 6.46313 13.3532ZM11.2892 7.5583C11.2794 7.55793 11.2587 7.56275 11.2676 7.56089C11.2755 7.55879 11.2883 7.55174 11.3236 7.55051C11.358 7.54878 11.4661 7.55262 11.5132 7.5614C11.4425 7.56004 11.358 7.56053 11.2892 7.5583ZM11.2558 7.57278C11.2558 7.56931 11.2558 7.57537 11.2578 7.5802C11.2617 7.59541 11.2548 7.58849 11.2558 7.57278ZM8.75238 8.80856C8.6502 8.81042 8.54898 8.80768 8.4468 8.80298C8.5932 8.80558 8.7396 8.80645 8.88601 8.80595C8.84178 8.80645 8.79658 8.80819 8.75238 8.80856ZM16.6456 6.95923C16.643 6.96356 16.625 6.96838 16.6262 6.96529C16.6274 6.96182 16.6598 6.91332 16.6598 6.91332C16.6598 6.91332 16.6482 6.9544 16.6456 6.95923ZM16.4705 5.27293C16.4705 5.27293 16.4674 5.28258 16.4721 5.2686C16.4767 5.25462 16.4713 5.27563 16.4713 5.27563L16.4705 5.27293ZM16.3917 4.97184C16.3919 4.96924 16.3917 4.96442 16.3917 4.96442C16.3914 4.97147 16.3917 4.97184 16.3917 4.97184ZM16.0259 6.29458C16.1091 6.15318 16.1699 5.93448 16.2482 5.7665C16.266 5.72815 16.263 5.66927 16.2522 5.64304C16.2495 5.63648 16.2471 5.63127 16.2471 5.63127C16.2471 5.63127 16.2456 5.6225 16.2471 5.6256C16.2806 5.69277 16.2699 5.74508 16.2405 5.81064C16.3709 6.27056 16.1284 6.2566 16.0259 6.29458ZM16.2471 5.63127C16.2448 5.62818 16.2468 5.6382 16.2435 5.63127C16.2403 5.62422 16.2471 5.63127 16.2471 5.63127ZM14.8579 6.17457C14.8205 6.20859 14.7226 6.30459 14.6898 6.32376C14.6569 6.34343 14.6375 6.3897 14.6248 6.37831C14.6122 6.36656 14.6036 6.27836 14.6037 6.24347C14.6038 6.04271 14.6759 6.19771 14.729 6.19153C14.782 6.18584 14.8603 6.1637 14.9083 6.0306C14.9104 6.14267 14.8954 6.14006 14.8579 6.17457ZM25.0928 2.29851C25.0928 2.29851 25.0733 2.30113 25.0611 2.30422C24.9271 2.33254 24.7827 2.34999 24.6522 2.36186C24.7588 2.34133 25.007 2.3068 25.0803 2.29851C25.1373 2.29196 25.0928 2.29851 25.0928 2.29851ZM18.6908 2.96404C18.6909 2.95785 18.691 2.95265 18.6909 2.95834C18.6909 2.96353 18.691 2.96269 18.691 2.96269L18.6908 2.96404ZM28.3493 0.687304C28.3497 0.690024 28.3505 0.694357 28.3514 0.688296L28.3523 0.689166L28.3491 0.689551L28.3493 0.687304ZM38.1927 0.680393C38.1977 0.679527 38.2095 0.678653 38.2095 0.678653C38.2054 0.679023 38.1579 0.685588 38.1927 0.680393ZM64.437 1.39613C64.4416 1.39823 64.4492 1.42841 64.4462 1.43138C64.4432 1.43447 64.4013 1.40256 64.4011 1.39699C64.4007 1.39168 64.4325 1.3939 64.437 1.39613ZM65.1359 0.762399C65.0301 0.641546 64.9286 0.63846 64.8173 0.657755C64.9308 0.622747 65.03 0.613218 65.1359 0.762399ZM74.7591 2.32599C74.7884 2.30286 74.7948 2.36532 74.8409 2.37448C74.8871 2.38363 75.0096 2.43472 75.062 2.44041C75.1144 2.44511 75.155 2.41988 75.1937 2.41369C75.2033 2.41196 75.1939 2.49967 75.1842 2.50016C75.0229 2.50363 74.8505 2.49794 74.6845 2.49707C74.7182 2.48012 74.7298 2.34912 74.7591 2.32599ZM84.7793 9.61251C85.0364 10.0707 85.283 10.0847 85.5676 9.61719C85.6902 9.41606 85.9767 9.41692 85.8809 10.4503C85.7454 10.4577 85.6099 10.4652 85.4745 10.4729C85.2481 10.4726 85.0217 10.4721 84.7953 10.4721C84.7105 10.1959 84.6191 9.93536 84.5425 9.63947C84.6207 9.62635 84.7001 9.6203 84.7793 9.61251ZM85.1818 44.5795C85.1663 44.5812 85.1509 44.5821 85.1359 44.5826C85.1341 44.5795 85.1326 44.5766 85.1306 44.5738C85.148 44.5757 85.1632 44.5774 85.1818 44.5795ZM85.4211 45.0596L85.4252 45.0596L85.4234 45.0648L85.4211 45.0596ZM85.4313 46.6808L85.4161 46.6864L85.413 46.6855C85.4191 46.6838 85.4252 46.6826 85.4313 46.6808ZM5.79895 37.4608L5.796 37.4568L5.79992 37.4563L5.79895 37.4608ZM0.146547 32.6827C-0.0774826 33.9263 -0.0656646 33.9652 0.329286 34.0289C0.745882 34.0966 1.15952 33.7404 1.57413 34.0259C1.97992 34.0394 2.3857 34.0534 2.79146 34.0674C2.79146 34.1581 2.79146 34.2493 2.79146 34.3401C2.45349 34.488 2.11452 34.6359 1.77554 34.7839C1.8345 35.0632 1.88165 35.1736 1.92784 35.1697C2.76101 35.088 3.59518 35.1959 4.42934 35.146C4.77908 35.1251 5.12885 35.1234 5.47961 35.1291C5.38531 35.2391 5.2792 35.2765 5.16621 35.3154C5.30964 36.2188 5.57887 36.677 5.88835 36.9475C5.88244 36.9489 5.87556 36.9501 5.86968 36.9515C5.88146 36.961 5.90114 36.9689 5.92275 36.9755C5.95614 37.0034 5.98956 37.0287 6.02393 37.0527L6.02295 37.054C5.98365 37.0823 5.87951 37.071 5.82448 37.0566C5.57001 36.9886 5.65747 37.0977 5.61915 37.1264C5.5877 37.1491 5.67022 37.1849 5.64961 37.2186C5.49336 37.3058 5.5435 37.3403 5.84708 37.3546C5.84708 37.3677 5.84708 37.3808 5.84708 37.394C5.81368 37.3996 5.78127 37.4057 5.74784 37.411C5.75278 37.4131 5.75767 37.4149 5.7616 37.4166L5.75768 37.4171L5.74784 37.411C5.66532 37.4153 5.57296 37.3953 5.50124 37.4271C5.38433 37.4813 5.50615 37.4982 5.5926 37.5153C5.70461 37.5371 5.82251 37.5528 5.93845 37.5716C5.93942 37.5908 5.94141 37.6153 5.87852 37.6134C5.72328 37.6099 5.57297 37.6405 5.41675 37.6222C5.32733 37.5633 5.15735 37.6087 5.04929 37.5764C4.95006 37.5471 4.85771 37.5266 4.77615 37.5847C4.70146 37.6393 4.73192 37.7539 4.84001 37.7719C5.04337 37.8055 5.24088 37.8469 5.46095 37.863C5.83627 37.8936 6.13397 37.9992 6.49358 38.0455C6.49555 38.1458 6.4985 38.2466 6.50142 38.3479C6.4975 38.3483 6.49455 38.3483 6.49062 38.3492C6.41988 38.3623 6.36978 38.3819 6.42971 38.416C6.40907 38.4339 6.36585 38.4351 6.32557 38.4382C6.1949 38.4151 6.15363 38.368 6.11826 38.3178C6.10057 38.2929 6.0544 38.2597 5.98856 38.2803C5.89916 38.3082 5.72525 38.2872 5.70854 38.3505C5.69972 38.3868 5.78813 38.4051 5.86968 38.4099C6.00919 38.4173 6.12218 38.4434 6.22238 38.481C6.22238 38.4862 6.22535 38.4914 6.23223 38.4963C6.21062 38.5111 6.17426 38.5116 6.13792 38.5125C5.93355 38.5168 5.73606 38.498 5.54545 38.4622C5.53662 38.4688 5.52776 38.4762 5.51894 38.4828C5.56411 38.5068 5.60931 38.5308 5.65451 38.5548C5.66531 38.5722 5.68791 38.5874 5.61717 38.5976C5.54643 38.6079 5.52186 38.6294 5.60735 38.649C5.67122 38.6494 5.73509 38.6499 5.79895 38.6503C6.03181 38.639 6.245 38.6782 6.46606 38.6944C6.48179 38.7001 6.49751 38.7039 6.51519 38.7079C6.01903 38.7293 5.52186 38.6197 5.0257 38.6464C4.77616 38.6608 4.50988 38.512 4.30454 39.167C3.73273 39.8351 3.14322 40.2968 2.54978 40.7136C2.39259 40.6428 2.29627 40.8964 2.22949 41.3114C2.09586 41.5388 1.96224 41.7665 1.82763 41.9939C1.73528 42.0725 1.71464 42.3043 1.7048 42.5626L1.7048 42.5643C1.48177 43.8085 1.49358 43.8468 1.88854 43.9105C2.30415 43.9778 2.71877 43.6221 3.13339 43.9071C3.53917 43.9211 3.94495 43.935 4.35071 43.949C4.35071 44.0402 4.35071 44.131 4.35071 44.2222C4.01274 44.3701 3.67377 44.518 3.3348 44.6651C3.39376 44.9448 3.44092 45.0556 3.48709 45.0508C4.32027 44.9697 5.15443 45.0775 5.98759 45.0282C6.17819 45.0164 6.36782 45.0173 6.55743 45.0147C6.48179 45.2647 6.48669 45.65 6.4975 46.5167C6.50143 46.8326 6.51716 47.1482 6.52699 47.4636C6.5368 47.5893 6.56136 47.674 6.59968 47.7194C6.47195 48.5446 6.71955 48.3687 6.8522 48.4128C6.93571 48.4407 7.01922 48.4608 7.10271 48.4778C6.91409 48.473 6.72643 48.5198 6.54072 48.71C6.40612 49.2105 6.47196 49.571 6.6223 49.8721C7.43777 49.9301 8.25128 49.8686 9.06678 49.756C10.0345 49.6221 11.0033 49.5195 11.9721 49.4653C11.9868 49.4793 12.0015 49.4938 12.0163 49.5012C12.0398 49.5125 12.0693 49.5247 12.091 49.5273C12.1135 49.5299 12.144 49.5299 12.1597 49.5352C12.1764 49.5401 12.1804 49.5696 12.1902 49.5724C12.5301 49.6447 12.8553 49.6897 13.1992 49.7286C13.2572 49.7351 13.3057 49.7377 13.3804 49.7443C14.0763 49.8049 14.6587 49.8446 15.3929 49.9192C16.4719 50.0288 17.6889 50.106 18.7947 50.1549C18.7826 50.1688 18.7175 50.2156 18.7154 50.2522C18.715 50.2591 18.7141 50.2609 18.7133 50.2631C18.7133 50.2631 18.7193 50.2662 18.7267 50.2776C18.7526 50.3151 18.8353 50.3604 18.8885 50.3451C18.9416 50.3303 19.0259 50.2976 19.0339 50.5511C19.1161 50.6664 19.1378 50.7375 19.2375 50.6933C19.4092 50.617 19.6024 50.5345 19.7817 50.6589C19.7817 50.6589 19.7812 50.6472 19.7832 50.6572C19.7886 50.6829 19.7874 50.6712 19.7979 50.7152C19.8654 50.9989 19.8788 50.9443 19.7002 50.9308C19.6153 50.9243 19.3901 51.0281 19.2874 51.1499C19.6081 51.259 19.9287 51.2568 20.2514 51.0992C20.2514 51.0992 20.2528 51.1014 20.2568 51.1054C20.268 51.1185 20.2471 51.0971 20.281 51.1372C20.315 51.1774 20.4001 51.3938 20.4361 51.475C20.4415 51.4867 20.4442 51.4947 20.4458 51.5002C20.4489 51.4937 20.4589 51.4876 20.4879 51.4937C20.5701 51.5108 20.8015 51.4122 20.9243 51.4305C21.0462 51.4488 21.1717 51.6683 21.2865 51.3616C21.2862 51.3645 21.2857 51.3671 21.2856 51.3707C21.285 51.3833 21.2982 51.3611 21.2928 51.3519C21.291 51.3488 21.2891 51.3528 21.2891 51.3528C21.2897 51.3419 21.2807 51.3219 21.3348 51.2603C21.394 51.1922 21.6253 51.1249 21.7276 51.0006C21.7276 51.0006 21.8276 50.9845 21.8364 50.9932C21.9873 51.1525 22.0551 51.0657 22.1935 50.8911C22.1935 50.8911 22.1955 50.8898 22.1978 50.8876C22.2108 50.8763 22.1644 50.9207 22.2243 50.8732C22.284 50.8256 22.4761 50.7069 22.5472 50.8274C22.6696 51.0338 22.7604 51.0172 22.8847 50.9989C23.0091 50.9801 23.1495 50.9661 23.2632 50.9321C23.4228 50.8846 23.1615 50.7275 23.3915 50.7758C23.6217 50.8252 23.8471 50.8535 24.0774 50.7213C24.0774 50.7213 24.0593 50.6851 24.0786 50.7196C24.0977 50.7536 24.237 50.8828 24.2634 50.84C24.4204 50.589 24.6625 50.6044 24.7948 50.5913C24.9272 50.5782 24.9164 50.6105 24.9843 50.3819C24.9854 50.3783 24.9822 50.3765 24.9822 50.3765C24.9802 50.3783 24.9582 50.3788 25.0346 50.2993C25.123 50.2068 25.3069 50.3561 25.4602 50.3656C27.0242 50.4656 28.6252 50.4347 30.2009 50.4621C30.3783 50.4651 30.5572 50.473 30.7336 50.4756C30.7132 50.5062 30.6931 50.5982 30.7128 50.6584C30.7323 50.7187 30.7753 50.7681 30.8023 50.7702C30.8294 50.7724 30.9763 50.7484 30.9112 50.8863C30.846 51.0246 30.7456 50.9806 30.6865 51.1088C30.6852 51.1114 30.685 51.1128 30.684 51.1149C30.6808 51.114 30.6761 51.114 30.6694 51.1158C30.6173 51.1268 30.4492 51.0072 30.3793 51.1599C30.3093 51.3135 30.3056 51.4279 30.4006 51.5505C30.5507 51.7438 30.7112 51.8215 30.8911 51.8516C30.9958 51.869 31.1726 52.0012 31.2281 51.5482C31.2419 51.4361 31.3318 51.4837 31.3711 51.4981C31.6068 51.5836 31.7879 51.6238 32.0038 51.2162C32.1613 50.919 32.3553 50.8561 32.5366 50.8138C32.7179 50.772 32.889 50.7646 33.067 50.7396C33.4183 50.6912 33.7673 50.6458 34.1178 50.5555C35.5675 50.5944 37.0233 50.6384 38.4707 50.662C38.6378 50.6646 38.8133 50.6646 38.966 50.6232C39.1188 50.5813 39.2435 50.5927 39.3832 50.5978C39.9543 50.6196 40.5157 50.662 41.0847 50.6489L41.0898 50.6481C41.381 50.6655 41.6723 50.6733 41.9637 50.6812C41.9813 50.7061 41.9988 50.7332 42.0172 50.7518C42.0637 50.8007 42.076 50.7676 42.0533 50.6838C42.3289 50.6907 42.6044 50.6973 42.8798 50.7104C45.7329 50.847 48.588 51.0058 51.4401 51.18C52.3729 51.2371 53.3014 51.2502 54.2318 51.3642C54.4795 51.3942 54.6825 51.6932 54.928 51.3533C54.9341 51.344 54.9374 51.3279 54.9617 51.3065C55.0628 51.2183 55.1692 51.3725 55.2839 51.3785C57.5963 51.5038 59.9176 51.5741 62.2339 51.6535C62.4127 51.6596 62.5876 51.6487 62.7705 51.6722C62.8043 51.6766 62.8178 51.6805 62.8725 51.6748C62.9271 51.6692 63.0232 51.6696 63.0984 51.6753C63.4711 51.7027 63.8537 51.7932 64.2305 51.769C64.8355 51.7298 65.4434 51.7176 66.048 51.7512C66.2339 51.7612 66.4036 51.6858 66.5889 51.6526C66.601 51.6504 66.6131 51.6504 66.6252 51.6487C66.706 51.8097 66.798 51.9018 66.8992 51.938C66.9223 51.8167 66.9335 51.7163 66.9366 51.6295C67.0557 51.629 67.1741 51.629 67.2922 51.6147C67.3368 51.7224 67.3963 51.8424 67.4764 52C67.5137 51.9057 67.4981 51.745 67.476 51.5749C67.6155 51.5325 67.7547 51.4584 67.8941 51.3139C67.8957 51.3122 67.8906 51.3162 67.8988 51.3219C67.907 51.3279 67.8741 51.3048 67.9189 51.3528C67.9636 51.4008 68.086 51.3637 68.1288 51.1839C68.1288 51.1839 68.1333 51.1865 68.1462 51.1783C68.1741 51.1612 68.2451 51.114 68.2831 51.1145C69.6098 51.1298 70.9341 51.1555 72.2606 51.1783C72.438 51.1813 72.6116 51.1917 72.7929 51.2071C72.8273 51.21 72.8399 51.2175 72.8943 51.2097C72.9488 51.2014 73.0444 51.2026 73.1189 51.2088C73.4879 51.2389 73.8731 51.3423 74.245 51.3135C74.8422 51.2673 75.466 51.234 76.0526 51.2894C76.233 51.3065 76.4448 51.1665 76.5891 51.1731C76.933 51.1878 77.6429 51.0557 77.8293 50.8321C78.012 50.6136 77.8652 50.7898 77.8718 50.782C77.8832 50.7689 77.8889 50.7615 77.8915 50.7584C77.8882 50.7627 77.8829 50.7702 77.8906 50.765L77.8924 50.7632C77.8924 50.7632 77.8956 50.7658 77.9139 50.7624C77.9588 50.7549 78.0697 50.7309 78.1175 50.6158C78.1188 50.6122 78.1169 50.6175 78.1189 50.6144C78.1207 50.6113 78.1187 50.6127 78.1212 50.6105C78.1229 50.6087 78.1179 50.6153 78.1213 50.6118C78.1279 50.6056 78.1299 50.6056 78.1425 50.5952C78.2142 50.5354 78.3419 50.4799 78.4048 50.4438C78.4678 50.4076 78.4539 50.2994 78.5052 50.295L78.506 50.2936C78.506 50.2936 78.507 50.2923 78.5065 50.2897C78.5063 50.2933 78.5059 50.298 78.506 50.2936C78.5061 50.2888 78.5064 50.288 78.5064 50.288C78.5064 50.288 78.5056 50.2862 78.5062 50.2828C78.5076 50.2736 78.5069 50.2814 78.5064 50.288C78.5064 50.288 78.5081 50.2963 78.5081 50.2509C78.5079 50.1842 78.5198 50.343 78.5195 50.12C78.5195 50.0925 78.5198 50.0668 78.5198 50.0437C79.0701 49.9694 79.615 49.8887 80.1468 49.794C80.6543 49.7032 81.1773 49.6233 81.641 49.4959C82.0969 49.4353 82.5029 49.3414 82.8717 49.2157C83.0031 49.1717 83.1271 49.1337 83.1645 49.0634C83.2011 49.0465 83.2378 49.0291 83.2744 49.0115C83.7549 49.0469 84.1419 48.9963 84.3874 48.8152C84.4484 48.796 84.4946 48.772 84.5364 48.7467C84.7588 48.7864 84.9809 48.8431 85.2034 48.9108C85.3627 48.6834 85.5251 48.5961 85.6464 48.1711C85.6115 48.1623 85.5455 48.1353 85.4681 48.1096C85.6748 48.0249 85.7318 47.9053 85.6063 47.7866C85.5886 47.7695 85.589 47.75 85.5811 47.7312C85.6738 47.729 85.7546 47.702 85.8523 47.7098C85.8523 47.6906 85.8523 47.6714 85.8523 47.6518C85.7849 47.6504 85.7636 47.6252 85.7196 47.6112C85.6995 47.5872 85.6699 47.5632 85.6613 47.5378C85.6384 47.4715 85.4973 47.4122 85.5408 47.3467C85.583 47.2834 85.5634 47.2342 85.4763 47.1839C85.5133 47.1521 85.6133 47.1198 85.48 47.0866C85.162 46.9797 85.1514 46.9378 85.4221 46.8588C85.5907 46.8008 85.5373 46.741 85.4313 46.6808C85.4117 46.6189 85.4435 46.5503 85.2806 46.5089C85.2653 46.5027 85.2499 46.497 85.2344 46.4905C85.2385 46.4813 85.2348 46.4656 85.2476 46.4635C85.5685 46.3945 85.6431 46.3133 85.5221 46.1597C85.4874 46.103 85.3689 46.069 85.2905 46.0248C85.2743 45.99 85.1484 45.9568 85.3099 45.9214C85.5187 45.876 85.5359 45.7909 85.3758 45.6977L85.3746 45.6972C85.3606 45.6932 85.3528 45.6884 85.3471 45.6832C85.3563 45.6875 85.3654 45.6923 85.3746 45.6972C85.314 45.6469 85.4717 45.6409 85.491 45.609C85.4613 45.5858 85.4142 45.5841 85.3663 45.5837C85.3116 45.5832 85.2529 45.5889 85.2029 45.5824C85.0824 45.5675 85.1093 45.5378 85.2901 45.4877C85.3456 45.4869 85.4013 45.485 85.4568 45.4855C85.5433 45.4864 85.652 45.4955 85.682 45.4536C85.7098 45.4149 85.5991 45.4035 85.5371 45.3878C85.3961 45.3515 85.4062 45.3153 85.5189 45.2747C85.8102 45.1831 85.8109 45.1678 85.5338 45.0945C85.5108 45.0884 85.5026 45.0731 85.4874 45.0627C85.5507 44.9793 85.6663 44.899 85.5664 44.8078C85.5516 44.8039 85.546 44.7974 85.5432 44.7908C85.5513 44.7956 85.5591 44.8012 85.5664 44.8078C85.5886 44.7708 85.5457 44.7428 85.5046 44.7109C85.4219 44.6463 85.3271 44.5778 85.4306 44.501C85.4935 44.4966 85.5435 44.4853 85.5653 44.4595C85.6457 44.3958 85.7311 44.3313 85.5498 44.2727C85.3724 44.2156 85.3999 44.1628 85.5585 44.11C85.5991 44.1082 85.6733 44.1213 85.6681 44.0965C85.6619 44.0664 85.5884 44.0537 85.5106 44.055C85.2162 43.9825 85.1949 43.9621 85.3318 43.8805C85.3788 43.8796 85.4339 43.8844 85.4711 43.8765C85.5598 43.8568 85.7285 43.8988 85.7344 43.8522C85.7403 43.8059 85.5618 43.8185 85.4676 43.8023C85.4554 43.7862 85.3947 43.764 85.4549 43.7548C85.6166 43.7286 85.5377 43.7037 85.4649 43.6771C85.4194 43.6601 85.3721 43.644 85.3255 43.6278C85.3242 43.5375 85.1672 43.5109 84.9898 43.4926L84.992 43.4912C84.8973 43.4624 84.9137 43.4104 84.8459 43.376C84.8121 43.3455 84.7834 43.3144 84.8011 43.28C84.8846 43.2376 84.8023 43.2115 84.7305 43.1984C84.4888 43.1547 84.5246 43.0845 84.6011 43.0081C84.6332 42.9815 84.7281 43.0055 84.7568 42.9762C84.853 42.9282 84.8486 42.8811 84.7539 42.8336C84.6979 42.7746 84.7545 42.7017 84.6142 42.6537C84.5843 42.642 84.5545 42.6297 84.5246 42.618C84.5254 42.6119 84.5203 42.6014 84.5277 42.5997C84.865 42.5189 84.9458 42.4225 84.8004 42.2719C84.788 42.265 84.7755 42.2584 84.7631 42.2518C84.7343 42.22 84.6737 42.1978 84.6144 42.1755C84.6288 42.1367 84.4231 42.1087 84.5823 42.0616C84.8051 41.9962 84.8282 41.9241 84.6638 41.8259C84.6603 41.8233 84.6577 41.8207 84.6554 41.8181C84.6753 41.8019 84.6949 41.7845 84.7147 41.7688C84.7459 41.7583 84.7773 41.7479 84.7798 41.7303C84.7738 41.7294 84.7684 41.7291 84.7626 41.7282C84.8105 41.6894 84.8585 41.6522 84.9065 41.6148C84.9366 41.6108 84.9614 41.6029 84.9742 41.5863C84.981 41.5768 84.9803 41.5694 84.9746 41.5628C85.0662 41.4921 85.1577 41.4206 85.2495 41.3524C85.4068 41.4175 85.5025 41.1613 85.5672 40.7437C85.7003 40.5115 85.8336 40.2794 85.9667 40.0467C86.0589 39.9656 86.0792 39.7334 86.0874 39.4746L86.0874 39.4734C86.3069 38.2219 86.2944 38.1834 85.8991 38.1332C85.4831 38.08 85.0699 38.4496 84.6542 38.179C84.3645 38.179 84.0749 38.179 83.7852 38.179C83.8036 38.1209 83.8199 38.052 83.8351 37.9778C83.8598 37.9844 83.8887 37.984 83.9215 37.973C83.9248 37.8761 83.9279 37.7867 83.931 37.6951C83.9369 37.6845 83.9428 37.6745 83.9487 37.6645C84.1158 37.5856 84.2831 37.5065 84.4503 37.428C84.4246 37.3085 84.4014 37.2251 84.3794 37.1644C84.4104 37.136 84.442 37.1107 84.4789 37.1103C84.4775 37.1514 84.4761 37.1923 84.4748 37.2338C84.4748 37.2338 84.472 37.236 84.4709 37.2391C84.4378 37.2822 84.4558 37.2945 84.4859 37.3006C84.5743 37.2403 84.6516 37.2539 84.7339 37.2788C84.8903 37.3263 85.0523 37.2923 85.2112 37.1378C85.4661 37.04 85.719 36.9323 85.9319 36.6844C85.9349 36.6054 85.9104 36.6019 85.8878 36.598C85.8377 36.5888 85.7582 36.6207 85.7754 36.5028C85.786 36.4308 85.8476 36.4037 85.897 36.3811C86.0978 36.2891 86.2984 36.1952 86.499 36.1023C86.6471 36.0634 86.651 36.0551 86.6078 35.881C86.7167 35.6824 86.7188 35.6284 86.6252 35.4582C86.5469 35.3159 86.5563 35.2517 86.681 35.1645C86.7416 35.1221 86.8084 35.1064 86.8724 35.0785C86.9646 35.0501 87.0681 35.0937 87.1797 34.8834C87.0217 34.9192 86.9026 34.9466 86.7835 34.9732C86.7881 34.9789 86.7927 34.9846 86.7973 34.9898C86.7912 34.9872 86.7861 34.982 86.7835 34.9732C86.6606 35.0047 86.5677 34.9043 86.4487 34.9183C86.2464 34.9615 86.044 35.0043 85.8416 35.0483C85.8168 35.0535 85.8108 35.0452 85.8251 35.0157C85.8566 34.9375 85.93 35.0055 85.9616 34.9118C85.9048 34.8738 85.8261 34.9598 85.7608 34.8729C85.9638 34.8515 86.1323 34.7132 86.3595 34.6461C85.9573 34.6002 85.5981 34.8781 85.2038 34.9078C85.3173 34.8289 85.4066 34.8079 85.4388 34.6735C85.8348 34.5156 86.2314 34.3623 86.6269 34.1948C86.7424 34.1459 86.8537 34.0517 86.9469 33.8897C86.2752 34.0437 85.6057 34.1965 84.9378 34.3179C84.9758 34.3017 85.0132 34.2782 85.057 34.2362C85.0591 34.234 85.0665 34.2463 85.0436 34.2136C85.0304 34.1943 84.9953 34.1668 84.9584 34.1477C85.4728 33.9892 85.9884 33.8706 86.5002 33.6235C86.2859 33.672 86.0716 33.7204 85.8573 33.7693C85.7529 33.6855 85.6263 33.7846 85.5112 33.7881C85.4593 33.7898 85.3847 33.8552 85.3604 33.7763C85.3225 33.6536 85.2449 33.7209 85.1795 33.7296C85.0847 33.7413 84.9858 33.7907 84.8957 33.7615C84.8256 33.7383 84.7562 33.7579 84.6865 33.7915C84.6519 33.7401 84.6214 33.7261 84.5549 33.7518L84.5524 33.7527C84.5356 33.7444 84.5155 33.7409 84.4938 33.7409C84.5444 33.6738 84.6021 33.6781 84.6582 33.6615C85.1421 33.5188 85.6258 33.3756 86.1342 33.226C85.8912 33.1326 85.6541 33.1483 85.4128 33.2054C85.1444 33.2688 84.88 33.2954 84.6153 33.3168C84.567 33.2722 84.5121 33.2631 84.4546 33.2662C84.3792 33.2434 84.3036 33.2256 84.2277 33.2142C84.236 33.0955 84.2459 32.9789 84.2586 32.8643C84.3637 32.8551 84.4688 32.8446 84.5739 32.8363C84.561 32.8643 84.5466 32.8865 84.5344 32.9166C84.6603 32.9589 84.7961 33.0466 84.9093 32.842C84.9708 32.7307 84.8275 32.6587 84.8089 32.667C84.7903 32.6752 84.7776 32.6535 84.7605 32.6621C84.9178 32.5316 85.0654 32.6028 85.2267 32.643C85.3545 32.3719 85.5425 32.581 85.6726 32.5793C85.9911 32.5744 86.2714 32.4496 86.5797 32.3505C86.3773 32.2825 86.1793 32.3087 85.9758 32.2991C86.0174 32.1851 86.0287 32.0686 86.0981 32.0599C86.1675 32.0508 86.2619 32.0905 86.3242 31.8906C86.1623 31.9015 86.0003 31.8631 85.839 31.7915C86.0869 31.6397 86.3231 31.5804 86.5746 31.679C86.8227 31.5598 87.0707 31.5258 87.3213 31.5058C87.4933 31.2185 87.661 31.2745 87.8494 31.3133C87.95 31.1322 88.0502 30.9912 88.1632 30.9071C88.0889 30.8895 88.0146 30.8878 87.9407 30.8546C88.074 30.5623 88.2078 30.4532 88.3677 30.399C88.3411 30.4536 88.315 30.5055 88.2862 30.5509C88.456 30.554 88.572 30.375 88.7512 30.3161C88.8545 30.2821 88.9249 30.2973 88.6876 30.2131C88.3117 30.0796 87.8191 30.0783 87.4252 29.7392C87.4679 29.7471 87.5185 29.7489 87.5637 29.7532C87.5677 29.7537 87.5434 29.7397 87.5571 29.7409C87.5707 29.7423 87.6483 29.758 87.6642 29.7615C87.6801 29.7649 87.6569 29.7623 87.6623 29.7641C87.9 29.7942 88.1382 29.8055 88.3757 29.7388C88.3584 29.7326 88.3281 29.7209 88.3141 29.7187C88.3002 29.7169 88.3176 29.7362 88.3042 29.7331C88.2907 29.73 88.2701 29.7057 88.252 29.703C88.0996 29.6829 87.9488 29.6817 87.7998 29.5564C87.8796 29.5603 87.9594 29.5669 88.039 29.5755C87.8644 29.5393 87.6857 29.5061 87.5133 29.4778C87.5078 29.4764 87.532 29.4861 87.5269 29.4857C87.4759 29.4818 87.4108 29.4875 87.3613 29.4764C87.3538 29.4747 87.3495 29.4504 87.3702 29.4525C87.1003 29.4495 86.8267 29.4398 86.5568 29.4198C86.5538 29.4193 86.5464 29.4127 86.5464 29.4127C86.5001 29.4001 86.3408 29.4024 86.3168 29.4001C85.7634 29.3508 85.2529 29.2701 84.7149 29.1873C84.7499 28.9951 84.8059 28.8648 84.836 28.664C84.7044 28.5924 84.6101 28.5003 84.5377 28.1189C84.5959 28.197 84.6344 28.0207 84.6506 27.9374C84.6529 27.926 84.6533 27.9239 84.6544 27.9182C84.6527 27.9142 84.6522 27.9147 84.6522 27.9147L84.6556 27.9116C84.6583 27.8981 84.6585 27.9007 84.6593 27.9085C84.6983 27.8776 84.6766 27.9068 84.7458 27.8894C85.1224 27.7951 85.5769 27.7214 85.961 27.6794C86.0556 27.6689 86.1486 27.6266 86.213 27.6101C86.463 27.549 86.6673 27.5123 86.908 27.4591C86.9729 27.3216 87.1059 27.3766 87.1718 27.363C87.2377 27.3495 87.2985 27.3225 87.3461 27.3142C87.6659 27.2575 87.965 27.1375 88.2761 27.0022C88.4072 26.9445 88.5371 26.9411 88.6646 26.8403C88.6726 26.8337 88.6652 26.8617 88.7102 26.8088C88.7552 26.756 88.7603 26.7211 88.6532 26.6914C88.546 26.6617 88.3845 26.4969 88.2588 26.4484C88.219 26.4335 88.167 26.4192 88.1209 26.4148C87.9911 26.4021 87.8543 26.3895 87.7228 26.3586C87.6987 26.3529 87.6741 26.3424 87.6493 26.3367C87.6244 26.3315 87.5985 26.3253 87.573 26.3215C87.5474 26.3179 87.5208 26.314 87.4949 26.3118C87.388 26.3035 87.2846 26.3127 87.1759 26.3297C87.1759 26.3297 87.1724 26.3275 87.1685 26.3249C87.1511 26.3149 87.0808 26.2738 87.0531 26.2624C87.0253 26.2512 87.0134 26.2464 86.9827 26.2389C86.9522 26.2315 86.9112 26.2255 86.8757 26.2198C86.8401 26.2141 86.8424 26.2162 86.7931 26.2093C86.7437 26.2023 86.6606 26.201 86.5936 26.1879C86.163 26.1036 85.7222 26.0644 85.2881 26.0478C85.4 25.7733 85.4838 25.4417 85.568 25.0799C85.5918 25.2335 85.6558 25.1449 85.682 25.0999C85.708 25.0545 85.6835 25.0402 85.704 25.0402C85.7243 25.0402 85.7254 25.1244 85.7365 25.1724C85.7475 25.2204 85.775 25.2287 85.7922 25.2247C85.8096 25.2209 85.8314 25.179 85.8245 25.1301C85.8177 25.0812 85.795 25.0301 85.795 24.9918C85.7952 24.9538 85.8158 24.9991 85.811 24.9847C85.6403 24.4654 85.4084 24.3297 85.2205 23.8994C85.2265 23.9173 85.3673 23.885 85.3268 23.8144C85.2864 23.7433 85.0898 23.8807 85.1025 23.5757C85.6342 23.7563 86.1539 24.1674 86.6797 24.4863C86.7739 24.0806 86.7168 23.8973 86.6336 23.5303C86.4598 23.4975 86.3213 23.4548 86.2129 22.983C85.9642 22.9014 85.7479 22.8407 85.5487 22.3214C85.8583 22.0383 86.1536 22.0618 86.4719 22.1434C86.826 21.8401 87.186 21.6556 87.5285 21.2278C87.5074 20.5079 87.367 20.1906 87.1828 19.8341C86.7241 19.8026 86.2814 19.7341 85.8251 20.0007C85.7307 19.4993 85.488 19.8449 85.3806 19.5185C85.2733 19.1925 85.488 18.8853 85.3567 18.6039C85.2853 18.7658 85.2008 18.719 85.1155 18.6955C84.9719 17.8921 84.9861 17.0106 84.9106 16.1391C85.1529 16.2993 85.3962 16.3355 85.6427 16.3791C85.7155 15.9751 85.8173 15.8929 85.956 15.8703C85.9511 15.7172 85.9411 15.5805 85.9285 15.4518C86.0515 15.4007 86.1688 15.2699 86.2702 14.9399C86.8394 14.2522 87.4274 13.7708 88.0196 13.3335C88.1768 13.3986 88.2724 13.1419 88.3373 12.7248C88.4704 12.4931 88.6036 12.2605 88.7367 12.0279C88.8289 11.9468 88.8493 11.7141 88.8575 11.4553L88.8575 11.4535C89.0768 10.2024 89.0644 10.1641 88.6691 10.1139C88.2532 10.061 87.84 10.4303 87.4244 10.1596C87.0186 10.1596 86.6128 10.1596 86.207 10.1596C86.2068 10.0689 86.2065 9.97765 86.2063 9.88649C86.5443 9.72716 86.8823 9.56795 87.2203 9.40825C87.1608 9.13153 87.1131 9.02196 87.0669 9.02814C86.5953 9.09049 86.1234 9.09319 85.6515 9.09702C85.6824 9.0635 85.7121 9.02504 85.7447 9.00067C85.6705 8.98273 85.5961 8.98138 85.5222 8.94785C85.6557 8.65592 85.7894 8.5468 85.9493 8.49262C85.9228 8.54767 85.8966 8.59914 85.8679 8.64454C86.0375 8.64714 86.1537 8.46863 86.333 8.40975C86.4363 8.37573 86.5067 8.39095 86.2693 8.30671C85.8933 8.17274 85.4007 8.17149 85.0069 7.8328C85.0494 7.84072 85.1 7.84196 85.1452 7.84592C85.1492 7.84642 85.1251 7.83279 85.1386 7.83416C85.1523 7.83539 85.2299 7.8511 85.2457 7.85469C85.2616 7.85815 85.2385 7.85557 85.244 7.8573C85.4816 7.88785 85.7197 7.89924 85.9574 7.83244C85.9402 7.82626 85.9098 7.81449 85.8958 7.81227C85.8818 7.81017 85.8993 7.82935 85.8858 7.82626C85.8725 7.82366 85.8517 7.79928 85.8337 7.79656C85.6813 7.77652 85.5305 7.77478 85.3814 7.6496C85.4612 7.65393 85.5411 7.66048 85.6207 7.66914C85.4461 7.63301 85.2672 7.59974 85.0948 7.57104C85.0893 7.56969 85.1136 7.57935 85.1085 7.57885C85.0576 7.57452 84.9924 7.5802 84.9428 7.57018C84.9353 7.56832 84.9309 7.54087 84.9519 7.54916C84.9039 7.49807 84.8539 7.60679 84.8067 7.52688C84.5821 7.14897 84.4419 6.68425 84.1718 6.46344C83.8266 6.18152 83.4021 6.24002 83.0353 6.06288C82.9548 6.02441 82.8645 5.9481 82.7866 5.88525C83.028 5.83503 83.3107 5.80102 83.5419 5.77269C83.6388 5.76131 83.7299 5.71987 83.7946 5.70367C84.0451 5.64169 84.2486 5.60556 84.4895 5.55225C84.5544 5.41482 84.6875 5.46936 84.7533 5.45575C84.8191 5.44227 84.88 5.41567 84.9275 5.40739C85.2473 5.34974 85.5464 5.23026 85.8575 5.09444C85.9886 5.03728 86.118 5.03345 86.2459 4.93264C86.2538 4.92608 86.2467 4.95354 86.2915 4.90071C86.3363 4.84839 86.3416 4.81349 86.2344 4.7838C86.1272 4.75362 85.9658 4.58911 85.8402 4.54111C85.8004 4.5259 85.7484 4.51192 85.7022 4.5071C85.5724 4.49448 85.4357 4.48174 85.3042 4.45131C85.28 4.44562 85.2555 4.4351 85.2307 4.4299C85.2058 4.42458 85.1801 4.41852 85.1546 4.41456C85.1289 4.4106 85.1023 4.40714 85.0764 4.40504C84.9695 4.39675 84.866 4.4059 84.7574 4.42285C84.7574 4.42285 84.754 4.42074 84.7501 4.41802C84.7327 4.408 84.6624 4.36708 84.6346 4.3552C84.6068 4.34432 84.5949 4.3391 84.5644 4.33205C84.5338 4.32463 84.4929 4.31818 84.4573 4.31287C84.4217 4.30717 84.4241 4.30941 84.3746 4.30248C84.3251 4.29629 84.2427 4.29372 84.1753 4.2811C83.3675 4.13488 82.551 4.14452 81.7395 4.08811C81.6544 4.08205 81.5698 4.0786 81.4836 4.07291C81.4561 4.07118 81.4327 4.0703 81.4007 4.06808C81.3688 4.06597 81.317 4.06288 81.2822 4.06066C81.2025 4.05497 81.0798 4.04631 81.0128 4.04099C80.9458 4.0358 80.8976 4.03145 80.853 4.02836C80.8085 4.02526 80.8005 4.02441 80.7691 4.02181C80.6576 4.01229 80.5953 4.00783 80.4743 3.9983C80.3531 3.98952 80.1869 3.97728 80.0522 3.96515C79.9829 3.9581 79.9064 3.95241 79.8331 3.94759C78.7477 3.88004 77.6592 3.78666 76.5732 3.71244C76.4012 3.70019 76.2258 3.68535 76.0562 3.6762C76.002 3.67323 75.937 3.66963 75.8935 3.66704C75.8499 3.66444 75.8457 3.6648 75.8085 3.66443C75.7714 3.66393 75.7308 3.671 75.692 3.67409C75.5513 3.68449 75.4112 3.67581 75.2698 3.66839C75.3077 3.65045 75.2845 3.59282 75.2683 3.59159C75.2521 3.59072 75.2725 3.66098 75.2574 3.66704C75.2424 3.67409 75.2282 3.6736 75.2041 3.67409C75.1799 3.67446 75.1428 3.70811 75.1116 3.70069C74.947 3.66222 74.7784 3.63043 74.612 3.64701C74.5571 3.6527 74.5025 3.64439 74.448 3.6356C74.5604 3.61643 74.6786 3.57933 74.7892 3.5693C74.8212 3.56621 74.8491 3.56498 74.8742 3.55583C74.8994 3.54754 74.8926 3.53528 74.9189 3.55099C74.9452 3.56621 74.9722 3.59282 75.0087 3.63525C75.045 3.67706 75.1932 3.64525 75.1941 3.5531C75.1941 3.54048 75.1941 3.53702 75.1942 3.52997C75.2 3.51909 75.1931 3.52217 75.2041 3.51908C75.2152 3.51698 75.2308 3.49422 75.2495 3.492C75.3343 3.4842 75.4176 3.45278 75.5069 3.45885C75.6833 3.47023 75.8687 3.5108 76.0444 3.39081C76.7792 3.32365 77.5136 3.28567 78.2484 3.26291C78.3388 3.06003 78.4525 3.08538 78.5038 2.74062C77.5393 2.66591 76.5808 2.57128 75.6124 2.51797C75.589 2.25795 75.6492 2.37707 75.7665 2.39847C75.8314 2.41022 76.1035 2.34133 76.1999 2.23222C75.881 2.11569 75.5476 2.12485 75.2228 2.16629C75.2228 2.16629 75.2211 2.16321 75.2186 2.15851C75.21 2.14194 75.2281 2.17593 75.2037 2.1262C75.1792 2.07635 75.1176 1.849 75.0973 1.77132C75.0949 1.76266 75.094 1.75659 75.0935 1.75177C75.0867 1.75523 75.0733 1.75659 75.0455 1.74868C74.9499 1.72035 74.7301 1.79359 74.603 1.75747C74.4764 1.72122 74.3513 1.47467 74.2337 1.78491C74.234 1.78145 74.2342 1.77923 74.2347 1.7744C74.2367 1.75832 74.2221 1.78059 74.2281 1.79098C74.23 1.79444 74.2313 1.79185 74.2313 1.79185C74.2282 1.80583 74.2291 1.83119 74.1955 1.8761C74.0771 2.03369 73.8909 2.03456 73.7425 2.08428C73.7425 2.08428 73.6426 2.09083 73.6359 2.07994C73.5211 1.88746 73.3579 2.04977 73.2785 2.12176C73.2719 2.12794 73.2676 2.13178 73.2639 2.13488C73.2755 2.12399 73.2705 2.12919 73.2639 2.13488C73.2639 2.13488 73.2621 2.13622 73.2593 2.13881C73.2456 2.15106 73.2943 2.10346 73.2345 2.15145C73.1747 2.19858 72.9669 2.31252 72.9023 2.15851C72.7912 1.89317 72.71 1.93633 72.5918 1.94461C72.4736 1.9529 72.3195 1.93498 72.22 1.96467C72.0624 2.01143 72.346 2.20687 72.0957 2.11348C71.8455 2.02008 71.644 1.99744 71.4006 2.06423L71.4011 2.06684C71.3798 2.03493 71.268 1.89353 71.2407 1.92582C71.0767 2.12139 70.8323 2.09911 70.6947 2.09862C70.5572 2.09775 70.5664 2.09294 70.4827 2.2806C70.4761 2.29544 70.4856 2.2863 70.4833 2.28939C70.3664 2.45478 70.2587 2.46219 70.1352 2.47704C70.0981 2.481 70.049 2.48532 70.0152 2.52502C69.8443 2.72492 69.8967 2.8401 70.0616 2.90071C70.1635 2.93832 70.3651 2.78468 70.4654 3.04211C69.6709 3.09282 68.8682 3.14253 68.0724 3.16344C68.0139 3.1648 67.9501 3.17434 67.9002 3.14602C67.8802 3.13463 67.9068 2.97357 67.8951 2.93918C67.3197 2.87844 66.7412 2.81436 66.1648 2.74892C66.1848 2.7358 66.2053 2.72048 66.2252 2.707C66.0531 2.67867 65.8745 2.68298 65.7038 2.65935C65.7117 2.65935 65.7149 2.70526 65.7239 2.70093C65.4764 2.68126 65.228 2.65899 64.9817 2.64761C64.9575 2.86669 64.7924 2.85358 64.7168 2.84925C64.6414 2.84492 64.5065 2.92174 64.429 2.85803C64.3649 2.80521 64.3233 2.61534 64.2605 2.55337C64.4944 2.57303 64.7308 2.60272 64.962 2.57909C64.9908 2.57612 65.0303 2.56558 65.0462 2.56558C65.0494 2.56608 65.0515 2.5661 65.0515 2.5661C65.1566 2.64366 65.2547 2.64935 65.3641 2.65022C65.4742 2.65071 65.5908 2.66034 65.7038 2.65935C65.6727 2.65502 65.6535 2.47358 65.6418 2.44512C65.6301 2.41766 65.6369 2.44821 65.6328 2.44041C65.6295 2.43336 65.6318 2.4404 65.6308 2.43768C65.6219 2.41987 65.6227 2.3579 65.6173 2.34169C65.5665 2.19201 65.3569 2.13487 65.3323 2.14143C65.3246 2.14316 65.3197 2.14453 65.316 2.14539C65.3131 2.14502 65.3128 2.14366 65.3128 2.14366C65.2399 2.01229 65.0877 2.08861 65.0384 2.13005C65.0351 2.13265 65.0335 2.13449 65.031 2.13572C65.031 2.13572 65.0289 2.13748 65.0253 2.14007C65.0213 2.14366 65.0241 2.13881 65.0241 2.13881C64.9565 2.09601 64.8961 2.01401 64.8372 2.15713C64.8352 2.16233 64.836 2.15887 64.836 2.15887L64.8355 2.15764C64.8355 2.15764 64.8325 2.15665 64.8283 2.15455C64.8139 2.14799 64.7679 2.14489 64.7532 2.14229C64.7496 2.14192 64.7476 2.14229 64.7476 2.14229C64.7476 2.14229 64.7465 2.13882 64.7409 2.13226C64.7247 2.11223 64.661 2.0411 64.6438 2.04765C64.6265 2.05458 64.6412 2.05062 64.6404 2.04493C64.6397 2.04023 64.6395 2.04802 64.6404 2.04493C64.6417 2.03974 64.6421 2.03664 64.6421 2.03664C64.6421 2.03664 64.6429 2.03715 64.6504 2.01661C64.6663 1.97208 64.7192 1.80892 64.6511 1.79494C64.7153 1.7775 64.7772 1.77354 64.8405 1.76092C64.6664 1.74435 64.4953 1.70846 64.3239 1.60678C64.397 1.62991 64.4639 1.65355 64.5352 1.58378C64.4606 1.56535 64.3866 1.54753 64.313 1.5025C64.4306 1.50955 64.55 1.54493 64.666 1.551C64.6334 1.54877 64.6292 1.42754 64.6786 1.40354C64.7279 1.37954 64.8273 1.4205 64.8883 1.42965C64.9495 1.43968 65.0229 1.4284 65.0387 1.24075C65.0447 1.16962 64.9934 1.12114 64.9707 1.11854C64.9479 1.11632 64.808 1.08404 64.8838 0.993738C64.9595 0.903436 65.126 1.01636 65.1433 0.816084C65.1444 0.803835 65.1443 0.802118 65.1448 0.794699C65.1524 0.776388 65.1528 0.795198 65.1646 0.80089C65.2437 0.839731 65.3691 0.892542 65.441 0.810404C65.5128 0.729257 65.5732 0.605299 65.4888 0.431619C65.3558 0.158487 65.224 0.11001 65.047 0.0423449C64.9439 0.00263767 64.7696 -0.101645 64.6867 0.296797C64.666 0.395387 64.582 0.343057 64.542 0.325121C64.3023 0.218736 64.1181 0.203897 63.8854 0.517603C63.7157 0.747194 63.4985 0.817461 63.3148 0.836137C63.131 0.85494 62.9665 0.840101 62.7893 0.840101C62.2731 0.839731 61.7913 0.802972 61.2763 1.15428C61.2218 1.19189 61.1262 1.1919 61.0506 1.18968C60.7628 1.18263 60.4598 1.20798 60.1704 1.0588C60.0991 1.02206 60.0172 1.06572 59.95 1.09405C59.6716 1.21058 59.3498 1.24645 59.0868 1.28876C58.8938 1.31968 58.7966 1.07537 58.6201 1.06621C58.4437 1.05743 58.2671 1.20576 58.0894 1.10804C58.0295 1.07538 57.9535 1.06918 57.9003 0.99719C57.8519 0.931752 57.8364 0.679021 57.7941 0.58006C57.777 0.792951 57.8097 0.895139 57.8658 1.00634C57.6775 1.00634 57.4891 1.07092 57.3048 1.15998C57.2745 1.17433 57.2412 1.20141 57.2186 1.19967C57.1959 1.19832 57.1991 1.11062 57.1822 1.10888C57.1651 1.10715 57.1635 1.21366 57.1456 1.22331C57.0354 1.28256 56.904 1.2254 56.7906 1.17703C56.8094 1.17308 56.8284 1.16741 56.8472 1.16482C56.8091 1.05522 56.7403 1.02119 56.6598 1.0291C56.1603 1.0797 55.6733 1.04258 55.1837 1.02601C55.158 1.0077 55.1336 0.992005 55.113 0.985448C55.0379 0.960584 55.0316 0.96663 55.0408 1.02205C54.9806 1.02081 54.9207 1.01771 54.8604 1.01722C54.6342 1.01598 54.4118 0.993733 54.1896 0.971097C54.0725 0.946107 53.9527 0.933984 53.8216 0.933984C53.8015 0.933984 53.7798 0.932606 53.7593 0.932606C53.66 0.924813 53.5597 0.922585 53.4594 0.921227C53.2569 0.90997 53.0482 0.891549 52.85 0.873242C52.7343 0.862359 52.614 0.861981 52.4938 0.886845C52.2188 0.798276 51.9332 0.7864 51.6201 0.977517C51.5174 1.04036 51.4267 1.02824 51.3734 0.915555C51.2599 0.67347 51.0953 0.878556 50.9484 0.925194C50.9835 1.218 51.1332 1.21714 51.2936 1.19487C51.5139 1.16432 51.7279 1.18533 51.9438 1.19102C51.4568 1.48766 50.9696 1.55965 50.4683 1.56534C50.4171 1.56583 50.3657 1.56894 50.3144 1.57414C50.3261 1.54841 50.3368 1.52045 50.3483 1.49472C50.3243 1.48507 50.2962 1.45625 50.2773 1.47197C50.2567 1.48904 50.2324 1.55099 50.2312 1.58723C50.1137 1.60678 49.9964 1.64092 49.8812 1.70153C49.8177 1.73518 49.745 1.71553 49.6911 1.72777C49.678 1.73074 49.7317 1.6549 49.7189 1.65305C49.7101 1.65218 49.6999 1.65701 49.6892 1.66406C49.7148 1.61248 49.7234 1.54878 49.6989 1.52045C49.595 1.4022 49.6779 1.14774 49.608 1.01031C49.5526 1.0108 49.4975 1.0108 49.4424 1.0108C49.3089 1.03516 49.1713 0.943497 49.0453 1.19102L49.0494 1.19054C49.1639 1.48383 49.4402 1.43447 49.5614 1.71676C49.5284 1.71243 49.4915 1.70329 49.4731 1.69154C49.4465 1.6741 49.4392 1.60245 49.4254 1.59849C49.4118 1.59502 49.4181 1.67273 49.4081 1.6679C49.3217 1.62783 49.2035 1.56326 49.1276 1.48025C49.0519 1.39737 48.9591 1.34245 48.9103 1.48953C48.8199 1.7613 48.7188 1.6815 48.6305 1.58414C48.5421 1.48679 48.5294 1.50039 48.4579 1.56979C48.3865 1.63869 48.3495 1.56065 48.2817 1.56807C48.1475 1.58329 48.048 1.60643 47.9019 1.61731C47.8772 1.61904 47.8494 1.61865 47.822 1.61816C47.9357 1.5902 48.0493 1.56276 48.163 1.53481C48.098 1.33713 47.9604 1.3751 47.8393 1.41048C47.6936 1.45365 47.5474 1.47764 47.4017 1.50127C47.4012 1.40255 47.4013 1.3036 47.4004 1.20538C47.5118 1.18448 47.6224 1.16876 47.7335 1.12819C47.7449 1.05261 47.7513 0.854927 47.7046 0.887215C47.6083 0.953518 47.506 1.12547 47.4002 1.13821C47.3988 0.882027 47.3973 0.623608 47.3961 0.359261C47.3427 0.382389 47.2998 0.266243 47.2479 0.273293C47.1645 0.284176 47.0865 0.409847 47.0198 0.165413C46.9131 0.229984 46.8012 0.361855 46.6991 0.424198C46.6687 0.443001 46.6756 0.279339 46.6741 0.232704C46.5722 0.262268 46.4622 0.202545 46.3627 0.203037C46.3108 0.203037 46.2563 0.384991 46.2128 0.397114C46.1693 0.409855 46.0988 0.366196 46.1479 0.251404C45.8699 0.356548 45.5944 0.544697 45.316 0.655533C45.2032 1.02689 45.0779 0.885982 44.9363 0.784668C44.9435 0.790855 44.9604 0.841442 44.9696 0.888077C44.9637 0.892036 44.9579 0.895992 44.9527 0.89859C44.9576 0.921722 44.9614 0.946102 44.9661 0.969234C44.964 0.971088 44.9626 0.973198 44.9596 0.973198C44.8512 0.973198 44.7344 0.930382 44.621 0.95005C44.6028 0.936939 44.5847 0.923458 44.5658 0.913811C44.5717 0.817448 44.593 0.763267 44.6172 0.694366C44.532 0.717003 44.4468 0.725792 44.3622 0.762035C44.4065 0.789867 44.4489 0.829697 44.4904 0.883755C44.4111 0.858395 44.3285 0.852337 44.2444 0.855801C44.2431 0.841453 44.241 0.829697 44.2377 0.824875C44.1913 0.837986 44.1444 0.852703 44.0977 0.86631C44.0232 0.874103 43.9484 0.881523 43.8751 0.882019C43.7222 0.854557 43.569 0.829193 43.4149 0.807792C43.4416 0.783424 43.4581 0.740631 43.4326 0.675564C43.3835 0.549885 43.3127 0.648113 43.2682 0.647247C43.2317 0.646381 43.1806 0.69611 43.1793 0.78035C42.993 0.765877 42.8034 0.772049 42.6105 0.799511C42.7248 0.661213 42.8568 0.669517 42.9767 0.681267C42.8426 0.634136 42.716 0.590099 42.5971 0.800888C42.5601 0.806576 42.524 0.806556 42.4865 0.813854C42.3021 0.803467 42.1181 0.789489 41.934 0.777736C41.9453 0.737163 41.9628 0.710956 41.9807 0.683494C41.9246 0.65504 41.88 0.733211 41.8304 0.772422C41.8048 0.771187 41.7789 0.770332 41.7531 0.76897C41.7227 0.742748 41.6933 0.696956 41.6672 0.64896C41.7105 0.642898 41.7507 0.644153 41.791 0.586631C41.6766 0.594921 41.5708 0.569545 41.4623 0.449928C41.1834 0.513263 40.9113 0.540355 40.6301 0.563488C40.5611 0.569053 40.5224 0.553352 40.4381 0.621883C40.354 0.690414 40.2052 0.763767 40.1067 0.767231C40.0085 0.770694 39.9417 0.730602 39.8386 0.812988C39.8407 0.81002 39.844 0.806564 39.849 0.800376C39.8702 0.775142 39.8372 0.795555 39.8365 0.808666C39.8363 0.811759 39.8352 0.816082 39.8352 0.816082C39.824 0.826099 39.8164 0.838348 39.7969 0.856285C39.6617 0.857151 39.5282 0.804332 39.388 0.979743C39.3628 0.97232 39.337 0.978885 39.3106 0.998924C39.0968 0.99979 38.8826 1.00548 38.6676 1.02292C38.5346 1.00424 38.1925 1.00892 38.0023 1.05741C37.9066 1.08141 37.6807 1.09801 37.5723 0.968002C37.6571 1.05088 37.7663 0.825725 37.8532 0.958335C37.9401 1.09107 38.2131 0.895126 38.2154 0.86148C38.2176 0.828327 38.2191 0.808296 38.22 0.792957L38.2201 0.791725C38.2228 0.759437 38.2214 0.786025 38.2214 0.786025C38.3206 0.77811 38.4159 0.780704 38.5159 0.750148C38.5199 0.748912 38.5222 0.75064 38.5334 0.757198C38.6183 0.808658 38.7202 0.759803 38.8022 0.720962C38.8439 0.700923 38.869 0.7807 38.9016 0.704872C38.9105 0.684337 38.8963 0.715759 38.9134 0.696586C38.9305 0.677783 38.9829 0.69091 38.9993 0.688682C39.0029 0.688312 39.0035 0.686462 39.0035 0.686462C39.0035 0.686462 39.0088 0.69387 39.0321 0.709579C39.0836 0.744586 39.2272 0.810024 39.2863 0.645873C39.2879 0.641544 39.3063 0.686954 39.2852 0.631908C39.2642 0.576984 39.3436 0.724922 39.2563 0.534172C39.1692 0.342681 38.9094 0.413814 38.7789 0.600109C38.7007 0.71181 38.5774 0.658611 38.489 0.64896C38.4848 0.648467 38.4906 0.633746 38.4774 0.643768C38.4642 0.653293 38.405 0.727027 38.3918 0.666042L38.3914 0.662078C38.3864 0.662944 38.3797 0.663318 38.3709 0.662078C38.3002 0.653793 38.2761 0.641555 38.1357 0.677306C37.9222 0.730991 37.4932 0.819194 37.2588 0.789504C37.1001 0.769466 36.9847 0.726642 36.8543 0.740993C36.4716 0.783794 36.1148 0.869399 35.7401 0.873729C35.6676 0.874595 35.6165 0.818675 35.5482 0.88943C35.4799 0.960559 35.4337 0.730117 35.3625 0.932246C35.3561 0.950553 35.3636 1.00115 35.305 1.08143C35.1379 1.31275 34.8247 1.25077 34.6494 0.90552C34.6413 0.889442 34.6451 0.922954 34.6423 0.92345C34.6394 0.924315 34.6425 0.920001 34.6409 0.921733C34.6028 0.956618 34.5246 0.882895 34.4962 0.947467C34.4641 1.01946 34.4668 0.999774 34.4316 1.01721C34.4051 1.03033 34.3982 0.952647 34.3716 0.950049C34.3167 0.943988 34.2491 0.932254 34.1894 0.959716C34.0481 1.02516 33.8916 1.01377 33.7524 1.02169C33.6714 1.02602 33.6055 1.09935 33.5313 1.09762C32.9905 1.08055 32.4541 1.04432 31.9145 1.01773C31.8649 1.01513 31.8114 1.0025 31.7629 1.00337C31.1049 1.01599 30.4549 0.991126 29.7963 0.946593C29.1959 0.905154 28.5887 1.05434 27.9881 1.12509C27.4369 1.19004 26.8889 1.32056 26.3384 1.35853C26.3374 1.35643 26.3356 1.35245 26.332 1.33241C26.3234 1.28652 26.3236 1.09973 26.3422 1.05916C26.3458 1.05087 26.3464 1.04829 26.347 1.04519C26.347 1.04519 26.3511 1.04481 26.3576 1.04036C26.3871 1.01908 26.277 1.07624 26.4276 0.996821C26.578 0.917776 26.8864 0.875841 27.1044 0.81127C27.4018 0.723566 27.7839 0.516726 28.0905 0.535529C28.1093 0.536395 28.1399 0.614069 28.1399 0.614069C28.1399 0.614069 28.2282 0.737151 28.2428 0.698679C28.2438 0.695586 28.2459 0.702166 28.2482 0.703032C28.2506 0.703898 28.2452 0.699561 28.2452 0.699561L28.2463 0.69784C28.2704 0.76068 28.344 0.768095 28.3488 0.70439C28.3493 0.696597 28.3493 0.695593 28.3495 0.691264C28.3549 0.694357 28.3728 0.700045 28.4236 0.714022C28.6139 0.765856 28.9098 0.768958 29.167 0.686945C29.3653 0.624106 29.6898 0.710455 29.911 0.751525C29.9832 0.765009 30.046 0.665183 30.1193 0.663821C30.2525 0.661597 30.3758 0.856673 30.4978 0.589602C30.5004 0.584407 30.4898 0.607535 30.5046 0.577349C30.5193 0.547293 30.5603 0.595267 30.5774 0.601824C30.6396 0.625823 30.7141 0.511031 30.7668 0.567809C30.7695 0.570899 30.7716 0.572638 30.7716 0.572638L30.7694 0.568194C30.7702 0.565226 30.7711 0.567324 30.7711 0.567324C30.7709 0.563861 30.7706 0.561263 30.7701 0.552973C30.7673 0.504481 30.7643 0.527255 30.7521 0.432128C30.7401 0.337371 30.6612 0.234812 30.6341 0.267592C30.6125 0.294188 30.6291 0.270564 30.6291 0.270564C30.6233 0.272788 30.6262 0.277617 30.6238 0.272422C30.5984 0.219603 30.5395 0.243098 30.5203 0.261405C30.5012 0.279837 30.5129 0.27143 30.5066 0.274523C29.8283 0.196841 29.1496 0.287142 28.4708 0.348746C28.4708 0.348746 28.4738 0.353941 28.4698 0.346518C28.4657 0.338232 28.4789 0.357901 28.4647 0.334273C28.4506 0.31077 28.4153 0.369276 28.3964 0.337363C28.3775 0.306437 28.3927 0.291975 28.3649 0.248431C28.2445 0.0616402 28.0876 0.23308 27.953 0.304701C27.7428 0.416777 27.5326 0.450423 27.3113 0.422095C26.5869 0.327833 25.9139 -0.15447 25.2211 0.792956C25.2163 0.800009 25.2114 0.788622 25.2033 0.786024C25.1362 0.762396 25.3304 0.829207 25.1121 0.747564C24.7663 0.618048 24.224 0.89031 23.8528 1.07537C23.5706 1.21626 23.3255 1.10678 23.0542 1.30136C23.3458 1.48023 23.5884 1.75126 23.8559 1.19102L23.856 1.18967C23.856 1.18967 23.859 1.19102 23.863 1.19139C23.8526 1.19226 23.8528 1.19399 23.9475 1.19448C24.1779 1.19572 24.672 1.10679 24.9232 1.05174C25.0943 1.01426 25.0509 1.03824 25.1394 1.33884C25.1414 1.34589 25.1293 1.33105 25.1372 1.34503C25.1453 1.35851 25.1216 1.32538 25.1448 1.36595C25.168 1.40615 25.2459 1.40133 25.2622 1.51649C25.0214 1.56894 24.7815 1.5724 24.5446 1.75041L24.5423 1.75176C24.5346 1.7556 24.5463 1.7447 24.5284 1.75522C24.2693 1.90526 23.9678 1.93806 23.7107 1.97863C23.6614 1.98691 23.6891 1.9826 23.6532 1.98953C23.6461 1.99089 23.6543 1.98829 23.6434 1.99261C23.6343 1.99608 23.6451 1.98827 23.6334 1.99433C23.6311 1.99569 23.6293 1.99657 23.6246 1.99917C23.6188 2.00313 23.6124 2.00746 23.6033 2.01315C23.5174 2.0708 23.1733 2.41073 23.041 2.51934C23.1234 2.54903 23.2498 2.48444 23.3319 2.46353C23.4138 2.443 23.4753 2.49137 23.5471 2.491C23.8254 2.49013 24.0964 2.45513 24.3729 2.41245C24.2924 2.44214 24.2132 2.48928 24.1348 2.5473C24.1138 2.56251 24.0998 2.64414 24.0785 2.64587C23.4882 2.71218 22.8671 2.75634 22.2835 2.84058C21.7001 2.9247 21.1547 2.93484 20.5773 2.96317C20.267 2.97888 19.9528 2.97233 19.6413 2.91951C19.5488 2.90379 19.4599 2.96491 19.3643 2.94128C19.3573 2.93955 19.3528 2.93608 19.3345 2.93089C19.1877 2.88809 19.0244 2.89155 18.8752 2.93608C18.8685 2.93831 18.8705 2.93521 18.8705 2.93521L18.8693 2.93608C18.8454 2.92829 18.8243 2.97233 18.7995 2.94128C18.7749 2.91072 18.6914 2.87584 18.6909 2.9435C18.6908 2.95575 18.6908 2.95971 18.6908 2.96404C18.6579 3.16827 18.6112 3.30879 18.5562 3.40738C18.951 3.37114 19.3457 3.3349 19.7431 3.3349C20.7816 3.3349 21.8228 3.3516 22.8626 3.27602C23.3766 3.23854 23.89 3.30484 24.4016 3.10803C24.4131 3.1037 24.4225 3.11718 24.4333 3.11978C24.8017 3.20662 25.1369 3.22715 25.5115 3.08885C25.7544 2.99892 26.0516 3.0129 26.2967 3.01946C26.3687 3.02169 26.3359 3.02812 26.3521 3.1731C26.1949 3.17607 26.0424 3.13636 25.8865 3.17607C25.3385 3.31486 24.7958 3.44364 24.2451 3.54309C23.5638 3.66667 22.8749 3.70365 22.1916 3.7535C21.8603 3.7775 21.5258 3.74645 21.1975 3.82289C21.1685 3.82933 21.1318 3.84207 21.1156 3.84553C21.1123 3.8464 21.1096 3.84689 21.1096 3.84689C20.9972 3.78702 20.9104 3.78838 20.7905 3.801C20.6702 3.81411 20.5192 3.82672 20.3933 3.83637C20.4522 3.87348 20.5097 3.94029 20.5589 4.04408C20.5647 4.05669 20.5624 4.03887 20.565 4.04456C20.567 4.04889 20.5661 4.04186 20.5671 4.04495C20.5763 4.0786 20.5884 4.09999 20.5951 4.13611C20.6517 4.44908 20.8896 4.39935 20.9042 4.35222C20.9122 4.326 20.9149 4.31683 20.9181 4.30545C20.9191 4.30322 20.9196 4.30199 20.9196 4.30199L20.9214 4.30457L20.9221 4.30163C20.9245 4.30596 20.926 4.30854 20.9316 4.31683C20.9673 4.37138 21.1585 4.34221 21.1894 4.28716C21.2288 4.21739 21.1854 4.29593 21.2003 4.27194L21.2015 4.26921L21.2026 4.27365C21.2076 4.27749 21.2111 4.27799 21.2169 4.2989C21.2225 4.31993 21.2628 4.31685 21.2613 4.35829C21.2598 4.39972 21.2287 4.49446 21.1975 4.48271C21.0045 4.41022 20.7672 4.43509 20.5807 4.49051C20.3943 4.54593 20.2884 4.52588 20.1233 4.31163C20.0715 4.36829 20.0345 4.48791 19.9926 4.59528C19.6089 4.70215 19.2267 4.65503 18.8426 4.69474C18.6095 4.71874 18.3759 4.96614 18.142 5.0155C18.1707 4.93348 18.2085 4.89674 18.2434 4.83835C17.9232 4.93039 17.6061 4.97531 17.2848 4.92731C17.2336 5.12684 17.163 5.21231 17.0952 5.34318C17.3306 5.33193 17.5583 5.36989 17.7892 5.52303C17.6722 5.5239 17.556 5.50251 17.4393 5.54135C17.8275 5.56399 18.2092 5.4445 18.5945 5.30917C18.597 5.37374 18.5914 5.42532 18.5779 5.46887C18.7481 5.50561 18.9051 5.3135 19.0734 5.29655C19.5093 5.25202 19.9489 5.25683 20.385 5.12806C20.0127 5.31312 19.641 5.5051 19.2702 5.71985C18.4613 5.78565 17.658 5.9821 16.8524 6.23569C16.8547 6.2081 16.8437 6.22604 16.855 6.18943C16.8662 6.15232 16.9136 6.10431 16.9282 6.07116C16.9427 6.03801 16.9471 6.00784 16.9345 5.96776C16.9219 5.92706 16.9322 5.94548 16.9035 5.90528C16.8747 5.8652 16.831 5.81981 16.7796 5.77392C16.728 5.72852 16.63 5.63042 16.5715 5.55051C16.5691 5.54704 16.568 5.54964 16.5628 5.53789C16.5577 5.52651 16.5452 5.50993 16.5359 5.49076C16.5268 5.47146 16.5162 5.45019 16.5062 5.41519C16.4961 5.3803 16.478 5.32746 16.4724 5.27464C16.4712 5.26376 16.4762 5.27565 16.4784 5.25338C16.5065 4.96875 16.4006 4.76017 16.393 4.93434C16.392 4.95661 16.3921 4.96232 16.3917 4.97184C16.3425 5.02553 16.2806 5.05349 16.2361 5.10668C16.2267 5.11757 16.2496 5.17915 16.2462 5.19312C16.2426 5.20748 16.2472 5.19055 16.2456 5.19747C16.2446 5.2018 16.2459 5.20141 16.2459 5.20141C16.2433 5.20574 16.2608 5.17952 16.2244 5.23408C16.1879 5.28863 16.073 5.45848 16.0226 5.54792C16.0189 5.55398 16.0259 5.551 16.0121 5.55273C15.9983 5.55396 15.9665 5.54792 15.9433 5.56449C15.9201 5.58107 15.9033 5.6491 15.8808 5.69759C15.8033 5.86558 15.7358 5.96156 15.6335 5.93929C15.5312 5.91703 15.4216 5.86867 15.3121 5.79136C15.1468 5.67446 14.9896 5.46108 14.8447 5.89873C14.8418 5.90751 14.8529 5.90787 14.8241 5.95587C14.7953 6.00386 14.6714 5.9158 14.6284 5.85209C14.4573 5.59814 14.3235 5.66394 14.1617 5.88351C14.0001 6.10295 13.8572 6.23 13.7296 6.60086C13.7259 6.611 13.7367 6.62275 13.7413 6.62226C13.8152 6.61446 13.9392 6.57215 14.003 6.57116C14.0668 6.56943 14.0827 6.64848 14.1283 6.65022C14.1311 6.65071 14.1332 6.64799 14.1332 6.64799C14.1313 6.65158 14.1284 6.66282 14.1285 6.69684C14.1287 6.76983 14.0515 6.88414 14.0336 6.95007C14.0157 7.01501 14.0452 7.10631 14.0718 7.10062C14.2598 7.06004 14.401 7.23284 14.6019 7.20093C14.9223 7.15033 15.2854 7.03516 15.6149 6.94127C15.8 6.88845 15.9591 6.82784 16.1426 6.64452C16.3263 6.46169 16.5239 6.44512 16.7176 6.54594C16.7333 6.55373 16.7685 6.56474 16.7693 6.56993C16.7701 6.57513 16.7736 6.66158 16.7461 6.63535C16.7186 6.60962 16.5989 6.56029 16.5535 6.56561C16.515 6.80732 16.5999 6.77639 16.4505 6.80682C16.4245 6.81214 16.406 6.87758 16.4485 6.91296C16.4911 6.94784 16.5507 7.12326 16.6031 7.11064C16.7967 7.06265 16.9825 7.00066 17.1733 7.19041C17.2087 7.22579 17.2697 7.24064 17.2912 7.25413C17.3127 7.26774 17.3 7.28864 17.3038 7.30485C17.3074 7.32093 17.3216 7.41085 17.3104 7.41122C17.185 7.41518 17.0444 7.38635 16.9138 7.41654C16.9138 7.41654 16.9127 7.41432 16.9113 7.41086C16.9023 7.39206 16.931 7.44623 16.899 7.38203C16.867 7.31746 16.7921 7.28084 16.7404 7.28344C16.3459 7.30397 15.9488 7.29914 15.5539 7.40429C15.5294 7.41084 15.5062 7.41431 15.4802 7.40207C15.3988 7.36409 15.3386 7.40516 15.2506 7.396C15.1627 7.38722 15.0479 7.3668 14.9542 7.40429L14.9528 7.40344C14.9528 7.40344 14.9492 7.40344 14.9456 7.40344C14.9294 7.40381 14.9031 7.40381 14.8801 7.40344C14.7588 7.40122 14.6299 7.39998 14.5085 7.39738C14.5025 7.39738 14.5102 7.40084 14.5051 7.39428C14.4999 7.3881 14.5142 7.40863 14.4917 7.3808C14.4693 7.35322 14.3795 7.36062 14.3616 7.38993C14.3594 7.39377 14.3591 7.39428 14.3578 7.39651L14.3578 7.39464C14.3534 7.39687 14.3512 7.39861 14.3512 7.39861C14.3512 7.39861 14.3493 7.39773 14.3381 7.39909C14.31 7.40293 14.2465 7.40083 14.2034 7.39774C14.1603 7.39514 14.1055 7.3986 14.0572 7.396C13.9366 7.38994 13.8093 7.40429 13.6884 7.38858C13.6588 7.38462 13.6415 7.3506 13.6112 7.39291C13.6112 7.39291 13.6094 7.39291 13.6048 7.39464C13.5929 7.39947 13.5576 7.39031 13.5361 7.39909C13.5146 7.40775 13.4844 7.45365 13.46 7.45538C13.4356 7.45662 13.414 7.47506 13.3879 7.45935C13.2957 7.40381 13.2002 7.41605 13.1069 7.45316C13.098 7.45662 13.097 7.45797 13.0911 7.45884C13.0843 7.45971 13.0833 7.46059 13.0764 7.45935C12.9605 7.44092 12.8377 7.4414 12.7227 7.45278C12.4623 7.47974 12.2049 7.47505 11.9475 7.45971C11.8777 7.45538 11.8178 7.46886 11.7549 7.52477C11.752 7.52688 11.7539 7.55262 11.7657 7.55399C11.7765 7.55534 11.751 7.56188 11.7146 7.56089C11.6773 7.56003 11.5879 7.56188 11.5407 7.56089C11.5869 7.55619 11.6351 7.54433 11.6822 7.52219C11.6007 7.468 11.527 7.45229 11.4415 7.45452C11.136 7.46231 10.8176 7.46454 10.5131 7.43794C10.0846 7.39947 9.66708 7.44005 9.23971 7.37597C9.19548 7.36979 9.14341 7.3829 9.09823 7.39552C8.96263 7.43313 8.829 7.43436 8.69342 7.44091C8.68752 7.44091 8.68064 7.44969 8.67966 7.47628C8.67868 7.50201 8.69148 7.52738 8.70031 7.53047C8.87323 7.58799 9.04713 7.6194 9.22203 7.62076C9.25838 7.62113 9.29177 7.57105 9.32814 7.54915C9.29079 7.57933 9.27015 7.64391 9.22596 7.64997C9.18173 7.65702 9.03337 7.66084 9.02944 7.83105C9.02649 8.00126 9.0933 7.87955 9.11 7.9341C8.75335 7.92581 8.40162 7.92967 8.04004 7.92707C7.91822 7.92621 7.76004 7.87695 7.7286 8.35035C7.72272 8.44598 7.74628 8.49436 7.7502 8.56635C7.75513 8.63847 7.79541 8.58998 7.79638 8.62709C7.80033 8.87623 7.94081 8.78158 7.99681 8.77713C8.05282 8.77329 8.11179 8.79335 8.1668 8.78679C8.04005 8.83528 7.88188 8.74622 7.76298 8.85793C7.6716 8.9439 7.76397 9.08527 7.81997 9.08701C8.41342 9.10791 9.01078 9.0844 9.60714 9.07215C10.0837 9.06263 10.5602 9.0499 11.0357 9.03951C11.0347 9.04817 11.0338 9.05782 11.0328 9.06648C11.0367 9.05782 11.0397 9.04817 11.0426 9.03951C11.2686 9.03419 11.4946 9.03295 11.7205 9.02936C11.6783 9.23718 11.6184 9.44574 11.6714 9.64205C11.6636 9.65479 11.6596 9.66877 11.6577 9.68312C11.6567 9.69363 11.6557 9.70105 11.6567 9.70624C11.6547 9.70191 11.6528 9.69798 11.6508 9.69315C11.6046 9.64998 11.5456 9.6522 11.4887 9.64997C11.4651 9.64774 11.4425 9.64824 11.4189 9.6491C11.3953 9.64824 11.3717 9.64996 11.3482 9.65256C11.2145 9.66963 11.0799 9.73593 10.9473 9.73816C10.9218 9.74075 10.8962 9.74733 10.8707 9.75512C10.7518 9.81759 10.6378 9.80571 10.5219 9.81709C10.2655 9.88302 10.011 9.91222 9.75454 9.97556C9.66121 9.99869 9.5649 10.0056 9.49711 10.1458C9.48533 10.1401 9.47255 10.1387 9.45879 10.1409C9.45781 10.1387 9.45684 10.137 9.45684 10.137C9.447 10.109 9.43226 10.1069 9.4126 10.1344C9.38018 10.137 9.34777 10.1404 9.31535 10.1439C9.16796 10.161 9.01863 10.2548 8.87225 10.2465C8.80936 10.2587 8.77104 10.2906 8.83195 10.3543C8.88698 10.4132 8.99212 10.3303 9.03633 10.4315C8.88994 10.4629 8.74255 10.4949 8.59617 10.5263C8.50576 10.5511 8.39868 10.456 8.33579 10.6689C8.07739 10.7077 7.817 10.7021 7.56156 10.7994C7.33755 10.8841 7.11255 10.9661 6.88758 11.0451C6.73429 11.0996 6.65667 11.3327 6.51815 11.4361C6.44938 11.4881 6.45918 11.602 6.44348 11.6905C6.4523 11.7394 6.46018 11.7883 6.46901 11.8371C6.43857 12.006 6.40908 12.1584 6.52207 12.2718C6.58985 12.3386 6.51126 12.4219 6.43756 12.4516C6.37471 12.5118 6.32457 12.5777 6.37075 12.6715C6.38058 12.6925 6.38551 12.7152 6.38649 12.7379C6.27645 12.7335 6.20078 12.7479 6.20373 12.8111C6.20373 12.8182 6.09175 12.8234 6.13987 12.8552C6.16739 12.8728 6.22044 12.8814 6.26464 12.8757C6.30296 12.8705 6.33934 12.8714 6.37568 12.8692C6.37371 12.8893 6.37175 12.9094 6.37273 12.9285C6.36488 12.9857 6.36977 13.0333 6.40024 13.066C6.413 13.121 6.45035 13.1285 6.4867 13.1371C6.31377 13.2804 6.31672 13.2773 6.40123 13.4361C6.46019 13.5483 6.53092 13.6158 6.64881 13.5975C6.75294 13.5814 6.85614 13.5858 6.96027 13.5806C6.99073 13.5801 7.02117 13.5797 7.05164 13.5792C7.08702 13.5863 7.12926 13.564 7.15678 13.605C7.11453 13.6403 7.07326 13.6748 7.03199 13.7092C6.94456 13.7355 6.85514 13.6875 6.72939 13.8183C6.89839 13.8974 7.05853 13.8349 7.20491 13.8411C7.2835 13.8437 7.3631 13.8432 7.38176 13.972C7.34246 13.9837 7.3022 13.9772 7.24813 13.9925C7.14695 13.9863 7.04674 13.9772 6.94651 13.9668C6.89543 13.9615 6.83255 13.9637 6.80208 13.9877C6.7854 14.0012 6.80798 14.013 6.83943 14.0169C6.93963 14.0279 7.04084 14.0383 7.14105 14.0483L7.14498 14.0488C7.16857 14.0514 7.19116 14.0536 7.21377 14.0562C7.33559 14.0479 7.42894 14.0676 7.47905 14.1108C7.52818 14.1539 7.41713 14.1784 7.36212 14.1941C7.21179 14.2377 7.19903 14.2552 7.39454 14.277C7.58811 14.2984 7.78164 14.311 7.98111 14.3115C7.99289 14.315 8.00467 14.3154 8.01746 14.3128C8.15303 14.3438 8.32498 14.3128 8.45368 14.3547C8.47335 14.3853 8.45173 14.407 8.36626 14.4036C8.17173 14.3958 8.01648 14.4241 7.88876 14.4813C7.71778 14.4433 7.53996 14.4424 7.3582 14.4655C7.32381 14.4598 7.27075 14.4581 7.29039 14.4355C7.31595 14.4067 7.32575 14.3809 7.22161 14.3875C7.14104 14.3918 7.09292 14.4167 7.11551 14.4498C7.14105 14.4873 7.21081 14.5083 7.31202 14.5075C7.4928 14.5519 7.31987 14.5603 7.26682 14.5807C7.21769 14.5878 7.12239 14.5895 7.14302 14.6117C7.20001 14.672 7.16857 14.7627 7.42992 14.7627C7.55764 14.7627 7.66965 14.7898 7.77969 14.8143C7.79933 14.8247 7.80915 14.8338 7.81406 14.8426C7.8062 14.8347 7.7954 14.826 7.77969 14.8143C7.8062 14.8652 7.7502 14.8788 7.63624 14.8649C7.58516 14.8597 7.50851 14.8431 7.49573 14.8726C7.47805 14.9123 7.5714 14.9106 7.64116 14.9115L7.64312 14.9111L7.64408 14.912C7.64408 14.9251 7.64408 14.9368 7.64408 14.9495C7.63328 14.9531 7.61855 14.9556 7.59791 14.9577C7.5321 14.9652 7.45351 14.9548 7.4024 14.9814C7.31495 14.9971 7.22753 15.0132 7.14105 15.0289C7.19313 15.0708 7.36998 15.076 7.29434 15.1319C7.25602 15.1602 7.15087 15.1493 7.09684 15.1345C6.84137 15.0665 6.92882 15.1751 6.8905 15.2044C6.85906 15.227 6.94161 15.2633 6.92097 15.2968C6.76476 15.3842 6.81486 15.4182 7.11846 15.4321C7.11846 15.4453 7.11846 15.4587 7.11846 15.4719C7.08605 15.4776 7.05262 15.4832 7.02021 15.4893C7.02413 15.491 7.02906 15.4928 7.03396 15.495L7.02906 15.495L7.02021 15.4893C6.94356 15.4932 6.86006 15.4779 6.79029 15.4998C6.74411 15.5007 6.69795 15.5024 6.6508 15.5019C6.63409 15.5565 6.61934 15.6141 6.60559 15.6721C6.51519 15.6595 6.40123 15.6783 6.32066 15.6543C6.2224 15.625 6.12906 15.6045 6.04849 15.6626C5.97285 15.7172 6.00331 15.8318 6.11138 15.8494C6.25679 15.8738 6.40024 15.9012 6.54958 15.9214C6.46115 16.3642 6.40319 16.8591 6.2892 17.2602C7.09487 17.1148 7.84259 17.2253 8.60205 17.7703C8.53131 17.7703 8.4763 17.7835 8.45468 17.8253C8.36331 17.8877 8.21296 17.8689 8.07641 17.8698C7.8907 17.8898 7.70895 17.8018 7.50163 17.8555C7.60086 17.9192 7.80915 17.8869 7.88188 17.9571C7.89759 17.9723 7.92215 17.9295 7.93296 17.9117C8.06068 17.9117 8.10293 17.9563 8.17367 17.9863C8.14813 18.0091 8.1324 18.0352 8.09507 18.054C7.94769 18.1277 7.95457 18.1391 8.19333 18.1579C8.26113 18.1635 8.33187 18.1609 8.40163 18.1622C8.50969 18.1871 8.62956 18.1809 8.74648 18.1819C8.84964 18.2111 8.97148 18.1893 9.08152 18.2019C9.09427 18.205 9.10706 18.208 9.11985 18.2106C9.13652 18.2277 9.15421 18.2425 9.17092 18.2599C9.15129 18.2752 9.0874 18.2734 9.02847 18.2783C8.91155 18.2865 8.75238 18.2622 8.70031 18.3346C8.66886 18.3399 8.63741 18.3459 8.60597 18.3516C8.43502 18.3188 8.25914 18.3119 8.07641 18.335C8.04396 18.3289 7.99092 18.3297 8.00467 18.3066C8.01648 18.2865 8.06166 18.2643 7.97323 18.2556C7.91037 18.2491 7.85732 18.2657 7.8357 18.2831C7.72664 18.3699 7.90839 18.3642 8.02826 18.3769C8.20806 18.4219 8.04202 18.4284 7.9811 18.4471C7.94574 18.4542 7.91037 18.4616 7.875 18.4681C7.8799 18.5336 7.84943 18.6095 8.07641 18.6239C8.2277 18.6327 8.35739 18.6606 8.492 18.685C8.50673 18.7299 8.45565 18.7435 8.3525 18.7343C8.29649 18.729 8.21001 18.7055 8.20021 18.7444C8.19038 18.7801 8.28961 18.7801 8.36132 18.7815C8.37803 18.8172 8.32203 18.8233 8.25522 18.8242C8.18351 18.825 8.12062 18.8321 8.07641 18.8569C8.00074 18.8683 7.92607 18.8801 7.85338 18.8909C7.874 18.9389 8.0538 18.9377 8.01843 18.99C7.99387 19.0271 7.90447 19.0123 7.83765 19.0109C7.65392 18.946 7.65392 18.946 7.59597 19.0498C7.60775 19.0882 7.61952 19.1266 7.63134 19.1651C7.51342 19.2065 7.48986 19.2457 7.64214 19.2829C7.64312 19.2877 7.64508 19.2928 7.64804 19.2982C7.68143 19.3134 7.71385 19.3287 7.74627 19.3444C7.70895 19.3488 7.67258 19.3562 7.63429 19.3571C7.54586 19.3588 7.4309 19.3557 7.43287 19.402C7.43385 19.4465 7.537 19.4618 7.64408 19.4596C7.70794 19.4714 7.77184 19.4836 7.8347 19.4959C7.87007 19.5185 8.02235 19.5464 7.81406 19.5578C7.64408 19.567 7.47512 19.5865 7.31102 19.5499C7.2236 19.5225 7.10471 19.5495 7.01628 19.5216C6.92883 19.4945 6.83744 19.4719 6.7569 19.5264C6.68321 19.5761 6.70483 19.7039 6.80014 19.717C7.01924 19.7464 7.21572 19.8 7.45153 19.8095C7.71583 19.8392 7.95949 19.8864 8.18447 19.9506C8.20313 19.9558 8.22478 19.9615 8.24639 19.9654C7.62053 20.0016 6.99564 20.112 6.36782 20.3162C6.33833 20.6322 6.21356 20.7073 6.15853 20.9809C6.38746 20.9839 6.58103 21.0241 6.77458 21.4374C6.57905 21.4137 6.59674 21.6668 6.57807 22.1992C6.33145 22.2778 6.05637 22.2917 6.03573 23.2378C5.62307 23.5163 5.31259 24.081 4.9972 24.9568C4.90287 24.8394 4.83314 24.9084 4.74274 25.0472C4.73683 25.0563 4.73881 25.1121 4.71818 25.1013C4.69657 25.0904 4.67005 25.0406 4.64646 24.9852C4.62189 24.9302 4.56196 24.959 4.53545 24.9686C4.50891 24.9782 4.46568 25.0079 4.47155 25.0904C4.47746 25.1729 4.52363 25.175 4.53346 25.2181C4.54229 25.2614 4.504 25.2104 4.50299 25.2313C4.92057 25.6969 5.36666 25.6175 5.79009 25.9539C5.79502 25.9522 5.51105 26.0901 5.57394 26.1164C5.63682 26.1425 6.02294 25.8837 6.0652 26.2516C4.97559 26.3318 3.87715 26.2847 2.78361 26.3493C2.5881 26.8896 2.7443 26.9974 2.91722 27.2744C3.22771 27.1606 3.50084 27.0253 3.78578 27.521C4.28292 27.4194 4.74371 27.336 5.22517 27.8139C4.5885 28.276 3.94985 28.4213 3.3004 28.5452C2.6048 29.0894 1.90229 29.5206 1.21945 30.2171C1.23713 30.375 1.2617 30.5012 1.28922 30.6141C1.18898 30.6875 1.08975 30.7617 0.990526 30.832C0.83333 30.7617 0.737047 31.0143 0.670236 31.4293C0.536608 31.6572 0.402979 31.8849 0.268373 32.1128C0.176019 32.1908 0.15539 32.4226 0.145555 32.6809L0.146547 32.6827Z" fill="#808288"/>
</svg>
