<svg width="33" height="38" viewBox="0 0 33 38" fill="none" xmlns="http://www.w3.org/2000/svg">
<g filter="url(#filter0_d_110_9)">
<path fill-rule="evenodd" clip-rule="evenodd" d="M16.9747 26.6558C16.7612 26.8125 16.5622 26.9547 16.3803 27.0822C16.1863 26.9535 15.9712 26.8055 15.7378 26.6387C14.6377 25.8515 13.2108 24.696 11.8056 23.2548C8.92337 20.2987 6.5 16.5252 6.5 12.5C6.5 6.97715 10.9771 2.5 16.5 2.5C22.0228 2.5 26.5 6.97715 26.5 12.5C26.5 16.482 23.9698 20.2447 20.9822 23.2322C19.5327 24.6818 18.074 25.8498 16.9747 26.6558ZM29 12.5C29 22.5 16.5 30 16.5 30C15.875 30 4 22.5 4 12.5C4 5.59643 9.59643 0 16.5 0C23.4035 0 29 5.59643 29 12.5ZM19 12.5C19 13.8807 17.8807 15 16.5 15C15.1193 15 14 13.8807 14 12.5C14 11.1193 15.1193 10 16.5 10C17.8807 10 19 11.1193 19 12.5ZM21.5 12.5C21.5 15.2615 19.2615 17.5 16.5 17.5C13.7385 17.5 11.5 15.2615 11.5 12.5C11.5 9.73858 13.7385 7.5 16.5 7.5C19.2615 7.5 21.5 9.73858 21.5 12.5Z" fill="#F4F0EC"/>
</g>
<defs>
<filter id="filter0_d_110_9" x="0" y="0" width="33" height="38" filterUnits="userSpaceOnUse" color-interpolation-filters="sRGB">
<feFlood flood-opacity="0" result="BackgroundImageFix"/>
<feColorMatrix in="SourceAlpha" type="matrix" values="0 0 0 0 0 0 0 0 0 0 0 0 0 0 0 0 0 0 127 0" result="hardAlpha"/>
<feOffset dy="4"/>
<feGaussianBlur stdDeviation="2"/>
<feComposite in2="hardAlpha" operator="out"/>
<feColorMatrix type="matrix" values="0 0 0 0 0 0 0 0 0 0 0 0 0 0 0 0 0 0 0.25 0"/>
<feBlend mode="normal" in2="BackgroundImageFix" result="effect1_dropShadow_110_9"/>
<feBlend mode="normal" in="SourceGraphic" in2="effect1_dropShadow_110_9" result="shape"/>
</filter>
</defs>
</svg>
