<svg width="42" height="42" viewBox="0 0 42 42" fill="none" xmlns="http://www.w3.org/2000/svg">
<g filter="url(#filter0_d_110_15)">
<path d="M21 0C17.6378 0 14.3509 0.997027 11.5553 2.86501C8.75968 4.73299 6.58075 7.38802 5.29406 10.4944C4.00737 13.6006 3.67071 17.0189 4.32665 20.3165C4.9826 23.6143 6.6017 26.6432 8.97919 29.0209C11.3567 31.3983 14.3858 33.0174 17.6835 33.6734C20.9811 34.3293 24.3994 33.9925 27.5057 32.7058C30.612 31.4192 33.267 29.2404 35.1351 26.4447C37.003 23.6491 38 20.3624 38 17C38 12.4913 36.2088 8.1673 33.0209 4.97919C29.8328 1.79105 25.5086 0 21 0ZM29.3513 11.645L26.5675 24.7987C26.355 25.7337 25.8025 25.9462 25.0163 25.5212L20.7663 22.3762L18.6413 24.3525C18.5412 24.4832 18.4126 24.5894 18.2653 24.6632C18.1181 24.7367 17.9559 24.7758 17.7913 24.7775L18.0888 20.5275L25.9512 13.4087C26.3125 13.1112 25.9513 12.9412 25.4413 13.2387L15.7938 19.295L11.5437 17.9775C10.63 17.7012 10.6087 17.0637 11.735 16.6387L28.1188 10.2637C28.9263 10.03 29.6063 10.4975 29.3513 11.645Z" fill="#F4F0EC"/>
</g>
<defs>
<filter id="filter0_d_110_15" x="0" y="0" width="42" height="42" filterUnits="userSpaceOnUse" color-interpolation-filters="sRGB">
<feFlood flood-opacity="0" result="BackgroundImageFix"/>
<feColorMatrix in="SourceAlpha" type="matrix" values="0 0 0 0 0 0 0 0 0 0 0 0 0 0 0 0 0 0 127 0" result="hardAlpha"/>
<feOffset dy="4"/>
<feGaussianBlur stdDeviation="2"/>
<feComposite in2="hardAlpha" operator="out"/>
<feColorMatrix type="matrix" values="0 0 0 0 0 0 0 0 0 0 0 0 0 0 0 0 0 0 0.25 0"/>
<feBlend mode="normal" in2="BackgroundImageFix" result="effect1_dropShadow_110_15"/>
<feBlend mode="normal" in="SourceGraphic" in2="effect1_dropShadow_110_15" result="shape"/>
</filter>
</defs>
</svg>
