<svg width="52" height="40" viewBox="0 0 52 40" fill="none" xmlns="http://www.w3.org/2000/svg">
<g filter="url(#filter0_d_179_6)">
<path fill-rule="evenodd" clip-rule="evenodd" d="M37.336 29.9944C41.9448 30.1621 45.82 26.5701 46 21.9636V10.0364C45.82 5.43001 41.9448 1.83793 37.336 2.00564H14.664C10.0553 1.83793 6.17996 5.43001 6 10.0364V21.9636C6.17996 26.5701 10.0553 30.1621 14.664 29.9944H37.336Z" stroke="#F4F0EC" stroke-width="3.6" stroke-linecap="round" stroke-linejoin="round" shape-rendering="crispEdges"/>
</g>
<g filter="url(#filter1_d_179_6)">
<path fill-rule="evenodd" clip-rule="evenodd" d="M25.0162 10.3503L31.3386 14.6459C31.7482 14.8851 32 15.3237 32 15.7978C32 16.2722 31.7482 16.7108 31.3386 16.9498L25.0162 21.6494C23.8161 22.4634 22 21.7694 22 20.4975V11.4982C22 10.2323 23.8181 9.53635 25.0162 10.3503Z" stroke="#F4F0EC" stroke-width="3.6" stroke-linecap="round" stroke-linejoin="round" shape-rendering="crispEdges"/>
</g>
<defs>
<filter id="filter0_d_179_6" x="0.199951" y="0.199951" width="51.6001" height="39.6001" filterUnits="userSpaceOnUse" color-interpolation-filters="sRGB">
<feFlood flood-opacity="0" result="BackgroundImageFix"/>
<feColorMatrix in="SourceAlpha" type="matrix" values="0 0 0 0 0 0 0 0 0 0 0 0 0 0 0 0 0 0 127 0" result="hardAlpha"/>
<feOffset dy="4"/>
<feGaussianBlur stdDeviation="2"/>
<feComposite in2="hardAlpha" operator="out"/>
<feColorMatrix type="matrix" values="0 0 0 0 0 0 0 0 0 0 0 0 0 0 0 0 0 0 0.25 0"/>
<feBlend mode="normal" in2="BackgroundImageFix" result="effect1_dropShadow_179_6"/>
<feBlend mode="normal" in="SourceGraphic" in2="effect1_dropShadow_179_6" result="shape"/>
</filter>
<filter id="filter1_d_179_6" x="16.2" y="8.20038" width="21.6001" height="23.5992" filterUnits="userSpaceOnUse" color-interpolation-filters="sRGB">
<feFlood flood-opacity="0" result="BackgroundImageFix"/>
<feColorMatrix in="SourceAlpha" type="matrix" values="0 0 0 0 0 0 0 0 0 0 0 0 0 0 0 0 0 0 127 0" result="hardAlpha"/>
<feOffset dy="4"/>
<feGaussianBlur stdDeviation="2"/>
<feComposite in2="hardAlpha" operator="out"/>
<feColorMatrix type="matrix" values="0 0 0 0 0 0 0 0 0 0 0 0 0 0 0 0 0 0 0.25 0"/>
<feBlend mode="normal" in2="BackgroundImageFix" result="effect1_dropShadow_179_6"/>
<feBlend mode="normal" in="SourceGraphic" in2="effect1_dropShadow_179_6" result="shape"/>
</filter>
</defs>
</svg>
